<?xml version="1.0" encoding="utf-8"?>
<!-- Generator: Adobe Illustrator 24.1.2, SVG Export Plug-In . SVG Version: 6.00 Build 0)  -->
<svg version="1.1" id="Layer_1" xmlns="http://www.w3.org/2000/svg" xmlns:xlink="http://www.w3.org/1999/xlink" x="0px" y="0px"
	 viewBox="0 0 600 309" style="enable-background:new 0 0 600 309;" xml:space="preserve">
<style type="text/css">
	.st0{fill:#777A80;}
	.st1{fill:#F3F3F3;}
	.st2{fill:url(#SVGID_1_);}
	.st3{fill:#FFFFFF;}
	.st4{fill:url(#SVGID_2_);}
	.st5{fill:url(#SVGID_3_);}
</style>
<g>
	<g>
		<path class="st1" d="M338.9,153.2l-132.8,0c-10.3,0-18.6,8.3-18.6,18.6v0c0,10.3,8.3,18.6,18.6,18.6l132.8,0
			c10.3,0,18.6-8.3,18.6-18.6v0C357.5,161.6,349.2,153.2,338.9,153.2z"/>
		<g>
			<path d="M205.3,166.2l5.9,9.1v-9.1h1.3v11.2h-1.4l-5.9-9.1v9.1h-1.3v-11.2H205.3z"/>
			<path d="M219.8,169.4c0.5,0.2,0.8,0.6,1.1,1c0.3,0.4,0.4,1,0.4,1.6v5.5H220v-1.2c-0.3,0.5-0.6,0.8-1.1,1s-1,0.4-1.7,0.4
				c-0.5,0-1-0.1-1.4-0.3c-0.4-0.2-0.7-0.5-1-0.8c-0.2-0.4-0.3-0.8-0.3-1.2c0-0.4,0.1-0.8,0.3-1.2c0.2-0.4,0.5-0.7,0.9-0.9
				s0.8-0.4,1.3-0.4l2.4-0.2c0.2,0,0.3-0.1,0.4-0.2c0.1-0.1,0.2-0.3,0.2-0.6c0-0.3-0.1-0.6-0.2-0.9s-0.4-0.4-0.7-0.6
				c-0.3-0.1-0.6-0.2-1-0.2c-0.4,0-0.7,0.1-1,0.2c-0.3,0.1-0.5,0.3-0.7,0.5c-0.2,0.2-0.3,0.4-0.3,0.7h-1.2c0-0.5,0.2-0.9,0.5-1.2
				s0.7-0.7,1.2-0.9s1-0.3,1.6-0.3C218.8,169.1,219.3,169.2,219.8,169.4z M218.8,176.4c0.4-0.2,0.7-0.5,0.9-0.8s0.3-0.7,0.3-1.2
				v-0.9l-2.8,0.3c-0.4,0-0.8,0.2-1,0.5c-0.3,0.3-0.4,0.6-0.4,1c0,0.3,0.1,0.5,0.2,0.7c0.1,0.2,0.3,0.4,0.6,0.5
				c0.3,0.1,0.6,0.2,0.9,0.2C218,176.6,218.4,176.5,218.8,176.4z"/>
			<path d="M225.5,177.4c-0.6,0-1.1-0.2-1.4-0.5s-0.5-0.7-0.5-1.3l0-5.3h-1.4l0-1.1h0.9c0.2,0,0.4-0.1,0.5-0.2
				c0.1-0.1,0.2-0.3,0.2-0.5v-1.4h1.2v2h2l0,1.1h-2l0,5.2c0,0.2,0.1,0.4,0.2,0.5c0.1,0.1,0.3,0.2,0.5,0.2h1.2v1.1H225.5z"/>
			<path d="M228.3,167.8v-1.5h1.5v1.5H228.3z M229.7,177.4h-1.3v-8.2h1.3V177.4z"/>
			<path d="M235.4,177.4H234l-3.2-8.2h1.4l2.5,6.7l2.5-6.7h1.3L235.4,177.4z"/>
			<path d="M246.8,173.7h-6.5c0,0.6,0.2,1.1,0.4,1.5c0.2,0.4,0.6,0.8,1,1c0.4,0.2,0.9,0.4,1.4,0.4c0.3,0,0.7-0.1,1-0.2
				c0.3-0.1,0.6-0.3,0.8-0.4c0.2-0.2,0.4-0.4,0.5-0.7h1.2c-0.1,0.4-0.3,0.9-0.7,1.2c-0.3,0.4-0.8,0.6-1.3,0.9
				c-0.5,0.2-1.1,0.3-1.7,0.3c-0.8,0-1.5-0.2-2.1-0.6c-0.6-0.4-1.1-0.9-1.4-1.5c-0.3-0.7-0.5-1.4-0.5-2.2c0-0.8,0.2-1.5,0.5-2.2
				c0.3-0.7,0.8-1.2,1.4-1.5c0.6-0.4,1.3-0.6,2.1-0.6c0.7,0,1.4,0.2,2,0.6c0.6,0.4,1,0.9,1.4,1.5c0.3,0.7,0.5,1.4,0.5,2.2V173.7z
				 M241.2,170.8c-0.5,0.4-0.8,1-0.9,1.8h5.1c-0.1-0.7-0.4-1.3-0.8-1.8c-0.4-0.4-1-0.7-1.6-0.7C242.3,170.2,241.7,170.4,241.2,170.8
				z"/>
			<path d="M257.6,169.6c0.6,0.4,1.1,0.9,1.4,1.5s0.5,1.4,0.5,2.2s-0.2,1.5-0.5,2.2s-0.8,1.2-1.4,1.5s-1.3,0.6-2,0.6
				c-0.6,0-1.2-0.1-1.7-0.4c-0.5-0.3-0.9-0.7-1.2-1.2v0.5l0,3.4h-1.3v-10.8h1.2v1.4c0.3-0.5,0.7-0.9,1.2-1.2
				c0.5-0.3,1.1-0.4,1.7-0.4C256.3,169.1,257,169.2,257.6,169.6z M256.9,176.1c0.4-0.3,0.7-0.6,1-1.1c0.2-0.5,0.4-1,0.4-1.6
				s-0.1-1.1-0.4-1.6c-0.2-0.5-0.6-0.9-1-1.1s-0.9-0.4-1.4-0.4c-0.5,0-1,0.1-1.4,0.4c-0.4,0.3-0.7,0.6-1,1.1c-0.2,0.5-0.4,1-0.4,1.6
				s0.1,1.1,0.4,1.6c0.2,0.5,0.6,0.9,1,1.1c0.4,0.3,0.9,0.4,1.4,0.4C256,176.5,256.4,176.3,256.9,176.1z"/>
			<path d="M268.2,173.7h-6.5c0,0.6,0.2,1.1,0.4,1.5c0.2,0.4,0.6,0.8,1,1c0.4,0.2,0.9,0.4,1.4,0.4c0.3,0,0.7-0.1,1-0.2
				c0.3-0.1,0.6-0.3,0.8-0.4c0.2-0.2,0.4-0.4,0.5-0.7h1.2c-0.1,0.4-0.3,0.9-0.7,1.2c-0.3,0.4-0.8,0.6-1.3,0.9
				c-0.5,0.2-1.1,0.3-1.7,0.3c-0.8,0-1.5-0.2-2.1-0.6c-0.6-0.4-1.1-0.9-1.4-1.5c-0.3-0.7-0.5-1.4-0.5-2.2c0-0.8,0.2-1.5,0.5-2.2
				c0.3-0.7,0.8-1.2,1.4-1.5c0.6-0.4,1.3-0.6,2.1-0.6c0.7,0,1.4,0.2,2,0.6c0.6,0.4,1,0.9,1.4,1.5c0.3,0.7,0.5,1.4,0.5,2.2V173.7z
				 M262.6,170.8c-0.5,0.4-0.8,1-0.9,1.8h5.1c-0.1-0.7-0.4-1.3-0.8-1.8c-0.4-0.4-1-0.7-1.6-0.7C263.7,170.2,263.1,170.4,262.6,170.8
				z"/>
			<path d="M273.7,169.2v1.3h-0.3c-0.7,0-1.3,0.2-1.8,0.7s-0.6,1.1-0.6,1.9v4.4h-1.3v-8.2h1.3v1.6c0.2-0.6,0.6-1,1-1.3
				c0.4-0.3,0.9-0.4,1.5-0.4H273.7z"/>
			<path d="M275.2,177.4v-7.1h-1.4v-1.1h1.4V168c0-0.6,0.2-1,0.5-1.3s0.8-0.5,1.4-0.5h1.5v1.1h-1.4c-0.2,0-0.4,0.1-0.5,0.2
				c-0.1,0.1-0.2,0.3-0.2,0.5v1.2h2v1.1h-2v7.1H275.2z"/>
			<path d="M281.2,177.1c-0.6-0.4-1.1-0.9-1.5-1.5s-0.5-1.4-0.5-2.2c0-0.8,0.2-1.5,0.5-2.2s0.9-1.2,1.5-1.5c0.6-0.4,1.3-0.6,2.1-0.6
				s1.5,0.2,2.1,0.6c0.6,0.4,1.1,0.9,1.5,1.5s0.5,1.4,0.5,2.2c0,0.8-0.2,1.5-0.5,2.2c-0.4,0.7-0.9,1.2-1.5,1.5
				c-0.6,0.4-1.3,0.6-2.1,0.6C282.5,177.6,281.8,177.4,281.2,177.1z M284.7,176.1c0.4-0.3,0.8-0.6,1-1.1c0.2-0.5,0.4-1,0.4-1.6
				s-0.1-1.2-0.4-1.6c-0.2-0.5-0.6-0.8-1-1.1c-0.4-0.3-0.9-0.4-1.4-0.4s-1,0.1-1.4,0.4c-0.4,0.3-0.8,0.6-1,1.1
				c-0.2,0.5-0.4,1-0.4,1.6s0.1,1.2,0.4,1.6s0.6,0.8,1,1.1c0.4,0.3,0.9,0.4,1.4,0.4S284.3,176.3,284.7,176.1z"/>
			<path d="M292.9,169.2v1.3h-0.3c-0.7,0-1.3,0.2-1.8,0.7s-0.6,1.1-0.6,1.9v4.4h-1.3v-8.2h1.3v1.6c0.2-0.6,0.6-1,1-1.3
				c0.4-0.3,0.9-0.4,1.5-0.4H292.9z"/>
			<path d="M304.8,169.5c0.5,0.3,0.8,0.6,1,1.1c0.2,0.5,0.4,1,0.4,1.7v5.2h-1.3v-5.1c0-0.7-0.2-1.2-0.5-1.6
				c-0.3-0.4-0.8-0.6-1.4-0.6c-0.5,0-0.9,0.1-1.2,0.3c-0.3,0.2-0.6,0.5-0.8,0.9c-0.2,0.4-0.3,0.9-0.3,1.4v4.6h-1.3v-5.1
				c0-0.7-0.2-1.2-0.5-1.6c-0.3-0.4-0.8-0.6-1.4-0.6c-0.5,0-0.9,0.1-1.2,0.3c-0.3,0.2-0.6,0.5-0.8,0.9c-0.2,0.4-0.3,0.9-0.3,1.4v4.6
				h-1.3v-8.2h1.2v1.2c0.3-0.4,0.6-0.8,1-1c0.4-0.2,0.9-0.4,1.5-0.4c0.6,0,1.1,0.1,1.6,0.4c0.5,0.3,0.8,0.7,1.1,1.2
				c0.3-0.5,0.7-0.9,1.1-1.2c0.5-0.3,1-0.4,1.6-0.4C303.8,169.1,304.3,169.2,304.8,169.5z"/>
			<path d="M312.9,169.4c0.5,0.2,0.8,0.6,1.1,1c0.3,0.4,0.4,1,0.4,1.6v5.5h-1.2v-1.2c-0.3,0.5-0.6,0.8-1.1,1s-1,0.4-1.7,0.4
				c-0.5,0-1-0.1-1.4-0.3c-0.4-0.2-0.7-0.5-1-0.8c-0.2-0.4-0.3-0.8-0.3-1.2c0-0.4,0.1-0.8,0.3-1.2c0.2-0.4,0.5-0.7,0.9-0.9
				s0.8-0.4,1.3-0.4l2.4-0.2c0.2,0,0.3-0.1,0.4-0.2c0.1-0.1,0.2-0.3,0.2-0.6c0-0.3-0.1-0.6-0.2-0.9s-0.4-0.4-0.7-0.6
				c-0.3-0.1-0.6-0.2-1-0.2c-0.4,0-0.7,0.1-1,0.2c-0.3,0.1-0.5,0.3-0.7,0.5c-0.2,0.2-0.3,0.4-0.3,0.7h-1.2c0-0.5,0.2-0.9,0.5-1.2
				s0.7-0.7,1.2-0.9s1-0.3,1.6-0.3C311.9,169.1,312.4,169.2,312.9,169.4z M311.9,176.4c0.4-0.2,0.7-0.5,0.9-0.8s0.3-0.7,0.3-1.2
				v-0.9l-2.8,0.3c-0.4,0-0.8,0.2-1,0.5c-0.3,0.3-0.4,0.6-0.4,1c0,0.3,0.1,0.5,0.2,0.7c0.1,0.2,0.3,0.4,0.6,0.5
				c0.3,0.1,0.6,0.2,0.9,0.2C311.1,176.6,311.5,176.5,311.9,176.4z"/>
			<path d="M321.8,169.5c0.5,0.3,0.8,0.6,1.1,1.1c0.2,0.5,0.4,1.1,0.4,1.7v5.2H322v-5.1c0-0.7-0.2-1.2-0.5-1.6
				c-0.4-0.4-0.9-0.6-1.5-0.6c-0.5,0-0.9,0.1-1.2,0.3c-0.3,0.2-0.6,0.5-0.8,0.8c-0.2,0.4-0.3,0.8-0.3,1.3v4.9h-1.3v-8.2h1.2v1.3
				c0.3-0.5,0.6-0.8,1.1-1.1c0.4-0.2,1-0.4,1.6-0.4C320.8,169.1,321.4,169.2,321.8,169.5z"/>
			<path d="M326.6,177.1c-0.6-0.4-1.1-0.9-1.5-1.5s-0.5-1.4-0.5-2.2s0.2-1.5,0.5-2.2s0.8-1.2,1.5-1.5s1.3-0.6,2.1-0.6
				c0.7,0,1.3,0.1,1.8,0.4c0.6,0.3,1,0.6,1.3,1.1c0.3,0.5,0.5,1,0.6,1.5h-1.3c-0.1-0.4-0.2-0.7-0.5-1c-0.2-0.3-0.5-0.5-0.9-0.7
				c-0.4-0.2-0.7-0.2-1.1-0.2c-0.5,0-1,0.1-1.4,0.4c-0.4,0.3-0.7,0.7-1,1.1s-0.4,1-0.4,1.6s0.1,1.1,0.4,1.6s0.6,0.9,1,1.1
				c0.4,0.3,0.9,0.4,1.4,0.4c0.4,0,0.8-0.1,1.1-0.2c0.4-0.2,0.7-0.4,0.9-0.6c0.2-0.3,0.4-0.6,0.5-0.9h1.3c0,0.5-0.2,1-0.6,1.5
				s-0.8,0.8-1.3,1s-1.2,0.4-1.8,0.4C327.9,177.6,327.2,177.4,326.6,177.1z"/>
			<path d="M341.1,173.7h-6.5c0,0.6,0.2,1.1,0.4,1.5c0.2,0.4,0.6,0.8,1,1c0.4,0.2,0.9,0.4,1.4,0.4c0.3,0,0.7-0.1,1-0.2
				c0.3-0.1,0.6-0.3,0.8-0.4c0.2-0.2,0.4-0.4,0.5-0.7h1.2c-0.1,0.4-0.3,0.9-0.7,1.2c-0.3,0.4-0.8,0.6-1.3,0.9
				c-0.5,0.2-1.1,0.3-1.7,0.3c-0.8,0-1.5-0.2-2.1-0.6c-0.6-0.4-1.1-0.9-1.4-1.5c-0.3-0.7-0.5-1.4-0.5-2.2c0-0.8,0.2-1.5,0.5-2.2
				c0.3-0.7,0.8-1.2,1.4-1.5c0.6-0.4,1.3-0.6,2.1-0.6c0.7,0,1.4,0.2,2,0.6c0.6,0.4,1,0.9,1.4,1.5c0.3,0.7,0.5,1.4,0.5,2.2V173.7z
				 M335.5,170.8c-0.5,0.4-0.8,1-0.9,1.8h5.1c-0.1-0.7-0.4-1.3-0.8-1.8c-0.4-0.4-1-0.7-1.6-0.7C336.6,170.2,336,170.4,335.5,170.8z"
				/>
		</g>
		<g>
			<path class="st1" d="M338.9,210.8l-320.3,0C8.3,210.8,0,219.1,0,229.4v0c0,10.3,8.3,18.6,18.6,18.6l320.3,0
				c10.3,0,18.6-8.3,18.6-18.6v0C357.5,219.1,349.2,210.8,338.9,210.8z"/>
			<g>
				<path d="M17.9,235h-1.5l4-11.2h1.6l4.2,11.2h-1.4l-1.1-3h-4.9L17.9,235z M21.1,225.6l-1.8,5.3h4.1l-1.9-5.3l-0.2-0.7L21.1,225.6
					z"/>
				<path d="M28.6,234.6c-0.6-0.4-1.1-0.9-1.5-1.5s-0.5-1.4-0.5-2.2s0.2-1.5,0.5-2.2s0.8-1.2,1.5-1.5s1.3-0.6,2.1-0.6
					c0.7,0,1.3,0.1,1.8,0.4c0.6,0.3,1,0.6,1.3,1.1c0.3,0.5,0.5,1,0.6,1.5h-1.3c-0.1-0.4-0.2-0.7-0.5-1c-0.2-0.3-0.5-0.5-0.9-0.7
					c-0.4-0.2-0.7-0.2-1.1-0.2c-0.5,0-1,0.1-1.4,0.4c-0.4,0.3-0.7,0.7-1,1.1s-0.4,1-0.4,1.6s0.1,1.1,0.4,1.6s0.6,0.9,1,1.1
					c0.4,0.3,0.9,0.4,1.4,0.4c0.4,0,0.8-0.1,1.1-0.2c0.4-0.2,0.7-0.4,0.9-0.6c0.2-0.3,0.4-0.6,0.5-0.9h1.3c0,0.5-0.2,1-0.6,1.5
					s-0.8,0.8-1.3,1c-0.6,0.3-1.2,0.4-1.8,0.4C29.9,235.2,29.2,235,28.6,234.6z"/>
				<path d="M37.3,234.6c-0.6-0.4-1.1-0.9-1.5-1.5s-0.5-1.4-0.5-2.2s0.2-1.5,0.5-2.2s0.8-1.2,1.5-1.5s1.3-0.6,2.1-0.6
					c0.7,0,1.3,0.1,1.8,0.4c0.6,0.3,1,0.6,1.3,1.1c0.3,0.5,0.5,1,0.6,1.5h-1.3c-0.1-0.4-0.2-0.7-0.5-1c-0.2-0.3-0.5-0.5-0.9-0.7
					c-0.4-0.2-0.7-0.2-1.1-0.2c-0.5,0-1,0.1-1.4,0.4c-0.4,0.3-0.7,0.7-1,1.1s-0.4,1-0.4,1.6s0.1,1.1,0.4,1.6s0.6,0.9,1,1.1
					c0.4,0.3,0.9,0.4,1.4,0.4c0.4,0,0.8-0.1,1.1-0.2c0.4-0.2,0.7-0.4,0.9-0.6c0.2-0.3,0.4-0.6,0.5-0.9h1.3c0,0.5-0.2,1-0.6,1.5
					s-0.8,0.8-1.3,1s-1.2,0.4-1.8,0.4C38.6,235.2,37.9,235,37.3,234.6z"/>
				<path d="M51.8,231.2h-6.5c0,0.6,0.2,1.1,0.4,1.5c0.2,0.4,0.6,0.8,1,1c0.4,0.2,0.9,0.4,1.4,0.4c0.3,0,0.7-0.1,1-0.2
					c0.3-0.1,0.6-0.3,0.8-0.4c0.2-0.2,0.4-0.4,0.5-0.7h1.2c-0.1,0.4-0.3,0.9-0.7,1.2c-0.3,0.4-0.8,0.6-1.3,0.9
					c-0.5,0.2-1.1,0.3-1.7,0.3c-0.8,0-1.5-0.2-2.1-0.6c-0.6-0.4-1.1-0.9-1.4-1.5c-0.3-0.7-0.5-1.4-0.5-2.2c0-0.8,0.2-1.5,0.5-2.2
					c0.3-0.7,0.8-1.2,1.4-1.5c0.6-0.4,1.3-0.6,2.1-0.6c0.7,0,1.4,0.2,2,0.6c0.6,0.4,1,0.9,1.4,1.5c0.3,0.7,0.5,1.4,0.5,2.2V231.2z
					 M46.2,228.4c-0.5,0.4-0.8,1-0.9,1.8h5.1c-0.1-0.7-0.4-1.3-0.8-1.8c-0.4-0.4-1-0.7-1.6-0.7C47.3,227.8,46.7,228,46.2,228.4z"/>
				<path d="M54.3,234.9c-0.5-0.2-0.9-0.5-1.2-0.9c-0.3-0.4-0.4-0.8-0.4-1.3H54c0,0.3,0.1,0.5,0.3,0.7s0.4,0.4,0.7,0.5
					c0.3,0.1,0.7,0.2,1.1,0.2c0.6,0,1.1-0.1,1.4-0.4c0.3-0.3,0.5-0.6,0.5-1c0-0.3-0.1-0.6-0.3-0.8c-0.2-0.2-0.5-0.4-0.9-0.4
					l-1.5-0.2c-0.7-0.1-1.3-0.4-1.7-0.8c-0.4-0.4-0.6-0.9-0.6-1.5c0-0.4,0.1-0.8,0.4-1.2s0.6-0.6,1.1-0.8c0.5-0.2,1-0.3,1.5-0.3
					c0.6,0,1.1,0.1,1.6,0.3s0.8,0.5,1.1,0.8c0.3,0.3,0.4,0.7,0.4,1.2h-1.3c0-0.2-0.1-0.4-0.3-0.6c-0.2-0.2-0.4-0.3-0.7-0.5
					c-0.3-0.1-0.6-0.2-0.9-0.2c-0.3,0-0.6,0.1-0.9,0.2c-0.3,0.1-0.5,0.2-0.6,0.4c-0.1,0.2-0.2,0.4-0.2,0.6c0,0.3,0.1,0.6,0.3,0.8
					c0.2,0.2,0.5,0.3,0.8,0.4l1.5,0.2c0.7,0.1,1.3,0.4,1.7,0.8c0.4,0.4,0.6,0.9,0.6,1.6c0,0.5-0.1,0.9-0.4,1.3s-0.6,0.7-1.1,0.9
					c-0.5,0.2-1,0.3-1.6,0.3C55.4,235.2,54.8,235.1,54.3,234.9z"/>
				<path d="M61.7,234.9c-0.5-0.2-0.9-0.5-1.2-0.9c-0.3-0.4-0.4-0.8-0.4-1.3h1.3c0,0.3,0.1,0.5,0.3,0.7s0.4,0.4,0.7,0.5
					c0.3,0.1,0.7,0.2,1.1,0.2c0.6,0,1.1-0.1,1.4-0.4c0.3-0.3,0.5-0.6,0.5-1c0-0.3-0.1-0.6-0.3-0.8c-0.2-0.2-0.5-0.4-0.9-0.4
					l-1.5-0.2c-0.7-0.1-1.3-0.4-1.7-0.8c-0.4-0.4-0.6-0.9-0.6-1.5c0-0.4,0.1-0.8,0.4-1.2s0.6-0.6,1.1-0.8c0.5-0.2,1-0.3,1.5-0.3
					c0.6,0,1.1,0.1,1.6,0.3s0.8,0.5,1.1,0.8c0.3,0.3,0.4,0.7,0.4,1.2h-1.3c0-0.2-0.1-0.4-0.3-0.6c-0.2-0.2-0.4-0.3-0.7-0.5
					c-0.3-0.1-0.6-0.2-0.9-0.2c-0.3,0-0.6,0.1-0.9,0.2c-0.3,0.1-0.5,0.2-0.6,0.4c-0.1,0.2-0.2,0.4-0.2,0.6c0,0.3,0.1,0.6,0.3,0.8
					c0.2,0.2,0.5,0.3,0.8,0.4l1.5,0.2c0.7,0.1,1.3,0.4,1.7,0.8c0.4,0.4,0.6,0.9,0.6,1.6c0,0.5-0.1,0.9-0.4,1.3s-0.6,0.7-1.1,0.9
					c-0.5,0.2-1,0.3-1.6,0.3C62.8,235.2,62.2,235.1,61.7,234.9z"/>
				<path d="M73.8,235c-0.6,0-1.1-0.2-1.4-0.5s-0.5-0.7-0.5-1.3l0-5.3h-1.4l0-1.1h0.9c0.2,0,0.4-0.1,0.5-0.2
					c0.1-0.1,0.2-0.3,0.2-0.5v-1.4h1.2v2h2l0,1.1h-2l0,5.2c0,0.2,0.1,0.4,0.2,0.5c0.1,0.1,0.3,0.2,0.5,0.2h1.2v1.1H73.8z"/>
				<path d="M78,234.7c-0.6-0.4-1.1-0.9-1.5-1.5s-0.5-1.4-0.5-2.2c0-0.8,0.2-1.5,0.5-2.2s0.9-1.2,1.5-1.5c0.6-0.4,1.3-0.6,2.1-0.6
					s1.5,0.2,2.1,0.6c0.6,0.4,1.1,0.9,1.5,1.5s0.5,1.4,0.5,2.2c0,0.8-0.2,1.5-0.5,2.2c-0.4,0.7-0.9,1.2-1.5,1.5
					c-0.6,0.4-1.3,0.6-2.1,0.6C79.4,235.2,78.7,235,78,234.7z M81.6,233.6c0.4-0.3,0.8-0.6,1-1.1c0.2-0.5,0.4-1,0.4-1.6
					s-0.1-1.2-0.4-1.6c-0.2-0.5-0.6-0.8-1-1.1c-0.4-0.3-0.9-0.4-1.4-0.4s-1,0.1-1.4,0.4c-0.4,0.3-0.8,0.6-1,1.1
					c-0.2,0.5-0.4,1-0.4,1.6s0.1,1.2,0.4,1.6s0.6,0.8,1,1.1c0.4,0.3,0.9,0.4,1.4,0.4S81.2,233.9,81.6,233.6z"/>
				<path d="M96.1,226.8L96.1,226.8l0,8.2h-1.2v-1.4c-0.3,0.5-0.7,0.9-1.2,1.2s-1.1,0.4-1.7,0.4c-0.7,0-1.4-0.2-2-0.6
					c-0.6-0.4-1.1-0.9-1.4-1.5c-0.3-0.7-0.5-1.4-0.5-2.2s0.2-1.5,0.5-2.2c0.3-0.7,0.8-1.2,1.4-1.5c0.6-0.4,1.3-0.6,2-0.6
					c0.6,0,1.2,0.1,1.7,0.4s0.9,0.7,1.2,1.2l0-4.4h1.3V226.8z M93.5,233.6c0.4-0.3,0.7-0.6,1-1.1s0.4-1,0.4-1.6s-0.1-1.1-0.4-1.6
					s-0.6-0.9-1-1.1s-0.9-0.4-1.4-0.4c-0.5,0-1,0.1-1.4,0.4c-0.4,0.3-0.7,0.6-1,1.1s-0.4,1-0.4,1.6s0.1,1.1,0.4,1.6s0.6,0.9,1,1.1
					c0.4,0.3,0.9,0.4,1.4,0.4C92.6,234.1,93.1,233.9,93.5,233.6z"/>
				<path d="M105.4,231.2h-6.5c0,0.6,0.2,1.1,0.4,1.5c0.2,0.4,0.6,0.8,1,1c0.4,0.2,0.9,0.4,1.4,0.4c0.3,0,0.7-0.1,1-0.2
					c0.3-0.1,0.6-0.3,0.8-0.4c0.2-0.2,0.4-0.4,0.5-0.7h1.2c-0.1,0.4-0.3,0.9-0.7,1.2c-0.3,0.4-0.8,0.6-1.3,0.9
					c-0.5,0.2-1.1,0.3-1.7,0.3c-0.8,0-1.5-0.2-2.1-0.6c-0.6-0.4-1.1-0.9-1.4-1.5c-0.3-0.7-0.5-1.4-0.5-2.2c0-0.8,0.2-1.5,0.5-2.2
					c0.3-0.7,0.8-1.2,1.4-1.5c0.6-0.4,1.3-0.6,2.1-0.6c0.7,0,1.4,0.2,2,0.6c0.6,0.4,1,0.9,1.4,1.5c0.3,0.7,0.5,1.4,0.5,2.2V231.2z
					 M99.8,228.4c-0.5,0.4-0.8,1-0.9,1.8h5.1c-0.1-0.7-0.4-1.3-0.8-1.8c-0.4-0.4-1-0.7-1.6-0.7C100.9,227.8,100.3,228,99.8,228.4z"
					/>
				<path d="M110.4,235H109l-3.2-8.2h1.4l2.5,6.7l2.5-6.7h1.3L110.4,235z"/>
				<path d="M114.6,225.3v-1.5h1.5v1.5H114.6z M116,235h-1.3v-8.2h1.3V235z"/>
				<path d="M119.5,234.6c-0.6-0.4-1.1-0.9-1.5-1.5s-0.5-1.4-0.5-2.2s0.2-1.5,0.5-2.2s0.8-1.2,1.5-1.5s1.3-0.6,2.1-0.6
					c0.7,0,1.3,0.1,1.8,0.4c0.6,0.3,1,0.6,1.3,1.1c0.3,0.5,0.5,1,0.6,1.5h-1.3c-0.1-0.4-0.2-0.7-0.5-1c-0.2-0.3-0.5-0.5-0.9-0.7
					c-0.4-0.2-0.7-0.2-1.1-0.2c-0.5,0-1,0.1-1.4,0.4c-0.4,0.3-0.7,0.7-1,1.1s-0.4,1-0.4,1.6s0.1,1.1,0.4,1.6s0.6,0.9,1,1.1
					c0.4,0.3,0.9,0.4,1.4,0.4c0.4,0,0.8-0.1,1.1-0.2c0.4-0.2,0.7-0.4,0.9-0.6c0.2-0.3,0.4-0.6,0.5-0.9h1.3c0,0.5-0.2,1-0.6,1.5
					s-0.8,0.8-1.3,1s-1.2,0.4-1.8,0.4C120.8,235.2,120.1,235,119.5,234.6z"/>
				<path d="M134,231.2h-6.5c0,0.6,0.2,1.1,0.4,1.5c0.2,0.4,0.6,0.8,1,1c0.4,0.2,0.9,0.4,1.4,0.4c0.3,0,0.7-0.1,1-0.2
					c0.3-0.1,0.6-0.3,0.8-0.4c0.2-0.2,0.4-0.4,0.5-0.7h1.2c-0.1,0.4-0.3,0.9-0.7,1.2c-0.3,0.4-0.8,0.6-1.3,0.9
					c-0.5,0.2-1.1,0.3-1.7,0.3c-0.8,0-1.5-0.2-2.1-0.6c-0.6-0.4-1.1-0.9-1.4-1.5c-0.3-0.7-0.5-1.4-0.5-2.2c0-0.8,0.2-1.5,0.5-2.2
					c0.3-0.7,0.8-1.2,1.4-1.5c0.6-0.4,1.3-0.6,2.1-0.6c0.7,0,1.4,0.2,2,0.6c0.6,0.4,1,0.9,1.4,1.5c0.3,0.7,0.5,1.4,0.5,2.2V231.2z
					 M128.5,228.4c-0.5,0.4-0.8,1-0.9,1.8h5.1c-0.1-0.7-0.4-1.3-0.8-1.8c-0.4-0.4-1-0.7-1.6-0.7C129.5,227.8,128.9,228,128.5,228.4z
					"/>
				<path d="M139.8,234.6c-0.6-0.4-1.1-0.9-1.5-1.5s-0.5-1.4-0.5-2.2s0.2-1.5,0.5-2.2s0.8-1.2,1.5-1.5s1.3-0.6,2.1-0.6
					c0.7,0,1.3,0.1,1.8,0.4c0.6,0.3,1,0.6,1.3,1.1c0.3,0.5,0.5,1,0.6,1.5h-1.3c-0.1-0.4-0.2-0.7-0.5-1c-0.2-0.3-0.5-0.5-0.9-0.7
					c-0.4-0.2-0.7-0.2-1.1-0.2c-0.5,0-1,0.1-1.4,0.4c-0.4,0.3-0.7,0.7-1,1.1s-0.4,1-0.4,1.6s0.1,1.1,0.4,1.6s0.6,0.9,1,1.1
					c0.4,0.3,0.9,0.4,1.4,0.4c0.4,0,0.8-0.1,1.1-0.2c0.4-0.2,0.7-0.4,0.9-0.6c0.2-0.3,0.4-0.6,0.5-0.9h1.3c0,0.5-0.2,1-0.6,1.5
					s-0.8,0.8-1.3,1s-1.2,0.4-1.8,0.4C141.1,235.2,140.4,235,139.8,234.6z"/>
				<path d="M151.9,227c0.5,0.2,0.8,0.6,1.1,1c0.3,0.4,0.4,1,0.4,1.6v5.5h-1.2v-1.2c-0.3,0.5-0.6,0.8-1.1,1s-1,0.4-1.7,0.4
					c-0.5,0-1-0.1-1.4-0.3c-0.4-0.2-0.7-0.5-1-0.8c-0.2-0.4-0.3-0.8-0.3-1.2c0-0.4,0.1-0.8,0.3-1.2c0.2-0.4,0.5-0.7,0.9-0.9
					s0.8-0.4,1.3-0.4l2.4-0.2c0.2,0,0.3-0.1,0.4-0.2c0.1-0.1,0.2-0.3,0.2-0.6c0-0.3-0.1-0.6-0.2-0.9s-0.4-0.4-0.7-0.6
					c-0.3-0.1-0.6-0.2-1-0.2c-0.4,0-0.7,0.1-1,0.2c-0.3,0.1-0.5,0.3-0.7,0.5c-0.2,0.2-0.3,0.4-0.3,0.7H147c0-0.5,0.2-0.9,0.5-1.2
					s0.7-0.7,1.2-0.9s1-0.3,1.6-0.3C150.9,226.6,151.5,226.7,151.9,227z M150.9,233.9c0.4-0.2,0.7-0.5,0.9-0.8s0.3-0.7,0.3-1.2V231
					l-2.8,0.3c-0.4,0-0.8,0.2-1,0.5c-0.3,0.3-0.4,0.6-0.4,1c0,0.3,0.1,0.5,0.2,0.7c0.1,0.2,0.3,0.4,0.6,0.5c0.3,0.1,0.6,0.2,0.9,0.2
					C150.1,234.2,150.6,234.1,150.9,233.9z"/>
				<path d="M161.6,227.2c0.6,0.4,1.1,0.9,1.4,1.5s0.5,1.4,0.5,2.2s-0.2,1.5-0.5,2.2s-0.8,1.2-1.4,1.5s-1.3,0.6-2,0.6
					c-0.6,0-1.2-0.1-1.7-0.4c-0.5-0.3-0.9-0.7-1.2-1.2v0.5l0,3.4h-1.3v-10.8h1.2v1.4c0.3-0.5,0.7-0.9,1.2-1.2
					c0.5-0.3,1.1-0.4,1.7-0.4C160.3,226.6,161,226.8,161.6,227.2z M160.8,233.6c0.4-0.3,0.7-0.6,1-1.1c0.2-0.5,0.4-1,0.4-1.6
					s-0.1-1.1-0.4-1.6c-0.2-0.5-0.6-0.9-1-1.1s-0.9-0.4-1.4-0.4c-0.5,0-1,0.1-1.4,0.4c-0.4,0.3-0.7,0.6-1,1.1
					c-0.2,0.5-0.4,1-0.4,1.6s0.1,1.1,0.4,1.6c0.2,0.5,0.6,0.9,1,1.1c0.4,0.3,0.9,0.4,1.4,0.4C159.9,234.1,160.4,233.9,160.8,233.6z"
					/>
				<path d="M169.7,227c0.5,0.2,0.8,0.6,1.1,1c0.3,0.4,0.4,1,0.4,1.6v5.5H170v-1.2c-0.3,0.5-0.6,0.8-1.1,1s-1,0.4-1.7,0.4
					c-0.5,0-1-0.1-1.4-0.3c-0.4-0.2-0.7-0.5-1-0.8c-0.2-0.4-0.3-0.8-0.3-1.2c0-0.4,0.1-0.8,0.3-1.2c0.2-0.4,0.5-0.7,0.9-0.9
					s0.8-0.4,1.3-0.4l2.4-0.2c0.2,0,0.3-0.1,0.4-0.2c0.1-0.1,0.2-0.3,0.2-0.6c0-0.3-0.1-0.6-0.2-0.9s-0.4-0.4-0.7-0.6
					c-0.3-0.1-0.6-0.2-1-0.2c-0.4,0-0.7,0.1-1,0.2c-0.3,0.1-0.5,0.3-0.7,0.5c-0.2,0.2-0.3,0.4-0.3,0.7h-1.2c0-0.5,0.2-0.9,0.5-1.2
					s0.7-0.7,1.2-0.9s1-0.3,1.6-0.3C168.7,226.6,169.3,226.7,169.7,227z M168.7,233.9c0.4-0.2,0.7-0.5,0.9-0.8s0.3-0.7,0.3-1.2V231
					l-2.8,0.3c-0.4,0-0.8,0.2-1,0.5c-0.3,0.3-0.4,0.6-0.4,1c0,0.3,0.1,0.5,0.2,0.7c0.1,0.2,0.3,0.4,0.6,0.5c0.3,0.1,0.6,0.2,0.9,0.2
					C167.9,234.2,168.4,234.1,168.7,233.9z"/>
				<path d="M179.4,227.2c0.6,0.4,1.1,0.9,1.4,1.5s0.5,1.4,0.5,2.2s-0.2,1.5-0.5,2.2s-0.8,1.2-1.4,1.5s-1.3,0.6-2,0.6
					c-0.6,0-1.2-0.1-1.7-0.4c-0.5-0.3-0.9-0.7-1.2-1.2v1.4h-1.2v-8.2h0v-3h1.3l0,4.4c0.3-0.5,0.7-0.9,1.2-1.2
					c0.5-0.3,1.1-0.4,1.7-0.4C178.1,226.6,178.8,226.8,179.4,227.2z M178.6,233.6c0.4-0.3,0.7-0.6,1-1.1c0.2-0.5,0.4-1,0.4-1.6
					s-0.1-1.1-0.4-1.6c-0.2-0.5-0.6-0.9-1-1.1s-0.9-0.4-1.4-0.4c-0.5,0-1,0.1-1.4,0.4c-0.4,0.3-0.7,0.6-1,1.1
					c-0.2,0.5-0.4,1-0.4,1.6s0.1,1.1,0.4,1.6c0.2,0.5,0.6,0.9,1,1.1c0.4,0.3,0.9,0.4,1.4,0.4C177.7,234.1,178.2,233.9,178.6,233.6z"
					/>
				<path d="M182.7,225.3v-1.5h1.5v1.5H182.7z M184.1,235h-1.3v-8.2h1.3V235z"/>
				<path d="M187.6,235h-1.3v-11.2h1.3V235z"/>
				<path d="M189.7,225.3v-1.5h1.5v1.5H189.7z M191,235h-1.3v-8.2h1.3V235z"/>
				<path d="M195.4,235c-0.6,0-1.1-0.2-1.4-0.5s-0.5-0.7-0.5-1.3l0-5.3H192l0-1.1h0.9c0.2,0,0.4-0.1,0.5-0.2
					c0.1-0.1,0.2-0.3,0.2-0.5v-1.4h1.2v2h2l0,1.1h-2l0,5.2c0,0.2,0.1,0.4,0.2,0.5c0.1,0.1,0.3,0.2,0.5,0.2h1.2v1.1H195.4z"/>
				<path d="M198.2,225.3v-1.5h1.5v1.5H198.2z M199.6,235h-1.3v-8.2h1.3V235z"/>
				<path d="M209,231.2h-6.5c0,0.6,0.2,1.1,0.4,1.5c0.2,0.4,0.6,0.8,1,1c0.4,0.2,0.9,0.4,1.4,0.4c0.3,0,0.7-0.1,1-0.2
					c0.3-0.1,0.6-0.3,0.8-0.4c0.2-0.2,0.4-0.4,0.5-0.7h1.2c-0.1,0.4-0.3,0.9-0.7,1.2c-0.3,0.4-0.8,0.6-1.3,0.9
					c-0.5,0.2-1.1,0.3-1.7,0.3c-0.8,0-1.5-0.2-2.1-0.6c-0.6-0.4-1.1-0.9-1.4-1.5c-0.3-0.7-0.5-1.4-0.5-2.2c0-0.8,0.2-1.5,0.5-2.2
					c0.3-0.7,0.8-1.2,1.4-1.5c0.6-0.4,1.3-0.6,2.1-0.6c0.7,0,1.4,0.2,2,0.6c0.6,0.4,1,0.9,1.4,1.5c0.3,0.7,0.5,1.4,0.5,2.2V231.2z
					 M203.4,228.4c-0.5,0.4-0.8,1-0.9,1.8h5.1c-0.1-0.7-0.4-1.3-0.8-1.8c-0.4-0.4-1-0.7-1.6-0.7C204.4,227.8,203.8,228,203.4,228.4z
					"/>
				<path d="M211.4,234.9c-0.5-0.2-0.9-0.5-1.2-0.9c-0.3-0.4-0.4-0.8-0.4-1.3h1.3c0,0.3,0.1,0.5,0.3,0.7s0.4,0.4,0.7,0.5
					c0.3,0.1,0.7,0.2,1.1,0.2c0.6,0,1.1-0.1,1.4-0.4c0.3-0.3,0.5-0.6,0.5-1c0-0.3-0.1-0.6-0.3-0.8c-0.2-0.2-0.5-0.4-0.9-0.4
					l-1.5-0.2c-0.7-0.1-1.3-0.4-1.7-0.8c-0.4-0.4-0.6-0.9-0.6-1.5c0-0.4,0.1-0.8,0.4-1.2s0.6-0.6,1.1-0.8c0.5-0.2,1-0.3,1.5-0.3
					c0.6,0,1.1,0.1,1.6,0.3s0.8,0.5,1.1,0.8c0.3,0.3,0.4,0.7,0.4,1.2h-1.3c0-0.2-0.1-0.4-0.3-0.6c-0.2-0.2-0.4-0.3-0.7-0.5
					c-0.3-0.1-0.6-0.2-0.9-0.2c-0.3,0-0.6,0.1-0.9,0.2c-0.3,0.1-0.5,0.2-0.6,0.4c-0.1,0.2-0.2,0.4-0.2,0.6c0,0.3,0.1,0.6,0.3,0.8
					c0.2,0.2,0.5,0.3,0.8,0.4l1.5,0.2c0.7,0.1,1.3,0.4,1.7,0.8c0.4,0.4,0.6,0.9,0.6,1.6c0,0.5-0.1,0.9-0.4,1.3s-0.6,0.7-1.1,0.9
					c-0.5,0.2-1,0.3-1.6,0.3C212.5,235.2,211.9,235.1,211.4,234.9z"/>
				<path d="M224.1,235h-1.3l-2.7-8.2h1.4l1.9,6l0.2,0.7l0.2-0.7l1.9-6h1.3l2,6l0.2,0.7l0.2-0.7l1.8-6h1.3l-2.7,8.2h-1.3l-1.9-6.3
					l-0.2-0.5l-0.1,0.5L224.1,235z"/>
				<path d="M233.5,225.3v-1.5h1.5v1.5H233.5z M234.9,235h-1.3v-8.2h1.3V235z"/>
				<path d="M239.3,235c-0.6,0-1.1-0.2-1.4-0.5s-0.5-0.7-0.5-1.3l0-5.3h-1.4l0-1.1h0.9c0.2,0,0.4-0.1,0.5-0.2
					c0.1-0.1,0.2-0.3,0.2-0.5v-1.4h1.2v2h2l0,1.1h-2l0,5.2c0,0.2,0.1,0.4,0.2,0.5c0.1,0.1,0.3,0.2,0.5,0.2h1.2v1.1H239.3z"/>
				<path d="M247.6,227c0.5,0.3,0.8,0.6,1.1,1.1c0.2,0.5,0.4,1.1,0.4,1.7v5.2h-1.3v-5.1c0-0.7-0.2-1.2-0.5-1.6
					c-0.3-0.4-0.8-0.6-1.5-0.6c-0.5,0-0.9,0.1-1.2,0.3c-0.4,0.2-0.6,0.5-0.8,0.9c-0.2,0.4-0.3,0.9-0.3,1.4v4.6h-1.3v-11.2h1.3v2.6
					l0,1.6c0.3-0.5,0.6-0.8,1.1-1.1c0.4-0.2,1-0.4,1.6-0.4C246.6,226.6,247.2,226.8,247.6,227z"/>
				<path d="M252.4,234.7c-0.6-0.4-1.1-0.9-1.5-1.5s-0.5-1.4-0.5-2.2c0-0.8,0.2-1.5,0.5-2.2s0.9-1.2,1.5-1.5
					c0.6-0.4,1.3-0.6,2.1-0.6s1.5,0.2,2.1,0.6c0.6,0.4,1.1,0.9,1.5,1.5s0.5,1.4,0.5,2.2c0,0.8-0.2,1.5-0.5,2.2
					c-0.4,0.7-0.9,1.2-1.5,1.5c-0.6,0.4-1.3,0.6-2.1,0.6C253.7,235.2,253,235,252.4,234.7z M256,233.6c0.4-0.3,0.8-0.6,1-1.1
					c0.2-0.5,0.4-1,0.4-1.6s-0.1-1.2-0.4-1.6c-0.2-0.5-0.6-0.8-1-1.1c-0.4-0.3-0.9-0.4-1.4-0.4s-1,0.1-1.4,0.4
					c-0.4,0.3-0.8,0.6-1,1.1c-0.2,0.5-0.4,1-0.4,1.6s0.1,1.2,0.4,1.6s0.6,0.8,1,1.1c0.4,0.3,0.9,0.4,1.4,0.4S255.5,233.9,256,233.6z
					"/>
				<path d="M265.6,226.8h1.3v8.2h-1.2v-1.3c-0.3,0.5-0.6,0.8-1.1,1.1c-0.4,0.2-1,0.4-1.6,0.4c-0.6,0-1.1-0.1-1.6-0.4
					c-0.5-0.3-0.8-0.6-1.1-1.1c-0.2-0.5-0.4-1.1-0.4-1.7v-5.2h1.3v5.1c0,0.7,0.2,1.2,0.5,1.6c0.4,0.4,0.9,0.6,1.5,0.6
					c0.5,0,0.9-0.1,1.2-0.3c0.3-0.2,0.6-0.5,0.8-0.8s0.3-0.8,0.3-1.3V226.8z"/>
				<path d="M271.3,235c-0.6,0-1.1-0.2-1.4-0.5s-0.5-0.7-0.5-1.3l0-5.3h-1.4l0-1.1h0.9c0.2,0,0.4-0.1,0.5-0.2
					c0.1-0.1,0.2-0.3,0.2-0.5v-1.4h1.2v2h2l0,1.1h-2l0,5.2c0,0.2,0.1,0.4,0.2,0.5c0.1,0.1,0.3,0.2,0.5,0.2h1.2v1.1H271.3z"/>
				<path d="M278.7,234.7c-0.6-0.4-1.1-0.9-1.5-1.5s-0.5-1.4-0.5-2.2c0-0.8,0.2-1.5,0.5-2.2s0.9-1.2,1.5-1.5
					c0.6-0.4,1.3-0.6,2.1-0.6s1.5,0.2,2.1,0.6c0.6,0.4,1.1,0.9,1.5,1.5s0.5,1.4,0.5,2.2c0,0.8-0.2,1.5-0.5,2.2
					c-0.4,0.7-0.9,1.2-1.5,1.5c-0.6,0.4-1.3,0.6-2.1,0.6C280,235.2,279.3,235,278.7,234.7z M282.2,233.6c0.4-0.3,0.8-0.6,1-1.1
					c0.2-0.5,0.4-1,0.4-1.6s-0.1-1.2-0.4-1.6c-0.2-0.5-0.6-0.8-1-1.1c-0.4-0.3-0.9-0.4-1.4-0.4s-1,0.1-1.4,0.4
					c-0.4,0.3-0.8,0.6-1,1.1c-0.2,0.5-0.4,1-0.4,1.6s0.1,1.2,0.4,1.6s0.6,0.8,1,1.1c0.4,0.3,0.9,0.4,1.4,0.4
					S281.8,233.9,282.2,233.6z"/>
				<path d="M289.9,235h-1.4l-3.2-8.2h1.4l2.5,6.7l2.5-6.7h1.3L289.9,235z"/>
				<path d="M301.3,231.2h-6.5c0,0.6,0.2,1.1,0.4,1.5c0.2,0.4,0.6,0.8,1,1c0.4,0.2,0.9,0.4,1.4,0.4c0.3,0,0.7-0.1,1-0.2
					c0.3-0.1,0.6-0.3,0.8-0.4c0.2-0.2,0.4-0.4,0.5-0.7h1.2c-0.1,0.4-0.3,0.9-0.7,1.2c-0.3,0.4-0.8,0.6-1.3,0.9
					c-0.5,0.2-1.1,0.3-1.7,0.3c-0.8,0-1.5-0.2-2.1-0.6c-0.6-0.4-1.1-0.9-1.4-1.5c-0.3-0.7-0.5-1.4-0.5-2.2c0-0.8,0.2-1.5,0.5-2.2
					c0.3-0.7,0.8-1.2,1.4-1.5c0.6-0.4,1.3-0.6,2.1-0.6c0.7,0,1.4,0.2,2,0.6c0.6,0.4,1,0.9,1.4,1.5c0.3,0.7,0.5,1.4,0.5,2.2V231.2z
					 M295.7,228.4c-0.5,0.4-0.8,1-0.9,1.8h5.1c-0.1-0.7-0.4-1.3-0.8-1.8c-0.4-0.4-1-0.7-1.6-0.7C296.8,227.8,296.2,228,295.7,228.4z
					"/>
				<path d="M306.8,226.7v1.3h-0.3c-0.7,0-1.3,0.2-1.8,0.7s-0.6,1.1-0.6,1.9v4.4h-1.3v-8.2h1.3v1.6c0.2-0.6,0.6-1,1-1.3
					c0.4-0.3,0.9-0.4,1.5-0.4H306.8z"/>
				<path d="M313.4,227c0.5,0.3,0.8,0.6,1.1,1.1c0.2,0.5,0.4,1.1,0.4,1.7v5.2h-1.3v-5.1c0-0.7-0.2-1.2-0.5-1.6
					c-0.3-0.4-0.8-0.6-1.5-0.6c-0.5,0-0.9,0.1-1.2,0.3c-0.4,0.2-0.6,0.5-0.8,0.9c-0.2,0.4-0.3,0.9-0.3,1.4v4.6H308v-11.2h1.3v2.6
					l0,1.6c0.3-0.5,0.6-0.8,1.1-1.1c0.4-0.2,1-0.4,1.6-0.4C312.4,226.6,313,226.8,313.4,227z"/>
				<path d="M324,231.2h-6.5c0,0.6,0.2,1.1,0.4,1.5c0.2,0.4,0.6,0.8,1,1c0.4,0.2,0.9,0.4,1.4,0.4c0.3,0,0.7-0.1,1-0.2
					c0.3-0.1,0.6-0.3,0.8-0.4c0.2-0.2,0.4-0.4,0.5-0.7h1.2c-0.1,0.4-0.3,0.9-0.7,1.2c-0.3,0.4-0.8,0.6-1.3,0.9
					c-0.5,0.2-1.1,0.3-1.7,0.3c-0.8,0-1.5-0.2-2.1-0.6c-0.6-0.4-1.1-0.9-1.4-1.5c-0.3-0.7-0.5-1.4-0.5-2.2c0-0.8,0.2-1.5,0.5-2.2
					c0.3-0.7,0.8-1.2,1.4-1.5c0.6-0.4,1.3-0.6,2.1-0.6c0.7,0,1.4,0.2,2,0.6c0.6,0.4,1,0.9,1.4,1.5c0.3,0.7,0.5,1.4,0.5,2.2V231.2z
					 M318.4,228.4c-0.5,0.4-0.8,1-0.9,1.8h5.1c-0.1-0.7-0.4-1.3-0.8-1.8c-0.4-0.4-1-0.7-1.6-0.7C319.5,227.8,318.9,228,318.4,228.4z
					"/>
				<path d="M330.2,227c0.5,0.2,0.8,0.6,1.1,1c0.3,0.4,0.4,1,0.4,1.6v5.5h-1.2v-1.2c-0.3,0.5-0.6,0.8-1.1,1s-1,0.4-1.7,0.4
					c-0.5,0-1-0.1-1.4-0.3c-0.4-0.2-0.7-0.5-1-0.8c-0.2-0.4-0.3-0.8-0.3-1.2c0-0.4,0.1-0.8,0.3-1.2c0.2-0.4,0.5-0.7,0.9-0.9
					s0.8-0.4,1.3-0.4l2.4-0.2c0.2,0,0.3-0.1,0.4-0.2c0.1-0.1,0.2-0.3,0.2-0.6c0-0.3-0.1-0.6-0.2-0.9s-0.4-0.4-0.7-0.6
					c-0.3-0.1-0.6-0.2-1-0.2c-0.4,0-0.7,0.1-1,0.2c-0.3,0.1-0.5,0.3-0.7,0.5c-0.2,0.2-0.3,0.4-0.3,0.7h-1.2c0-0.5,0.2-0.9,0.5-1.2
					s0.7-0.7,1.2-0.9s1-0.3,1.6-0.3C329.2,226.6,329.8,226.7,330.2,227z M329.3,233.9c0.4-0.2,0.7-0.5,0.9-0.8s0.3-0.7,0.3-1.2V231
					l-2.8,0.3c-0.4,0-0.8,0.2-1,0.5c-0.3,0.3-0.4,0.6-0.4,1c0,0.3,0.1,0.5,0.2,0.7c0.1,0.2,0.3,0.4,0.6,0.5c0.3,0.1,0.6,0.2,0.9,0.2
					C328.4,234.2,328.9,234.1,329.3,233.9z"/>
				<path d="M341.1,226.8L341.1,226.8l0,8.2h-1.2v-1.4c-0.3,0.5-0.7,0.9-1.2,1.2s-1.1,0.4-1.7,0.4c-0.7,0-1.4-0.2-2-0.6
					c-0.6-0.4-1.1-0.9-1.4-1.5c-0.3-0.7-0.5-1.4-0.5-2.2s0.2-1.5,0.5-2.2c0.3-0.7,0.8-1.2,1.4-1.5c0.6-0.4,1.3-0.6,2-0.6
					c0.6,0,1.2,0.1,1.7,0.4s0.9,0.7,1.2,1.2l0-4.4h1.3V226.8z M338.5,233.6c0.4-0.3,0.7-0.6,1-1.1s0.4-1,0.4-1.6s-0.1-1.1-0.4-1.6
					s-0.6-0.9-1-1.1s-0.9-0.4-1.4-0.4c-0.5,0-1,0.1-1.4,0.4c-0.4,0.3-0.7,0.6-1,1.1s-0.4,1-0.4,1.6s0.1,1.1,0.4,1.6s0.6,0.9,1,1.1
					c0.4,0.3,0.9,0.4,1.4,0.4C337.6,234.1,338.1,233.9,338.5,233.6z"/>
			</g>
		</g>
		<g>
			<path class="st1" d="M338.9,37.7l-259.7,0c-10.3,0-18.6,8.3-18.6,18.6v0c0,10.3,8.3,18.6,18.6,18.6l259.7,0
				c10.3,0,18.6-8.3,18.6-18.6v0C357.5,46.1,349.2,37.7,338.9,37.7z"/>
			<g>
				<path d="M80.6,52H77v-1.2h8.6V52h-3.6v10h-1.3V52z"/>
				<path d="M86.8,52.3v-1.5h1.5v1.5H86.8z M88.2,61.9h-1.3v-8.2h1.3V61.9z"/>
				<path d="M101.1,54c0.5,0.3,0.8,0.6,1,1.1c0.2,0.5,0.4,1,0.4,1.7v5.2h-1.3v-5.1c0-0.7-0.2-1.2-0.5-1.6c-0.3-0.4-0.8-0.6-1.4-0.6
					c-0.5,0-0.9,0.1-1.2,0.3c-0.3,0.2-0.6,0.5-0.8,0.9c-0.2,0.4-0.3,0.9-0.3,1.4v4.6h-1.3v-5.1c0-0.7-0.2-1.2-0.5-1.6
					c-0.3-0.4-0.8-0.6-1.4-0.6c-0.5,0-0.9,0.1-1.2,0.3c-0.3,0.2-0.6,0.5-0.8,0.9c-0.2,0.4-0.3,0.9-0.3,1.4v4.6h-1.3v-8.2h1.2V55
					c0.3-0.4,0.6-0.8,1-1c0.4-0.2,0.9-0.4,1.5-0.4c0.6,0,1.1,0.1,1.6,0.4c0.5,0.3,0.8,0.7,1.1,1.2c0.3-0.5,0.7-0.9,1.1-1.2
					c0.5-0.3,1-0.4,1.6-0.4C100.1,53.6,100.6,53.7,101.1,54z"/>
				<path d="M111.6,58.2h-6.5c0,0.6,0.2,1.1,0.4,1.5c0.2,0.4,0.6,0.8,1,1c0.4,0.2,0.9,0.4,1.4,0.4c0.3,0,0.7-0.1,1-0.2
					c0.3-0.1,0.6-0.3,0.8-0.4c0.2-0.2,0.4-0.4,0.5-0.7h1.2c-0.1,0.4-0.3,0.9-0.7,1.2c-0.3,0.4-0.8,0.6-1.3,0.9
					c-0.5,0.2-1.1,0.3-1.7,0.3c-0.8,0-1.5-0.2-2.1-0.6c-0.6-0.4-1.1-0.9-1.4-1.5c-0.3-0.7-0.5-1.4-0.5-2.2c0-0.8,0.2-1.5,0.5-2.2
					c0.3-0.7,0.8-1.2,1.4-1.5c0.6-0.4,1.3-0.6,2.1-0.6c0.7,0,1.4,0.2,2,0.6c0.6,0.4,1,0.9,1.4,1.5c0.3,0.7,0.5,1.4,0.5,2.2V58.2z
					 M106,55.3c-0.5,0.4-0.8,1-0.9,1.8h5.1c-0.1-0.7-0.4-1.3-0.8-1.8c-0.4-0.4-1-0.7-1.6-0.7C107.1,54.7,106.5,54.9,106,55.3z"/>
				<path d="M121,53.9c0.5,0.2,0.8,0.6,1.1,1c0.3,0.4,0.4,1,0.4,1.6v5.5h-1.2v-1.2c-0.3,0.5-0.6,0.8-1.1,1s-1,0.4-1.7,0.4
					c-0.5,0-1-0.1-1.4-0.3c-0.4-0.2-0.7-0.5-1-0.8c-0.2-0.4-0.3-0.8-0.3-1.2c0-0.4,0.1-0.8,0.3-1.2c0.2-0.4,0.5-0.7,0.9-0.9
					s0.8-0.4,1.3-0.4l2.4-0.2c0.2,0,0.3-0.1,0.4-0.2c0.1-0.1,0.2-0.3,0.2-0.6c0-0.3-0.1-0.6-0.2-0.9s-0.4-0.4-0.7-0.6
					c-0.3-0.1-0.6-0.2-1-0.2c-0.4,0-0.7,0.1-1,0.2c-0.3,0.1-0.5,0.3-0.7,0.5c-0.2,0.2-0.3,0.4-0.3,0.7h-1.2c0-0.5,0.2-0.9,0.5-1.2
					s0.7-0.7,1.2-0.9s1-0.3,1.6-0.3C120,53.6,120.6,53.7,121,53.9z M120,60.8c0.4-0.2,0.7-0.5,0.9-0.8s0.3-0.7,0.3-1.2v-0.9
					l-2.8,0.3c-0.4,0-0.8,0.2-1,0.5c-0.3,0.3-0.4,0.6-0.4,1c0,0.3,0.1,0.5,0.2,0.7c0.1,0.2,0.3,0.4,0.6,0.5c0.3,0.1,0.6,0.2,0.9,0.2
					C119.2,61.1,119.7,61,120,60.8z"/>
				<path d="M129.9,54c0.5,0.3,0.8,0.6,1.1,1.1c0.2,0.5,0.4,1.1,0.4,1.7v5.2h-1.3v-5.1c0-0.7-0.2-1.2-0.5-1.6
					c-0.4-0.4-0.9-0.6-1.5-0.6c-0.5,0-0.9,0.1-1.2,0.3c-0.3,0.2-0.6,0.5-0.8,0.8c-0.2,0.4-0.3,0.8-0.3,1.3v4.9h-1.3v-8.2h1.2V55
					c0.3-0.5,0.6-0.8,1.1-1.1c0.4-0.2,1-0.4,1.6-0.4C129,53.6,129.5,53.7,129.9,54z"/>
				<path d="M140.8,53.7L140.8,53.7l0,8.2h-1.2v-1.4c-0.3,0.5-0.7,0.9-1.2,1.2s-1.1,0.4-1.7,0.4c-0.7,0-1.4-0.2-2-0.6
					c-0.6-0.4-1.1-0.9-1.4-1.5c-0.3-0.7-0.5-1.4-0.5-2.2s0.2-1.5,0.5-2.2c0.3-0.7,0.8-1.2,1.4-1.5c0.6-0.4,1.3-0.6,2-0.6
					c0.6,0,1.2,0.1,1.7,0.4s0.9,0.7,1.2,1.2l0-4.4h1.3V53.7z M138.2,60.6c0.4-0.3,0.7-0.6,1-1.1s0.4-1,0.4-1.6s-0.1-1.1-0.4-1.6
					s-0.6-0.9-1-1.1s-0.9-0.4-1.4-0.4c-0.5,0-1,0.1-1.4,0.4c-0.4,0.3-0.7,0.6-1,1.1s-0.4,1-0.4,1.6s0.1,1.1,0.4,1.6s0.6,0.9,1,1.1
					c0.4,0.3,0.9,0.4,1.4,0.4C137.3,61,137.8,60.8,138.2,60.6z"/>
				<path d="M153.2,58.2h-6.5c0,0.6,0.2,1.1,0.4,1.5c0.2,0.4,0.6,0.8,1,1c0.4,0.2,0.9,0.4,1.4,0.4c0.3,0,0.7-0.1,1-0.2
					c0.3-0.1,0.6-0.3,0.8-0.4c0.2-0.2,0.4-0.4,0.5-0.7h1.2c-0.1,0.4-0.3,0.9-0.7,1.2c-0.3,0.4-0.8,0.6-1.3,0.9
					c-0.5,0.2-1.1,0.3-1.7,0.3c-0.8,0-1.5-0.2-2.1-0.6c-0.6-0.4-1.1-0.9-1.4-1.5c-0.3-0.7-0.5-1.4-0.5-2.2c0-0.8,0.2-1.5,0.5-2.2
					c0.3-0.7,0.8-1.2,1.4-1.5c0.6-0.4,1.3-0.6,2.1-0.6c0.7,0,1.4,0.2,2,0.6c0.6,0.4,1,0.9,1.4,1.5c0.3,0.7,0.5,1.4,0.5,2.2V58.2z
					 M147.6,55.3c-0.5,0.4-0.8,1-0.9,1.8h5.1c-0.1-0.7-0.4-1.3-0.8-1.8c-0.4-0.4-1-0.7-1.6-0.7C148.7,54.7,148.1,54.9,147.6,55.3z"
					/>
				<path d="M155.1,61.9v-7.1h-1.4v-1.1h1.4v-1.2c0-0.6,0.2-1,0.5-1.3s0.8-0.5,1.4-0.5h1.5v1.1h-1.4c-0.2,0-0.4,0.1-0.5,0.2
					c-0.1,0.1-0.2,0.3-0.2,0.5v1.2h2v1.1h-2v7.1H155.1z"/>
				<path d="M160.3,61.9v-7.1h-1.4v-1.1h1.4v-1.2c0-0.6,0.2-1,0.5-1.3s0.8-0.5,1.4-0.5h1.5v1.1h-1.4c-0.2,0-0.4,0.1-0.5,0.2
					c-0.1,0.1-0.2,0.3-0.2,0.5v1.2h2v1.1h-2v7.1H160.3z"/>
				<path d="M166.2,61.6c-0.6-0.4-1.1-0.9-1.5-1.5s-0.5-1.4-0.5-2.2c0-0.8,0.2-1.5,0.5-2.2s0.9-1.2,1.5-1.5c0.6-0.4,1.3-0.6,2.1-0.6
					s1.5,0.2,2.1,0.6c0.6,0.4,1.1,0.9,1.5,1.5s0.5,1.4,0.5,2.2c0,0.8-0.2,1.5-0.5,2.2c-0.4,0.7-0.9,1.2-1.5,1.5
					c-0.6,0.4-1.3,0.6-2.1,0.6C167.5,62.1,166.8,61.9,166.2,61.6z M169.8,60.6c0.4-0.3,0.8-0.6,1-1.1c0.2-0.5,0.4-1,0.4-1.6
					s-0.1-1.2-0.4-1.6c-0.2-0.5-0.6-0.8-1-1.1c-0.4-0.3-0.9-0.4-1.4-0.4s-1,0.1-1.4,0.4c-0.4,0.3-0.8,0.6-1,1.1
					c-0.2,0.5-0.4,1-0.4,1.6s0.1,1.2,0.4,1.6s0.6,0.8,1,1.1c0.4,0.3,0.9,0.4,1.4,0.4S169.4,60.8,169.8,60.6z"/>
				<path d="M178,53.7V55h-0.3c-0.7,0-1.3,0.2-1.8,0.7s-0.6,1.1-0.6,1.9v4.4H174v-8.2h1.3v1.6c0.2-0.6,0.6-1,1-1.3
					c0.4-0.3,0.9-0.4,1.5-0.4H178z"/>
				<path d="M181.1,61.9c-0.6,0-1.1-0.2-1.4-0.5s-0.5-0.7-0.5-1.3l0-5.3h-1.4l0-1.1h0.9c0.2,0,0.4-0.1,0.5-0.2
					c0.1-0.1,0.2-0.3,0.2-0.5v-1.4h1.2v2h2l0,1.1h-2l0,5.2c0,0.2,0.1,0.4,0.2,0.5c0.1,0.1,0.3,0.2,0.5,0.2h1.2v1.1H181.1z"/>
				<path d="M188.4,61.8c-0.5-0.2-0.9-0.5-1.2-0.9c-0.3-0.4-0.4-0.8-0.4-1.3h1.3c0,0.3,0.1,0.5,0.3,0.7s0.4,0.4,0.7,0.5
					c0.3,0.1,0.7,0.2,1.1,0.2c0.6,0,1.1-0.1,1.4-0.4c0.3-0.3,0.5-0.6,0.5-1c0-0.3-0.1-0.6-0.3-0.8c-0.2-0.2-0.5-0.4-0.9-0.4
					l-1.5-0.2c-0.7-0.1-1.3-0.4-1.7-0.8c-0.4-0.4-0.6-0.9-0.6-1.5c0-0.4,0.1-0.8,0.4-1.2s0.6-0.6,1.1-0.8c0.5-0.2,1-0.3,1.5-0.3
					c0.6,0,1.1,0.1,1.6,0.3s0.8,0.5,1.1,0.8c0.3,0.3,0.4,0.7,0.4,1.2h-1.3c0-0.2-0.1-0.4-0.3-0.6c-0.2-0.2-0.4-0.3-0.7-0.5
					c-0.3-0.1-0.6-0.2-0.9-0.2c-0.3,0-0.6,0.1-0.9,0.2c-0.3,0.1-0.5,0.2-0.6,0.4c-0.1,0.2-0.2,0.4-0.2,0.6c0,0.3,0.1,0.6,0.3,0.8
					c0.2,0.2,0.5,0.3,0.8,0.4l1.5,0.2c0.7,0.1,1.3,0.4,1.7,0.8c0.4,0.4,0.6,0.9,0.6,1.6c0,0.5-0.1,0.9-0.4,1.3s-0.6,0.7-1.1,0.9
					c-0.5,0.2-1,0.3-1.6,0.3C189.5,62.1,188.9,62,188.4,61.8z"/>
				<path d="M199.6,53.9c0.5,0.2,0.8,0.6,1.1,1c0.3,0.4,0.4,1,0.4,1.6v5.5h-1.2v-1.2c-0.3,0.5-0.6,0.8-1.1,1s-1,0.4-1.7,0.4
					c-0.5,0-1-0.1-1.4-0.3c-0.4-0.2-0.7-0.5-1-0.8c-0.2-0.4-0.3-0.8-0.3-1.2c0-0.4,0.1-0.8,0.3-1.2c0.2-0.4,0.5-0.7,0.9-0.9
					s0.8-0.4,1.3-0.4l2.4-0.2c0.2,0,0.3-0.1,0.4-0.2c0.1-0.1,0.2-0.3,0.2-0.6c0-0.3-0.1-0.6-0.2-0.9s-0.4-0.4-0.7-0.6
					c-0.3-0.1-0.6-0.2-1-0.2c-0.4,0-0.7,0.1-1,0.2c-0.3,0.1-0.5,0.3-0.7,0.5c-0.2,0.2-0.3,0.4-0.3,0.7h-1.2c0-0.5,0.2-0.9,0.5-1.2
					s0.7-0.7,1.2-0.9s1-0.3,1.6-0.3C198.6,53.6,199.1,53.7,199.6,53.9z M198.6,60.8c0.4-0.2,0.7-0.5,0.9-0.8s0.3-0.7,0.3-1.2v-0.9
					l-2.8,0.3c-0.4,0-0.8,0.2-1,0.5c-0.3,0.3-0.4,0.6-0.4,1c0,0.3,0.1,0.5,0.2,0.7c0.1,0.2,0.3,0.4,0.6,0.5c0.3,0.1,0.6,0.2,0.9,0.2
					C197.8,61.1,198.2,61,198.6,60.8z"/>
				<path d="M206.5,61.9h-1.4l-3.2-8.2h1.4l2.5,6.7l2.5-6.7h1.3L206.5,61.9z"/>
				<path d="M217.9,58.2h-6.5c0,0.6,0.2,1.1,0.4,1.5c0.2,0.4,0.6,0.8,1,1c0.4,0.2,0.9,0.4,1.4,0.4c0.3,0,0.7-0.1,1-0.2
					c0.3-0.1,0.6-0.3,0.8-0.4c0.2-0.2,0.4-0.4,0.5-0.7h1.2c-0.1,0.4-0.3,0.9-0.7,1.2c-0.3,0.4-0.8,0.6-1.3,0.9
					c-0.5,0.2-1.1,0.3-1.7,0.3c-0.8,0-1.5-0.2-2.1-0.6c-0.6-0.4-1.1-0.9-1.4-1.5c-0.3-0.7-0.5-1.4-0.5-2.2c0-0.8,0.2-1.5,0.5-2.2
					c0.3-0.7,0.8-1.2,1.4-1.5c0.6-0.4,1.3-0.6,2.1-0.6c0.7,0,1.4,0.2,2,0.6c0.6,0.4,1,0.9,1.4,1.5c0.3,0.7,0.5,1.4,0.5,2.2V58.2z
					 M212.3,55.3c-0.5,0.4-0.8,1-0.9,1.8h5.1c-0.1-0.7-0.4-1.3-0.8-1.8c-0.4-0.4-1-0.7-1.6-0.7C213.4,54.7,212.8,54.9,212.3,55.3z"
					/>
				<path d="M226.8,53.7L226.8,53.7l0,8.2h-1.2v-1.4c-0.3,0.5-0.7,0.9-1.2,1.2s-1.1,0.4-1.7,0.4c-0.7,0-1.4-0.2-2-0.6
					c-0.6-0.4-1.1-0.9-1.4-1.5c-0.3-0.7-0.5-1.4-0.5-2.2s0.2-1.5,0.5-2.2c0.3-0.7,0.8-1.2,1.4-1.5c0.6-0.4,1.3-0.6,2-0.6
					c0.6,0,1.2,0.1,1.7,0.4s0.9,0.7,1.2,1.2l0-4.4h1.3V53.7z M224.2,60.6c0.4-0.3,0.7-0.6,1-1.1s0.4-1,0.4-1.6s-0.1-1.1-0.4-1.6
					s-0.6-0.9-1-1.1s-0.9-0.4-1.4-0.4c-0.5,0-1,0.1-1.4,0.4c-0.4,0.3-0.7,0.6-1,1.1s-0.4,1-0.4,1.6s0.1,1.1,0.4,1.6s0.6,0.9,1,1.1
					c0.4,0.3,0.9,0.4,1.4,0.4C223.3,61,223.8,60.8,224.2,60.6z"/>
				<path d="M238.5,54.1c0.6,0.4,1.1,0.9,1.4,1.5s0.5,1.4,0.5,2.2s-0.2,1.5-0.5,2.2s-0.8,1.2-1.4,1.5s-1.3,0.6-2,0.6
					c-0.6,0-1.2-0.1-1.7-0.4c-0.5-0.3-0.9-0.7-1.2-1.2v1.4h-1.2v-8.2h0v-3h1.3l0,4.4c0.3-0.5,0.7-0.9,1.2-1.2
					c0.5-0.3,1.1-0.4,1.7-0.4C237.2,53.6,237.9,53.7,238.5,54.1z M237.7,60.6c0.4-0.3,0.7-0.6,1-1.1c0.2-0.5,0.4-1,0.4-1.6
					s-0.1-1.1-0.4-1.6c-0.2-0.5-0.6-0.9-1-1.1s-0.9-0.4-1.4-0.4c-0.5,0-1,0.1-1.4,0.4c-0.4,0.3-0.7,0.6-1,1.1
					c-0.2,0.5-0.4,1-0.4,1.6s0.1,1.1,0.4,1.6c0.2,0.5,0.6,0.9,1,1.1c0.4,0.3,0.9,0.4,1.4,0.4C236.9,61,237.3,60.8,237.7,60.6z"/>
				<path d="M241.2,64.5v-1.1h1.3c0.2,0,0.4-0.1,0.6-0.2c0.2-0.1,0.3-0.3,0.4-0.5l0.6-1.2l-3.2-7.7h1.4l2.5,6.3l2.5-6.3h1.4l-3.8,9
					c-0.2,0.6-0.5,1-0.8,1.3s-0.8,0.5-1.3,0.5H241.2z"/>
				<path d="M253.5,61.8c-0.5-0.2-0.9-0.5-1.2-0.9c-0.3-0.4-0.4-0.8-0.4-1.3h1.3c0,0.3,0.1,0.5,0.3,0.7s0.4,0.4,0.7,0.5
					c0.3,0.1,0.7,0.2,1.1,0.2c0.6,0,1.1-0.1,1.4-0.4c0.3-0.3,0.5-0.6,0.5-1c0-0.3-0.1-0.6-0.3-0.8c-0.2-0.2-0.5-0.4-0.9-0.4
					l-1.5-0.2c-0.7-0.1-1.3-0.4-1.7-0.8c-0.4-0.4-0.6-0.9-0.6-1.5c0-0.4,0.1-0.8,0.4-1.2s0.6-0.6,1.1-0.8c0.5-0.2,1-0.3,1.5-0.3
					c0.6,0,1.1,0.1,1.6,0.3s0.8,0.5,1.1,0.8c0.3,0.3,0.4,0.7,0.4,1.2h-1.3c0-0.2-0.1-0.4-0.3-0.6c-0.2-0.2-0.4-0.3-0.7-0.5
					c-0.3-0.1-0.6-0.2-0.9-0.2c-0.3,0-0.6,0.1-0.9,0.2c-0.3,0.1-0.5,0.2-0.6,0.4c-0.1,0.2-0.2,0.4-0.2,0.6c0,0.3,0.1,0.6,0.3,0.8
					c0.2,0.2,0.5,0.3,0.8,0.4l1.5,0.2c0.7,0.1,1.3,0.4,1.7,0.8c0.4,0.4,0.6,0.9,0.6,1.6c0,0.5-0.1,0.9-0.4,1.3s-0.6,0.7-1.1,0.9
					c-0.5,0.2-1,0.3-1.6,0.3C254.6,62.1,254,62,253.5,61.8z"/>
				<path d="M265.4,54c0.5,0.3,0.8,0.6,1.1,1.1c0.2,0.5,0.4,1.1,0.4,1.7v5.2h-1.3v-5.1c0-0.7-0.2-1.2-0.5-1.6
					c-0.3-0.4-0.8-0.6-1.5-0.6c-0.5,0-0.9,0.1-1.2,0.3c-0.4,0.2-0.6,0.5-0.8,0.9c-0.2,0.4-0.3,0.9-0.3,1.4v4.6h-1.3V50.7h1.3v2.6
					l0,1.6c0.3-0.5,0.6-0.8,1.1-1.1c0.4-0.2,1-0.4,1.6-0.4C264.4,53.6,264.9,53.7,265.4,54z"/>
				<path d="M273.6,53.9c0.5,0.2,0.8,0.6,1.1,1c0.3,0.4,0.4,1,0.4,1.6v5.5h-1.2v-1.2c-0.3,0.5-0.6,0.8-1.1,1s-1,0.4-1.7,0.4
					c-0.5,0-1-0.1-1.4-0.3c-0.4-0.2-0.7-0.5-1-0.8c-0.2-0.4-0.3-0.8-0.3-1.2c0-0.4,0.1-0.8,0.3-1.2c0.2-0.4,0.5-0.7,0.9-0.9
					s0.8-0.4,1.3-0.4l2.4-0.2c0.2,0,0.3-0.1,0.4-0.2c0.1-0.1,0.2-0.3,0.2-0.6c0-0.3-0.1-0.6-0.2-0.9s-0.4-0.4-0.7-0.6
					c-0.3-0.1-0.6-0.2-1-0.2c-0.4,0-0.7,0.1-1,0.2c-0.3,0.1-0.5,0.3-0.7,0.5c-0.2,0.2-0.3,0.4-0.3,0.7h-1.2c0-0.5,0.2-0.9,0.5-1.2
					s0.7-0.7,1.2-0.9s1-0.3,1.6-0.3C272.6,53.6,273.1,53.7,273.6,53.9z M272.6,60.8c0.4-0.2,0.7-0.5,0.9-0.8s0.3-0.7,0.3-1.2v-0.9
					l-2.8,0.3c-0.4,0-0.8,0.2-1,0.5c-0.3,0.3-0.4,0.6-0.4,1c0,0.3,0.1,0.5,0.2,0.7c0.1,0.2,0.3,0.4,0.6,0.5c0.3,0.1,0.6,0.2,0.9,0.2
					C271.8,61.1,272.2,61,272.6,60.8z"/>
				<path d="M281,53.7V55h-0.3c-0.7,0-1.3,0.2-1.8,0.7s-0.6,1.1-0.6,1.9v4.4H277v-8.2h1.3v1.6c0.2-0.6,0.6-1,1-1.3
					c0.4-0.3,0.9-0.4,1.5-0.4H281z"/>
				<path d="M282.1,52.3v-1.5h1.5v1.5H282.1z M283.5,61.9h-1.3v-8.2h1.3V61.9z"/>
				<path d="M291.1,54c0.5,0.3,0.8,0.6,1.1,1.1c0.2,0.5,0.4,1.1,0.4,1.7v5.2h-1.3v-5.1c0-0.7-0.2-1.2-0.5-1.6
					c-0.4-0.4-0.9-0.6-1.5-0.6c-0.5,0-0.9,0.1-1.2,0.3c-0.3,0.2-0.6,0.5-0.8,0.8c-0.2,0.4-0.3,0.8-0.3,1.3v4.9h-1.3v-8.2h1.2V55
					c0.3-0.5,0.6-0.8,1.1-1.1c0.4-0.2,1-0.4,1.6-0.4C290.1,53.6,290.7,53.7,291.1,54z"/>
				<path d="M300.4,53.7h1.2l0,7.5c0,0.7-0.2,1.3-0.5,1.8c-0.3,0.5-0.7,0.9-1.3,1.2c-0.6,0.3-1.2,0.4-2,0.4c-0.7,0-1.3-0.1-1.9-0.3
					c-0.5-0.2-1-0.6-1.3-1c-0.3-0.4-0.5-0.9-0.6-1.4h1.3c0.1,0.3,0.2,0.6,0.4,0.9c0.2,0.3,0.5,0.5,0.9,0.6c0.3,0.1,0.7,0.2,1.2,0.2
					c0.8,0,1.4-0.2,1.8-0.6c0.4-0.4,0.7-1,0.7-1.7v-0.6l0-0.8c-0.3,0.4-0.7,0.8-1.2,1c-0.5,0.2-1,0.4-1.6,0.4
					c-0.7,0-1.3-0.2-1.9-0.5c-0.5-0.3-1-0.8-1.3-1.4c-0.3-0.6-0.5-1.2-0.5-2c0-0.7,0.2-1.4,0.5-2c0.3-0.6,0.7-1,1.3-1.4
					c0.5-0.3,1.2-0.5,1.9-0.5c0.6,0,1.1,0.1,1.6,0.4s0.9,0.6,1.2,1.1V53.7z M299.1,59.8c0.4-0.2,0.7-0.5,0.9-1s0.3-0.9,0.3-1.4
					c0-0.5-0.1-1-0.3-1.4c-0.2-0.4-0.5-0.7-0.9-1c-0.4-0.2-0.8-0.3-1.3-0.3c-0.5,0-0.9,0.1-1.3,0.3c-0.4,0.2-0.7,0.5-0.9,1
					c-0.2,0.4-0.3,0.9-0.3,1.4c0,0.5,0.1,1,0.3,1.4c0.2,0.4,0.5,0.7,0.9,1c0.4,0.2,0.8,0.3,1.3,0.3C298.3,60.1,298.7,60,299.1,59.8z
					"/>
				<path d="M308.2,61.6c-0.6-0.4-1.1-0.9-1.5-1.5s-0.5-1.4-0.5-2.2s0.2-1.5,0.5-2.2s0.8-1.2,1.5-1.5s1.3-0.6,2.1-0.6
					c0.7,0,1.3,0.1,1.8,0.4c0.6,0.3,1,0.6,1.3,1.1c0.3,0.5,0.5,1,0.6,1.5h-1.3c-0.1-0.4-0.2-0.7-0.5-1c-0.2-0.3-0.5-0.5-0.9-0.7
					c-0.4-0.2-0.7-0.2-1.1-0.2c-0.5,0-1,0.1-1.4,0.4c-0.4,0.3-0.7,0.7-1,1.1s-0.4,1-0.4,1.6s0.1,1.1,0.4,1.6s0.6,0.9,1,1.1
					c0.4,0.3,0.9,0.4,1.4,0.4c0.4,0,0.8-0.1,1.1-0.2c0.4-0.2,0.7-0.4,0.9-0.6c0.2-0.3,0.4-0.6,0.5-0.9h1.3c0,0.5-0.2,1-0.6,1.5
					s-0.8,0.8-1.3,1s-1.2,0.4-1.8,0.4C309.6,62.1,308.9,61.9,308.2,61.6z"/>
				<path d="M317,61.6c-0.6-0.4-1.1-0.9-1.5-1.5s-0.5-1.4-0.5-2.2c0-0.8,0.2-1.5,0.5-2.2s0.9-1.2,1.5-1.5c0.6-0.4,1.3-0.6,2.1-0.6
					s1.5,0.2,2.1,0.6c0.6,0.4,1.1,0.9,1.5,1.5s0.5,1.4,0.5,2.2c0,0.8-0.2,1.5-0.5,2.2c-0.4,0.7-0.9,1.2-1.5,1.5
					c-0.6,0.4-1.3,0.6-2.1,0.6C318.3,62.1,317.6,61.9,317,61.6z M320.5,60.6c0.4-0.3,0.8-0.6,1-1.1c0.2-0.5,0.4-1,0.4-1.6
					s-0.1-1.2-0.4-1.6c-0.2-0.5-0.6-0.8-1-1.1c-0.4-0.3-0.9-0.4-1.4-0.4s-1,0.1-1.4,0.4c-0.4,0.3-0.8,0.6-1,1.1
					c-0.2,0.5-0.4,1-0.4,1.6s0.1,1.2,0.4,1.6s0.6,0.8,1,1.1c0.4,0.3,0.9,0.4,1.4,0.4S320.1,60.8,320.5,60.6z"/>
				<path d="M332.1,53.7L332.1,53.7l0,8.2h-1.2v-1.4c-0.3,0.5-0.7,0.9-1.2,1.2s-1.1,0.4-1.7,0.4c-0.7,0-1.4-0.2-2-0.6
					c-0.6-0.4-1.1-0.9-1.4-1.5c-0.3-0.7-0.5-1.4-0.5-2.2s0.2-1.5,0.5-2.2c0.3-0.7,0.8-1.2,1.4-1.5c0.6-0.4,1.3-0.6,2-0.6
					c0.6,0,1.2,0.1,1.7,0.4s0.9,0.7,1.2,1.2l0-4.4h1.3V53.7z M329.5,60.6c0.4-0.3,0.7-0.6,1-1.1s0.4-1,0.4-1.6s-0.1-1.1-0.4-1.6
					s-0.6-0.9-1-1.1s-0.9-0.4-1.4-0.4c-0.5,0-1,0.1-1.4,0.4c-0.4,0.3-0.7,0.6-1,1.1s-0.4,1-0.4,1.6s0.1,1.1,0.4,1.6s0.6,0.9,1,1.1
					c0.4,0.3,0.9,0.4,1.4,0.4C328.6,61,329.1,60.8,329.5,60.6z"/>
				<path d="M341.4,58.2h-6.5c0,0.6,0.2,1.1,0.4,1.5c0.2,0.4,0.6,0.8,1,1c0.4,0.2,0.9,0.4,1.4,0.4c0.3,0,0.7-0.1,1-0.2
					c0.3-0.1,0.6-0.3,0.8-0.4c0.2-0.2,0.4-0.4,0.5-0.7h1.2c-0.1,0.4-0.3,0.9-0.7,1.2c-0.3,0.4-0.8,0.6-1.3,0.9
					c-0.5,0.2-1.1,0.3-1.7,0.3c-0.8,0-1.5-0.2-2.1-0.6c-0.6-0.4-1.1-0.9-1.4-1.5c-0.3-0.7-0.5-1.4-0.5-2.2c0-0.8,0.2-1.5,0.5-2.2
					c0.3-0.7,0.8-1.2,1.4-1.5c0.6-0.4,1.3-0.6,2.1-0.6c0.7,0,1.4,0.2,2,0.6c0.6,0.4,1,0.9,1.4,1.5c0.3,0.7,0.5,1.4,0.5,2.2V58.2z
					 M335.8,55.3c-0.5,0.4-0.8,1-0.9,1.8h5.1c-0.1-0.7-0.4-1.3-0.8-1.8c-0.4-0.4-1-0.7-1.6-0.7C336.9,54.7,336.3,54.9,335.8,55.3z"
					/>
			</g>
		</g>
		<g>
			<path class="st1" d="M338.9,95.6l-279.1,0c-10.3,0-18.6,8.3-18.6,18.6v0c0,10.3,8.3,18.6,18.6,18.6l279.1,0
				c10.3,0,18.6-8.3,18.6-18.6v0C357.5,104,349.2,95.6,338.9,95.6z"/>
			<g>
				<path d="M59.6,119.6c-0.6-0.3-1.1-0.7-1.4-1.2c-0.3-0.5-0.5-1.1-0.5-1.7h1.4c0,0.4,0.1,0.8,0.3,1.1c0.2,0.3,0.5,0.6,0.9,0.8
					c0.4,0.2,0.8,0.3,1.3,0.3c0.5,0,0.9-0.1,1.3-0.3c0.4-0.2,0.7-0.4,0.9-0.7c0.2-0.3,0.3-0.7,0.3-1.1c0-0.5-0.1-0.9-0.4-1.2
					c-0.3-0.3-0.7-0.6-1.2-0.7l-2-0.4c-0.5-0.1-1-0.3-1.4-0.6c-0.4-0.3-0.7-0.6-0.9-1.1c-0.2-0.4-0.3-0.9-0.3-1.4
					c0-0.6,0.2-1.1,0.5-1.6c0.3-0.5,0.7-0.8,1.3-1.1c0.5-0.3,1.2-0.4,1.9-0.4c0.7,0,1.3,0.1,1.9,0.4c0.6,0.3,1,0.6,1.3,1.1
					c0.3,0.5,0.5,1,0.5,1.6h-1.4c0-0.4-0.1-0.7-0.3-1s-0.5-0.5-0.8-0.7c-0.3-0.2-0.7-0.2-1.2-0.2c-0.4,0-0.8,0.1-1.2,0.2
					c-0.3,0.2-0.6,0.4-0.8,0.7c-0.2,0.3-0.3,0.6-0.3,1c0,0.4,0.1,0.8,0.4,1.1c0.3,0.3,0.6,0.5,1.1,0.6l2.1,0.4
					c0.5,0.1,1,0.3,1.4,0.6c0.4,0.3,0.7,0.7,0.9,1.1c0.2,0.4,0.3,0.9,0.3,1.4c0,0.6-0.2,1.2-0.5,1.7c-0.3,0.5-0.8,0.9-1.4,1.1
					c-0.6,0.3-1.3,0.4-2,0.4C60.9,120.1,60.2,119.9,59.6,119.6z"/>
				<path d="M78,111.9c0.5,0.3,0.8,0.6,1,1.1c0.2,0.5,0.4,1,0.4,1.7v5.2h-1.3v-5.1c0-0.7-0.2-1.2-0.5-1.6c-0.3-0.4-0.8-0.6-1.4-0.6
					c-0.5,0-0.9,0.1-1.2,0.3c-0.3,0.2-0.6,0.5-0.8,0.9c-0.2,0.4-0.3,0.9-0.3,1.4v4.6h-1.3v-5.1c0-0.7-0.2-1.2-0.5-1.6
					c-0.3-0.4-0.8-0.6-1.4-0.6c-0.5,0-0.9,0.1-1.2,0.3c-0.3,0.2-0.6,0.5-0.8,0.9c-0.2,0.4-0.3,0.9-0.3,1.4v4.6h-1.3v-8.2h1.2v1.2
					c0.3-0.4,0.6-0.8,1-1c0.4-0.2,0.9-0.4,1.5-0.4c0.6,0,1.1,0.1,1.6,0.4c0.5,0.3,0.8,0.7,1.1,1.2c0.3-0.5,0.7-0.9,1.1-1.2
					c0.5-0.3,1-0.4,1.6-0.4C77,111.5,77.6,111.6,78,111.9z"/>
				<path d="M82.7,119.5c-0.6-0.4-1.1-0.9-1.5-1.5s-0.5-1.4-0.5-2.2c0-0.8,0.2-1.5,0.5-2.2s0.9-1.2,1.5-1.5c0.6-0.4,1.3-0.6,2.1-0.6
					s1.5,0.2,2.1,0.6c0.6,0.4,1.1,0.9,1.5,1.5s0.5,1.4,0.5,2.2c0,0.8-0.2,1.5-0.5,2.2c-0.4,0.7-0.9,1.2-1.5,1.5
					c-0.6,0.4-1.3,0.6-2.1,0.6C84.1,120.1,83.4,119.9,82.7,119.5z M86.3,118.5c0.4-0.3,0.8-0.6,1-1.1c0.2-0.5,0.4-1,0.4-1.6
					s-0.1-1.2-0.4-1.6c-0.2-0.5-0.6-0.8-1-1.1c-0.4-0.3-0.9-0.4-1.4-0.4s-1,0.1-1.4,0.4c-0.4,0.3-0.8,0.6-1,1.1
					c-0.2,0.5-0.4,1-0.4,1.6s0.1,1.2,0.4,1.6s0.6,0.8,1,1.1c0.4,0.3,0.9,0.4,1.4,0.4S85.9,118.7,86.3,118.5z"/>
				<path d="M91.9,119.5c-0.6-0.4-1.1-0.9-1.5-1.5s-0.5-1.4-0.5-2.2c0-0.8,0.2-1.5,0.5-2.2s0.9-1.2,1.5-1.5c0.6-0.4,1.3-0.6,2.1-0.6
					s1.5,0.2,2.1,0.6c0.6,0.4,1.1,0.9,1.5,1.5s0.5,1.4,0.5,2.2c0,0.8-0.2,1.5-0.5,2.2c-0.4,0.7-0.9,1.2-1.5,1.5
					c-0.6,0.4-1.3,0.6-2.1,0.6C93.2,120.1,92.5,119.9,91.9,119.5z M95.4,118.5c0.4-0.3,0.8-0.6,1-1.1c0.2-0.5,0.4-1,0.4-1.6
					s-0.1-1.2-0.4-1.6c-0.2-0.5-0.6-0.8-1-1.1c-0.4-0.3-0.9-0.4-1.4-0.4s-1,0.1-1.4,0.4c-0.4,0.3-0.8,0.6-1,1.1
					c-0.2,0.5-0.4,1-0.4,1.6s0.1,1.2,0.4,1.6s0.6,0.8,1,1.1c0.4,0.3,0.9,0.4,1.4,0.4S95,118.7,95.4,118.5z"/>
				<path d="M101.8,119.9c-0.6,0-1.1-0.2-1.4-0.5s-0.5-0.7-0.5-1.3l0-5.3h-1.4l0-1.1h0.9c0.2,0,0.4-0.1,0.5-0.2
					c0.1-0.1,0.2-0.3,0.2-0.5v-1.4h1.2v2h2l0,1.1h-2l0,5.2c0,0.2,0.1,0.4,0.2,0.5c0.1,0.1,0.3,0.2,0.5,0.2h1.2v1.1H101.8z"/>
				<path d="M110.2,111.9c0.5,0.3,0.8,0.6,1.1,1.1c0.2,0.5,0.4,1.1,0.4,1.7v5.2h-1.3v-5.1c0-0.7-0.2-1.2-0.5-1.6
					c-0.3-0.4-0.8-0.6-1.5-0.6c-0.5,0-0.9,0.1-1.2,0.3c-0.4,0.2-0.6,0.5-0.8,0.9c-0.2,0.4-0.3,0.9-0.3,1.4v4.6h-1.3v-11.2h1.3v2.6
					l0,1.6c0.3-0.5,0.6-0.8,1.1-1.1c0.4-0.2,1-0.4,1.6-0.4C109.2,111.5,109.7,111.6,110.2,111.9z"/>
				<path d="M116.9,110.2v-1.5h1.5v1.5H116.9z M118.3,119.9H117v-8.2h1.3V119.9z"/>
				<path d="M126,111.9c0.5,0.3,0.8,0.6,1.1,1.1c0.2,0.5,0.4,1.1,0.4,1.7v5.2h-1.3v-5.1c0-0.7-0.2-1.2-0.5-1.6
					c-0.4-0.4-0.9-0.6-1.5-0.6c-0.5,0-0.9,0.1-1.2,0.3c-0.3,0.2-0.6,0.5-0.8,0.8c-0.2,0.4-0.3,0.8-0.3,1.3v4.9h-1.3v-8.2h1.2v1.3
					c0.3-0.5,0.6-0.8,1.1-1.1c0.4-0.2,1-0.4,1.6-0.4C125,111.5,125.5,111.6,126,111.9z"/>
				<path d="M131.6,119.9c-0.6,0-1.1-0.2-1.4-0.5s-0.5-0.7-0.5-1.3l0-5.3h-1.4l0-1.1h0.9c0.2,0,0.4-0.1,0.5-0.2
					c0.1-0.1,0.2-0.3,0.2-0.5v-1.4h1.2v2h2l0,1.1h-2l0,5.2c0,0.2,0.1,0.4,0.2,0.5c0.1,0.1,0.3,0.2,0.5,0.2h1.2v1.1H131.6z"/>
				<path d="M141.6,116.1h-6.5c0,0.6,0.2,1.1,0.4,1.5c0.2,0.4,0.6,0.8,1,1c0.4,0.2,0.9,0.4,1.4,0.4c0.3,0,0.7-0.1,1-0.2
					c0.3-0.1,0.6-0.3,0.8-0.4c0.2-0.2,0.4-0.4,0.5-0.7h1.2c-0.1,0.4-0.3,0.9-0.7,1.2c-0.3,0.4-0.8,0.6-1.3,0.9
					c-0.5,0.2-1.1,0.3-1.7,0.3c-0.8,0-1.5-0.2-2.1-0.6c-0.6-0.4-1.1-0.9-1.4-1.5c-0.3-0.7-0.5-1.4-0.5-2.2c0-0.8,0.2-1.5,0.5-2.2
					c0.3-0.7,0.8-1.2,1.4-1.5c0.6-0.4,1.3-0.6,2.1-0.6c0.7,0,1.4,0.2,2,0.6c0.6,0.4,1,0.9,1.4,1.5c0.3,0.7,0.5,1.4,0.5,2.2V116.1z
					 M136.1,113.3c-0.5,0.4-0.8,1-0.9,1.8h5.1c-0.1-0.7-0.4-1.3-0.8-1.8c-0.4-0.4-1-0.7-1.6-0.7
					C137.1,112.6,136.5,112.8,136.1,113.3z"/>
				<path d="M149,111.7h1.2l0,7.5c0,0.7-0.2,1.3-0.5,1.8c-0.3,0.5-0.7,0.9-1.3,1.2c-0.6,0.3-1.2,0.4-2,0.4c-0.7,0-1.3-0.1-1.9-0.3
					c-0.5-0.2-1-0.6-1.3-1c-0.3-0.4-0.5-0.9-0.6-1.4h1.3c0.1,0.3,0.2,0.6,0.4,0.9c0.2,0.3,0.5,0.5,0.9,0.6c0.3,0.1,0.7,0.2,1.2,0.2
					c0.8,0,1.4-0.2,1.8-0.6c0.4-0.4,0.7-1,0.7-1.7v-0.6l0-0.8c-0.3,0.4-0.7,0.8-1.2,1c-0.5,0.2-1,0.4-1.6,0.4
					c-0.7,0-1.3-0.2-1.9-0.5c-0.5-0.3-1-0.8-1.3-1.4c-0.3-0.6-0.5-1.2-0.5-2c0-0.7,0.2-1.4,0.5-2c0.3-0.6,0.7-1,1.3-1.4
					c0.5-0.3,1.2-0.5,1.9-0.5c0.6,0,1.1,0.1,1.6,0.4s0.9,0.6,1.2,1.1V111.7z M147.7,117.7c0.4-0.2,0.7-0.5,0.9-1s0.3-0.9,0.3-1.4
					c0-0.5-0.1-1-0.3-1.4c-0.2-0.4-0.5-0.7-0.9-1c-0.4-0.2-0.8-0.3-1.3-0.3c-0.5,0-0.9,0.1-1.3,0.3c-0.4,0.2-0.7,0.5-0.9,1
					c-0.2,0.4-0.3,0.9-0.3,1.4c0,0.5,0.1,1,0.3,1.4c0.2,0.4,0.5,0.7,0.9,1c0.4,0.2,0.8,0.3,1.3,0.3
					C146.9,118.1,147.4,117.9,147.7,117.7z"/>
				<path d="M156.3,111.6v1.3h-0.3c-0.7,0-1.3,0.2-1.8,0.7s-0.6,1.1-0.6,1.9v4.4h-1.3v-8.2h1.3v1.6c0.2-0.6,0.6-1,1-1.3
					c0.4-0.3,0.9-0.4,1.5-0.4H156.3z"/>
				<path d="M162.1,111.8c0.5,0.2,0.8,0.6,1.1,1c0.3,0.4,0.4,1,0.4,1.6v5.5h-1.2v-1.2c-0.3,0.5-0.6,0.8-1.1,1s-1,0.4-1.7,0.4
					c-0.5,0-1-0.1-1.4-0.3c-0.4-0.2-0.7-0.5-1-0.8c-0.2-0.4-0.3-0.8-0.3-1.2c0-0.4,0.1-0.8,0.3-1.2c0.2-0.4,0.5-0.7,0.9-0.9
					s0.8-0.4,1.3-0.4l2.4-0.2c0.2,0,0.3-0.1,0.4-0.2c0.1-0.1,0.2-0.3,0.2-0.6c0-0.3-0.1-0.6-0.2-0.9s-0.4-0.4-0.7-0.6
					c-0.3-0.1-0.6-0.2-1-0.2c-0.4,0-0.7,0.1-1,0.2c-0.3,0.1-0.5,0.3-0.7,0.5c-0.2,0.2-0.3,0.4-0.3,0.7h-1.2c0-0.5,0.2-0.9,0.5-1.2
					s0.7-0.7,1.2-0.9s1-0.3,1.6-0.3C161.1,111.5,161.7,111.6,162.1,111.8z M161.1,118.8c0.4-0.2,0.7-0.5,0.9-0.8s0.3-0.7,0.3-1.2
					v-0.9l-2.8,0.3c-0.4,0-0.8,0.2-1,0.5c-0.3,0.3-0.4,0.6-0.4,1c0,0.3,0.1,0.5,0.2,0.7c0.1,0.2,0.3,0.4,0.6,0.5
					c0.3,0.1,0.6,0.2,0.9,0.2C160.3,119.1,160.8,119,161.1,118.8z"/>
				<path d="M167.8,119.9c-0.6,0-1.1-0.2-1.4-0.5s-0.5-0.7-0.5-1.3l0-5.3h-1.4l0-1.1h0.9c0.2,0,0.4-0.1,0.5-0.2
					c0.1-0.1,0.2-0.3,0.2-0.5v-1.4h1.2v2h2l0,1.1h-2l0,5.2c0,0.2,0.1,0.4,0.2,0.5c0.1,0.1,0.3,0.2,0.5,0.2h1.2v1.1H167.8z"/>
				<path d="M170.6,110.2v-1.5h1.5v1.5H170.6z M172,119.9h-1.3v-8.2h1.3V119.9z"/>
				<path d="M175.5,119.5c-0.6-0.4-1.1-0.9-1.5-1.5s-0.5-1.4-0.5-2.2c0-0.8,0.2-1.5,0.5-2.2s0.9-1.2,1.5-1.5
					c0.6-0.4,1.3-0.6,2.1-0.6s1.5,0.2,2.1,0.6c0.6,0.4,1.1,0.9,1.5,1.5s0.5,1.4,0.5,2.2c0,0.8-0.2,1.5-0.5,2.2
					c-0.4,0.7-0.9,1.2-1.5,1.5c-0.6,0.4-1.3,0.6-2.1,0.6C176.9,120.1,176.2,119.9,175.5,119.5z M179.1,118.5c0.4-0.3,0.8-0.6,1-1.1
					c0.2-0.5,0.4-1,0.4-1.6s-0.1-1.2-0.4-1.6c-0.2-0.5-0.6-0.8-1-1.1c-0.4-0.3-0.9-0.4-1.4-0.4s-1,0.1-1.4,0.4
					c-0.4,0.3-0.8,0.6-1,1.1c-0.2,0.5-0.4,1-0.4,1.6s0.1,1.2,0.4,1.6s0.6,0.8,1,1.1c0.4,0.3,0.9,0.4,1.4,0.4
					S178.7,118.7,179.1,118.5z"/>
				<path d="M188.8,111.9c0.5,0.3,0.8,0.6,1.1,1.1c0.2,0.5,0.4,1.1,0.4,1.7v5.2h-1.3v-5.1c0-0.7-0.2-1.2-0.5-1.6
					c-0.4-0.4-0.9-0.6-1.5-0.6c-0.5,0-0.9,0.1-1.2,0.3c-0.3,0.2-0.6,0.5-0.8,0.8c-0.2,0.4-0.3,0.8-0.3,1.3v4.9h-1.3v-8.2h1.2v1.3
					c0.3-0.5,0.6-0.8,1.1-1.1c0.4-0.2,1-0.4,1.6-0.4C187.8,111.5,188.3,111.6,188.8,111.9z"/>
				<path d="M198.4,119.9h-1.3l-2.7-8.2h1.4l1.9,6l0.2,0.7l0.2-0.7l1.9-6h1.3l2,6l0.2,0.7l0.2-0.7l1.8-6h1.3l-2.7,8.2h-1.3l-1.9-6.3
					l-0.2-0.5l-0.1,0.5L198.4,119.9z"/>
				<path d="M207.8,110.2v-1.5h1.5v1.5H207.8z M209.2,119.9h-1.3v-8.2h1.3V119.9z"/>
				<path d="M213.5,119.9c-0.6,0-1.1-0.2-1.4-0.5s-0.5-0.7-0.5-1.3l0-5.3h-1.4l0-1.1h0.9c0.2,0,0.4-0.1,0.5-0.2
					c0.1-0.1,0.2-0.3,0.2-0.5v-1.4h1.2v2h2l0,1.1h-2l0,5.2c0,0.2,0.1,0.4,0.2,0.5c0.1,0.1,0.3,0.2,0.5,0.2h1.2v1.1H213.5z"/>
				<path d="M221.9,111.9c0.5,0.3,0.8,0.6,1.1,1.1c0.2,0.5,0.4,1.1,0.4,1.7v5.2h-1.3v-5.1c0-0.7-0.2-1.2-0.5-1.6
					c-0.3-0.4-0.8-0.6-1.5-0.6c-0.5,0-0.9,0.1-1.2,0.3c-0.4,0.2-0.6,0.5-0.8,0.9c-0.2,0.4-0.3,0.9-0.3,1.4v4.6h-1.3v-11.2h1.3v2.6
					l0,1.6c0.3-0.5,0.6-0.8,1.1-1.1c0.4-0.2,1-0.4,1.6-0.4C220.9,111.5,221.5,111.6,221.9,111.9z"/>
				<path d="M235.7,116.1h-6.5c0,0.6,0.2,1.1,0.4,1.5c0.2,0.4,0.6,0.8,1,1c0.4,0.2,0.9,0.4,1.4,0.4c0.3,0,0.7-0.1,1-0.2
					c0.3-0.1,0.6-0.3,0.8-0.4c0.2-0.2,0.4-0.4,0.5-0.7h1.2c-0.1,0.4-0.3,0.9-0.7,1.2c-0.3,0.4-0.8,0.6-1.3,0.9
					c-0.5,0.2-1.1,0.3-1.7,0.3c-0.8,0-1.5-0.2-2.1-0.6c-0.6-0.4-1.1-0.9-1.4-1.5c-0.3-0.7-0.5-1.4-0.5-2.2c0-0.8,0.2-1.5,0.5-2.2
					c0.3-0.7,0.8-1.2,1.4-1.5c0.6-0.4,1.3-0.6,2.1-0.6c0.7,0,1.4,0.2,2,0.6c0.6,0.4,1,0.9,1.4,1.5c0.3,0.7,0.5,1.4,0.5,2.2V116.1z
					 M230.1,113.3c-0.5,0.4-0.8,1-0.9,1.8h5.1c-0.1-0.7-0.4-1.3-0.8-1.8c-0.4-0.4-1-0.7-1.6-0.7
					C231.2,112.6,230.6,112.8,230.1,113.3z"/>
				<path d="M240.4,115.7l3,4.2h-1.5l-2.3-3.2l-2.2,3.2H236l3-4.2l-2.8-4h1.5l2.1,3l2.1-3h1.4L240.4,115.7z"/>
				<path d="M244.5,110.2v-1.5h1.5v1.5H244.5z M245.8,119.9h-1.3v-8.2h1.3V119.9z"/>
				<path d="M249,119.7c-0.5-0.2-0.9-0.5-1.2-0.9c-0.3-0.4-0.4-0.8-0.4-1.3h1.3c0,0.3,0.1,0.5,0.3,0.7s0.4,0.4,0.7,0.5
					c0.3,0.1,0.7,0.2,1.1,0.2c0.6,0,1.1-0.1,1.4-0.4c0.3-0.3,0.5-0.6,0.5-1c0-0.3-0.1-0.6-0.3-0.8c-0.2-0.2-0.5-0.4-0.9-0.4
					l-1.5-0.2c-0.7-0.1-1.3-0.4-1.7-0.8c-0.4-0.4-0.6-0.9-0.6-1.5c0-0.4,0.1-0.8,0.4-1.2s0.6-0.6,1.1-0.8c0.5-0.2,1-0.3,1.5-0.3
					c0.6,0,1.1,0.1,1.6,0.3s0.8,0.5,1.1,0.8c0.3,0.3,0.4,0.7,0.4,1.2h-1.3c0-0.2-0.1-0.4-0.3-0.6c-0.2-0.2-0.4-0.3-0.7-0.5
					c-0.3-0.1-0.6-0.2-0.9-0.2c-0.3,0-0.6,0.1-0.9,0.2c-0.3,0.1-0.5,0.2-0.6,0.4c-0.1,0.2-0.2,0.4-0.2,0.6c0,0.3,0.1,0.6,0.3,0.8
					c0.2,0.2,0.5,0.3,0.8,0.4l1.5,0.2c0.7,0.1,1.3,0.4,1.7,0.8c0.4,0.4,0.6,0.9,0.6,1.6c0,0.5-0.1,0.9-0.4,1.3s-0.6,0.7-1.1,0.9
					c-0.5,0.2-1,0.3-1.6,0.3C250.1,120.1,249.5,120,249,119.7z"/>
				<path d="M257.6,119.9c-0.6,0-1.1-0.2-1.4-0.5s-0.5-0.7-0.5-1.3l0-5.3h-1.4l0-1.1h0.9c0.2,0,0.4-0.1,0.5-0.2
					c0.1-0.1,0.2-0.3,0.2-0.5v-1.4h1.2v2h2l0,1.1h-2l0,5.2c0,0.2,0.1,0.4,0.2,0.5c0.1,0.1,0.3,0.2,0.5,0.2h1.2v1.1H257.6z"/>
				<path d="M260.5,110.2v-1.5h1.5v1.5H260.5z M261.8,119.9h-1.3v-8.2h1.3V119.9z"/>
				<path d="M269.5,111.9c0.5,0.3,0.8,0.6,1.1,1.1c0.2,0.5,0.4,1.1,0.4,1.7v5.2h-1.3v-5.1c0-0.7-0.2-1.2-0.5-1.6
					c-0.4-0.4-0.9-0.6-1.5-0.6c-0.5,0-0.9,0.1-1.2,0.3c-0.3,0.2-0.6,0.5-0.8,0.8c-0.2,0.4-0.3,0.8-0.3,1.3v4.9H264v-8.2h1.2v1.3
					c0.3-0.5,0.6-0.8,1.1-1.1c0.4-0.2,1-0.4,1.6-0.4C268.5,111.5,269,111.6,269.5,111.9z"/>
				<path d="M278.8,111.7h1.2l0,7.5c0,0.7-0.2,1.3-0.5,1.8c-0.3,0.5-0.7,0.9-1.3,1.2c-0.6,0.3-1.2,0.4-2,0.4c-0.7,0-1.3-0.1-1.9-0.3
					c-0.5-0.2-1-0.6-1.3-1c-0.3-0.4-0.5-0.9-0.6-1.4h1.3c0.1,0.3,0.2,0.6,0.4,0.9c0.2,0.3,0.5,0.5,0.9,0.6c0.3,0.1,0.7,0.2,1.2,0.2
					c0.8,0,1.4-0.2,1.8-0.6c0.4-0.4,0.7-1,0.7-1.7v-0.6l0-0.8c-0.3,0.4-0.7,0.8-1.2,1c-0.5,0.2-1,0.4-1.6,0.4
					c-0.7,0-1.3-0.2-1.9-0.5c-0.5-0.3-1-0.8-1.3-1.4c-0.3-0.6-0.5-1.2-0.5-2c0-0.7,0.2-1.4,0.5-2c0.3-0.6,0.7-1,1.3-1.4
					c0.5-0.3,1.2-0.5,1.9-0.5c0.6,0,1.1,0.1,1.6,0.4s0.9,0.6,1.2,1.1V111.7z M277.5,117.7c0.4-0.2,0.7-0.5,0.9-1s0.3-0.9,0.3-1.4
					c0-0.5-0.1-1-0.3-1.4c-0.2-0.4-0.5-0.7-0.9-1c-0.4-0.2-0.8-0.3-1.3-0.3c-0.5,0-0.9,0.1-1.3,0.3c-0.4,0.2-0.7,0.5-0.9,1
					c-0.2,0.4-0.3,0.9-0.3,1.4c0,0.5,0.1,1,0.3,1.4c0.2,0.4,0.5,0.7,0.9,1c0.4,0.2,0.8,0.3,1.3,0.3
					C276.7,118.1,277.1,117.9,277.5,117.7z"/>
				<path d="M291.7,112c0.6,0.4,1.1,0.9,1.4,1.5s0.5,1.4,0.5,2.2s-0.2,1.5-0.5,2.2s-0.8,1.2-1.4,1.5s-1.3,0.6-2,0.6
					c-0.6,0-1.2-0.1-1.7-0.4c-0.5-0.3-0.9-0.7-1.2-1.2v0.5l0,3.4h-1.3v-10.8h1.2v1.4c0.3-0.5,0.7-0.9,1.2-1.2
					c0.5-0.3,1.1-0.4,1.7-0.4C290.4,111.5,291.1,111.7,291.7,112z M290.9,118.5c0.4-0.3,0.7-0.6,1-1.1c0.2-0.5,0.4-1,0.4-1.6
					s-0.1-1.1-0.4-1.6c-0.2-0.5-0.6-0.9-1-1.1s-0.9-0.4-1.4-0.4c-0.5,0-1,0.1-1.4,0.4c-0.4,0.3-0.7,0.6-1,1.1
					c-0.2,0.5-0.4,1-0.4,1.6s0.1,1.1,0.4,1.6c0.2,0.5,0.6,0.9,1,1.1c0.4,0.3,0.9,0.4,1.4,0.4C290,118.9,290.5,118.8,290.9,118.5z"/>
				<path d="M299.1,111.6v1.3h-0.3c-0.7,0-1.3,0.2-1.8,0.7s-0.6,1.1-0.6,1.9v4.4h-1.3v-8.2h1.3v1.6c0.2-0.6,0.6-1,1-1.3
					c0.4-0.3,0.9-0.4,1.5-0.4H299.1z"/>
				<path d="M301.6,119.5c-0.6-0.4-1.1-0.9-1.5-1.5s-0.5-1.4-0.5-2.2c0-0.8,0.2-1.5,0.5-2.2s0.9-1.2,1.5-1.5
					c0.6-0.4,1.3-0.6,2.1-0.6s1.5,0.2,2.1,0.6c0.6,0.4,1.1,0.9,1.5,1.5s0.5,1.4,0.5,2.2c0,0.8-0.2,1.5-0.5,2.2
					c-0.4,0.7-0.9,1.2-1.5,1.5c-0.6,0.4-1.3,0.6-2.1,0.6C302.9,120.1,302.2,119.9,301.6,119.5z M305.1,118.5c0.4-0.3,0.8-0.6,1-1.1
					c0.2-0.5,0.4-1,0.4-1.6s-0.1-1.2-0.4-1.6c-0.2-0.5-0.6-0.8-1-1.1c-0.4-0.3-0.9-0.4-1.4-0.4s-1,0.1-1.4,0.4
					c-0.4,0.3-0.8,0.6-1,1.1c-0.2,0.5-0.4,1-0.4,1.6s0.1,1.2,0.4,1.6s0.6,0.8,1,1.1c0.4,0.3,0.9,0.4,1.4,0.4
					S304.7,118.7,305.1,118.5z"/>
				<path d="M307.5,122.4v-1.2h1.2c0.2,0,0.4-0.1,0.5-0.2c0.1-0.1,0.2-0.3,0.2-0.5v-8.8h1.3v8.9c0,0.4-0.1,0.7-0.2,1
					c-0.2,0.3-0.4,0.5-0.7,0.6c-0.3,0.2-0.6,0.2-1,0.2H307.5z M309.3,110.2v-1.5h1.5v1.5H309.3z"/>
				<path d="M319.9,116.1h-6.5c0,0.6,0.2,1.1,0.4,1.5c0.2,0.4,0.6,0.8,1,1c0.4,0.2,0.9,0.4,1.4,0.4c0.3,0,0.7-0.1,1-0.2
					c0.3-0.1,0.6-0.3,0.8-0.4c0.2-0.2,0.4-0.4,0.5-0.7h1.2c-0.1,0.4-0.3,0.9-0.7,1.2c-0.3,0.4-0.8,0.6-1.3,0.9
					c-0.5,0.2-1.1,0.3-1.7,0.3c-0.8,0-1.5-0.2-2.1-0.6c-0.6-0.4-1.1-0.9-1.4-1.5c-0.3-0.7-0.5-1.4-0.5-2.2c0-0.8,0.2-1.5,0.5-2.2
					c0.3-0.7,0.8-1.2,1.4-1.5c0.6-0.4,1.3-0.6,2.1-0.6c0.7,0,1.4,0.2,2,0.6c0.6,0.4,1,0.9,1.4,1.5c0.3,0.7,0.5,1.4,0.5,2.2V116.1z
					 M314.3,113.3c-0.5,0.4-0.8,1-0.9,1.8h5.1c-0.1-0.7-0.4-1.3-0.8-1.8c-0.4-0.4-1-0.7-1.6-0.7
					C315.4,112.6,314.8,112.8,314.3,113.3z"/>
				<path d="M322.8,119.5c-0.6-0.4-1.1-0.9-1.5-1.5s-0.5-1.4-0.5-2.2s0.2-1.5,0.5-2.2s0.8-1.2,1.5-1.5s1.3-0.6,2.1-0.6
					c0.7,0,1.3,0.1,1.8,0.4c0.6,0.3,1,0.6,1.3,1.1c0.3,0.5,0.5,1,0.6,1.5h-1.3c-0.1-0.4-0.2-0.7-0.5-1c-0.2-0.3-0.5-0.5-0.9-0.7
					c-0.4-0.2-0.7-0.2-1.1-0.2c-0.5,0-1,0.1-1.4,0.4c-0.4,0.3-0.7,0.7-1,1.1s-0.4,1-0.4,1.6s0.1,1.1,0.4,1.6s0.6,0.9,1,1.1
					c0.4,0.3,0.9,0.4,1.4,0.4c0.4,0,0.8-0.1,1.1-0.2c0.4-0.2,0.7-0.4,0.9-0.6c0.2-0.3,0.4-0.6,0.5-0.9h1.3c0,0.5-0.2,1-0.6,1.5
					s-0.8,0.8-1.3,1s-1.2,0.4-1.8,0.4C324.1,120.1,323.4,119.9,322.8,119.5z"/>
				<path d="M332.4,119.9c-0.6,0-1.1-0.2-1.4-0.5s-0.5-0.7-0.5-1.3l0-5.3H329l0-1.1h0.9c0.2,0,0.4-0.1,0.5-0.2
					c0.1-0.1,0.2-0.3,0.2-0.5v-1.4h1.2v2h2l0,1.1h-2l0,5.2c0,0.2,0.1,0.4,0.2,0.5c0.1,0.1,0.3,0.2,0.5,0.2h1.2v1.1H332.4z"/>
				<path d="M336.2,119.7c-0.5-0.2-0.9-0.5-1.2-0.9c-0.3-0.4-0.4-0.8-0.4-1.3h1.3c0,0.3,0.1,0.5,0.3,0.7s0.4,0.4,0.7,0.5
					c0.3,0.1,0.7,0.2,1.1,0.2c0.6,0,1.1-0.1,1.4-0.4c0.3-0.3,0.5-0.6,0.5-1c0-0.3-0.1-0.6-0.3-0.8c-0.2-0.2-0.5-0.4-0.9-0.4
					l-1.5-0.2c-0.7-0.1-1.3-0.4-1.7-0.8c-0.4-0.4-0.6-0.9-0.6-1.5c0-0.4,0.1-0.8,0.4-1.2s0.6-0.6,1.1-0.8c0.5-0.2,1-0.3,1.5-0.3
					c0.6,0,1.1,0.1,1.6,0.3s0.8,0.5,1.1,0.8c0.3,0.3,0.4,0.7,0.4,1.2h-1.3c0-0.2-0.1-0.4-0.3-0.6c-0.2-0.2-0.4-0.3-0.7-0.5
					c-0.3-0.1-0.6-0.2-0.9-0.2c-0.3,0-0.6,0.1-0.9,0.2c-0.3,0.1-0.5,0.2-0.6,0.4c-0.1,0.2-0.2,0.4-0.2,0.6c0,0.3,0.1,0.6,0.3,0.8
					c0.2,0.2,0.5,0.3,0.8,0.4l1.5,0.2c0.7,0.1,1.3,0.4,1.7,0.8c0.4,0.4,0.6,0.9,0.6,1.6c0,0.5-0.1,0.9-0.4,1.3s-0.6,0.7-1.1,0.9
					c-0.5,0.2-1,0.3-1.6,0.3C337.3,120.1,336.7,120,336.2,119.7z"/>
			</g>
		</g>
	</g>
	<g>
		<path class="st0" d="M378.1,12.9l4.1,6.2l0-6.2l0.9,0l0,7.7l-1,0l-4.1-6.2l0,6.2l-0.9,0l0-7.7L378.1,12.9z"/>
		<path class="st0" d="M388.1,15.1c0.3,0.2,0.6,0.4,0.7,0.7s0.3,0.7,0.3,1.1l0,3.8h-0.9l0-0.8c-0.2,0.3-0.4,0.6-0.7,0.7
			c-0.3,0.2-0.7,0.2-1.2,0.2c-0.4,0-0.7-0.1-1-0.2c-0.3-0.1-0.5-0.3-0.7-0.6c-0.2-0.2-0.2-0.5-0.2-0.8c0-0.3,0.1-0.6,0.2-0.8
			c0.1-0.2,0.4-0.5,0.6-0.6c0.3-0.2,0.6-0.3,0.9-0.3l1.6-0.2c0.1,0,0.2-0.1,0.3-0.2c0.1-0.1,0.1-0.2,0.1-0.4c0-0.2-0.1-0.4-0.2-0.6
			c-0.1-0.2-0.3-0.3-0.5-0.4c-0.2-0.1-0.4-0.1-0.7-0.1c-0.2,0-0.5,0-0.7,0.1c-0.2,0.1-0.4,0.2-0.5,0.3c-0.1,0.1-0.2,0.3-0.2,0.5
			h-0.9c0-0.3,0.2-0.6,0.4-0.9c0.2-0.3,0.5-0.5,0.8-0.6c0.3-0.1,0.7-0.2,1.1-0.2C387.4,14.9,387.8,15,388.1,15.1z M387.4,19.9
			c0.3-0.1,0.5-0.3,0.6-0.5c0.1-0.2,0.2-0.5,0.2-0.8v-0.6l-1.9,0.2c-0.3,0-0.5,0.1-0.7,0.3c-0.2,0.2-0.3,0.4-0.3,0.7
			c0,0.2,0,0.4,0.1,0.5c0.1,0.1,0.2,0.3,0.4,0.3c0.2,0.1,0.4,0.1,0.6,0.1C386.8,20.1,387.1,20,387.4,19.9z"/>
		<path class="st0" d="M392,20.6c-0.4,0-0.7-0.1-1-0.3c-0.2-0.2-0.4-0.5-0.4-0.9l0-3.6h-1l0-0.8h0.6c0.1,0,0.3,0,0.3-0.1
			c0.1-0.1,0.1-0.2,0.1-0.3v-0.9l0.8,0V15h1.4l0,0.8h-1.4l0,3.6c0,0.2,0,0.3,0.1,0.4c0.1,0.1,0.2,0.1,0.4,0.1h0.9v0.8H392z"/>
		<path class="st0" d="M394,14v-1l1,0v1L394,14z M395,20.6l-0.9,0l0-5.6l0.9,0L395,20.6z"/>
		<path class="st0" d="M398.9,20.6l-0.9,0l-2.2-5.6l1,0l1.7,4.6l1.7-4.6h0.9L398.9,20.6z"/>
		<path class="st0" d="M406.8,18l-4.5,0c0,0.4,0.1,0.7,0.3,1c0.2,0.3,0.4,0.5,0.7,0.7c0.3,0.2,0.6,0.2,0.9,0.2c0.2,0,0.5,0,0.7-0.1
			c0.2-0.1,0.4-0.2,0.6-0.3c0.2-0.1,0.3-0.3,0.3-0.5h0.8c-0.1,0.3-0.2,0.6-0.5,0.8s-0.5,0.4-0.9,0.6c-0.4,0.1-0.7,0.2-1.1,0.2
			c-0.5,0-1-0.1-1.4-0.4s-0.7-0.6-1-1.1c-0.2-0.4-0.4-1-0.4-1.5c0-0.6,0.1-1.1,0.4-1.5c0.2-0.4,0.6-0.8,1-1.1s0.9-0.4,1.4-0.4
			c0.5,0,0.9,0.1,1.3,0.4c0.4,0.3,0.7,0.6,0.9,1.1c0.2,0.4,0.3,1,0.3,1.5V18z M403,16.1c-0.3,0.3-0.5,0.7-0.6,1.2l3.5,0
			c-0.1-0.5-0.3-0.9-0.6-1.2c-0.3-0.3-0.7-0.4-1.1-0.4C403.7,15.7,403.3,15.8,403,16.1z"/>
	</g>
	<g>
		<path class="st0" d="M467.4,7.4c-0.6-0.3-1-0.8-1.4-1.4c-0.3-0.6-0.5-1.3-0.5-2c0-0.7,0.2-1.4,0.5-2c0.3-0.6,0.8-1.1,1.4-1.4
			c0.6-0.3,1.2-0.5,1.9-0.5c0.7,0,1.4,0.2,1.9,0.5s1,0.8,1.4,1.4c0.3,0.6,0.5,1.3,0.5,2c0,0.7-0.2,1.4-0.5,2
			c-0.3,0.6-0.8,1.1-1.4,1.4S470,8,469.3,8C468.6,8,468,7.8,467.4,7.4z M470.8,6.7c0.4-0.3,0.8-0.6,1-1.1c0.2-0.5,0.4-1,0.4-1.6
			c0-0.6-0.1-1.1-0.4-1.6s-0.6-0.9-1-1.1s-0.9-0.4-1.5-0.4c-0.5,0-1,0.1-1.5,0.4s-0.8,0.6-1,1.1c-0.2,0.5-0.4,1-0.4,1.6
			s0.1,1.1,0.4,1.6c0.2,0.5,0.6,0.8,1,1.1c0.4,0.3,0.9,0.4,1.5,0.4C469.9,7.1,470.3,7,470.8,6.7z"/>
		<path class="st0" d="M475.9,7.8c-0.4,0-0.7-0.1-1-0.3s-0.4-0.5-0.4-0.9l0-3.6h-1l0-0.8h0.6c0.1,0,0.3,0,0.3-0.1
			c0.1-0.1,0.1-0.2,0.1-0.3V0.8h0.8v1.4h1.4l0,0.8h-1.4l0,3.6c0,0.2,0,0.3,0.1,0.4c0.1,0.1,0.2,0.1,0.4,0.1h0.9v0.8H475.9z"/>
		<path class="st0" d="M481.7,2.3c0.3,0.2,0.6,0.4,0.7,0.8c0.2,0.3,0.3,0.7,0.3,1.2v3.6l-0.9,0V4.3c0-0.5-0.1-0.8-0.4-1.1
			c-0.2-0.3-0.6-0.4-1-0.4c-0.3,0-0.6,0.1-0.9,0.2s-0.4,0.4-0.6,0.6s-0.2,0.6-0.2,1v3.2h-0.9V0.1h0.9v1.8l0,1.1
			c0.2-0.3,0.4-0.6,0.7-0.7c0.3-0.2,0.7-0.3,1.1-0.3C481,2.1,481.4,2.2,481.7,2.3z"/>
		<path class="st0" d="M489,5.2h-4.5c0,0.4,0.1,0.7,0.3,1c0.2,0.3,0.4,0.5,0.7,0.7c0.3,0.2,0.6,0.2,0.9,0.2c0.2,0,0.5,0,0.7-0.1
			c0.2-0.1,0.4-0.2,0.6-0.3c0.2-0.1,0.3-0.3,0.3-0.5h0.8c-0.1,0.3-0.2,0.6-0.5,0.8c-0.2,0.2-0.5,0.4-0.9,0.6
			c-0.4,0.1-0.7,0.2-1.1,0.2c-0.5,0-1-0.1-1.4-0.4c-0.4-0.3-0.7-0.6-1-1.1c-0.2-0.4-0.4-1-0.4-1.5c0-0.6,0.1-1.1,0.4-1.5
			c0.2-0.4,0.6-0.8,1-1.1c0.4-0.3,0.9-0.4,1.4-0.4c0.5,0,0.9,0.1,1.3,0.4c0.4,0.3,0.7,0.6,0.9,1.1c0.2,0.4,0.3,1,0.3,1.5V5.2z
			 M485.2,3.3c-0.3,0.3-0.5,0.7-0.6,1.2h3.5c-0.1-0.5-0.3-0.9-0.6-1.2c-0.3-0.3-0.7-0.4-1.1-0.4C485.9,2.8,485.5,3,485.2,3.3z"/>
		<path class="st0" d="M492.8,2.1v0.9h-0.2c-0.5,0-0.9,0.2-1.2,0.5c-0.3,0.3-0.4,0.7-0.4,1.3v3h-0.9V2.2h0.9v1.1
			c0.2-0.4,0.4-0.7,0.7-0.9s0.6-0.3,1-0.3H492.8z"/>
		<path class="st0" d="M443.7,19.4c-0.6-0.3-1-0.8-1.3-1.4c-0.3-0.6-0.5-1.3-0.5-2c0-0.7,0.2-1.4,0.5-2c0.3-0.6,0.8-1.1,1.3-1.4
			c0.6-0.3,1.2-0.5,1.9-0.5c0.6,0,1.1,0.1,1.6,0.4c0.5,0.2,0.9,0.6,1.2,1c0.3,0.4,0.5,0.9,0.6,1.3h-0.9c-0.1-0.3-0.2-0.6-0.5-0.9
			c-0.2-0.3-0.5-0.5-0.9-0.7s-0.7-0.3-1.2-0.3c-0.5,0-1,0.1-1.4,0.4s-0.8,0.6-1,1.1s-0.4,1-0.4,1.6c0,0.6,0.1,1.1,0.4,1.6
			s0.6,0.9,1,1.1c0.4,0.3,0.9,0.4,1.4,0.4c0.4,0,0.8-0.1,1.2-0.3s0.7-0.4,0.9-0.7c0.2-0.3,0.4-0.6,0.5-0.9h0.9
			c-0.1,0.5-0.3,0.9-0.6,1.3c-0.3,0.4-0.7,0.7-1.2,1c-0.5,0.2-1,0.4-1.6,0.4C444.9,20,444.3,19.8,443.7,19.4z"/>
		<path class="st0" d="M453,14.1v0.9h-0.2c-0.5,0-0.9,0.2-1.2,0.5c-0.3,0.3-0.4,0.7-0.4,1.3v3h-0.9v-5.6h0.9v1.1
			c0.2-0.4,0.4-0.7,0.7-0.9s0.6-0.3,1-0.3H453z"/>
		<path class="st0" d="M454.8,19.6c-0.4-0.3-0.8-0.6-1-1.1c-0.2-0.4-0.4-1-0.4-1.5s0.1-1.1,0.4-1.5c0.2-0.4,0.6-0.8,1-1.1
			c0.4-0.3,0.9-0.4,1.5-0.4c0.5,0,1,0.1,1.5,0.4s0.8,0.6,1,1.1c0.2,0.4,0.4,1,0.4,1.5s-0.1,1.1-0.4,1.5c-0.2,0.4-0.6,0.8-1,1.1
			c-0.4,0.3-0.9,0.4-1.5,0.4C455.7,20,455.2,19.8,454.8,19.6z M457.2,18.9c0.3-0.2,0.5-0.4,0.7-0.8s0.2-0.7,0.2-1.1
			s-0.1-0.8-0.2-1.1s-0.4-0.6-0.7-0.8c-0.3-0.2-0.6-0.3-1-0.3s-0.7,0.1-1,0.3c-0.3,0.2-0.5,0.4-0.7,0.8c-0.2,0.3-0.2,0.7-0.2,1.1
			s0.1,0.8,0.2,1.1c0.2,0.3,0.4,0.6,0.7,0.8c0.3,0.2,0.6,0.3,1,0.3S456.9,19.1,457.2,18.9z"/>
		<path class="st0" d="M460.8,19.7c-0.3-0.1-0.6-0.3-0.8-0.6c-0.2-0.3-0.3-0.5-0.3-0.9h0.9c0,0.2,0.1,0.4,0.2,0.5
			c0.1,0.1,0.3,0.3,0.5,0.3c0.2,0.1,0.5,0.1,0.7,0.1c0.4,0,0.7-0.1,1-0.3s0.3-0.4,0.3-0.7c0-0.2-0.1-0.4-0.2-0.6
			c-0.1-0.1-0.3-0.2-0.6-0.3l-1-0.2c-0.5-0.1-0.9-0.3-1.1-0.5c-0.3-0.3-0.4-0.6-0.4-1c0-0.3,0.1-0.6,0.3-0.8s0.4-0.4,0.7-0.6
			s0.7-0.2,1.1-0.2c0.4,0,0.8,0.1,1.1,0.2c0.3,0.1,0.6,0.3,0.8,0.6c0.2,0.2,0.3,0.5,0.3,0.8h-0.9c0-0.2-0.1-0.3-0.2-0.4
			c-0.1-0.1-0.3-0.2-0.5-0.3s-0.4-0.1-0.6-0.1c-0.2,0-0.4,0-0.6,0.1s-0.3,0.2-0.4,0.3c-0.1,0.1-0.2,0.3-0.2,0.4
			c0,0.2,0.1,0.4,0.2,0.5c0.1,0.1,0.3,0.2,0.6,0.3l1.1,0.2c0.5,0.1,0.9,0.3,1.2,0.6c0.3,0.3,0.4,0.7,0.4,1.1c0,0.3-0.1,0.6-0.3,0.9
			c-0.2,0.3-0.4,0.5-0.7,0.6S462.5,20,462,20C461.6,20,461.2,19.9,460.8,19.7z"/>
		<path class="st0" d="M466,19.7c-0.3-0.1-0.6-0.3-0.8-0.6c-0.2-0.3-0.3-0.5-0.3-0.9h0.9c0,0.2,0.1,0.4,0.2,0.5
			c0.1,0.1,0.3,0.3,0.5,0.3c0.2,0.1,0.5,0.1,0.7,0.1c0.4,0,0.7-0.1,1-0.3s0.3-0.4,0.3-0.7c0-0.2-0.1-0.4-0.2-0.6
			c-0.1-0.1-0.3-0.2-0.6-0.3l-1-0.2c-0.5-0.1-0.9-0.3-1.1-0.5c-0.3-0.3-0.4-0.6-0.4-1c0-0.3,0.1-0.6,0.3-0.8s0.4-0.4,0.7-0.6
			s0.7-0.2,1.1-0.2c0.4,0,0.8,0.1,1.1,0.2c0.3,0.1,0.6,0.3,0.8,0.6c0.2,0.2,0.3,0.5,0.3,0.8h-0.9c0-0.2-0.1-0.3-0.2-0.4
			c-0.1-0.1-0.3-0.2-0.5-0.3s-0.4-0.1-0.6-0.1c-0.2,0-0.4,0-0.6,0.1s-0.3,0.2-0.4,0.3c-0.1,0.1-0.2,0.3-0.2,0.4
			c0,0.2,0.1,0.4,0.2,0.5c0.1,0.1,0.3,0.2,0.6,0.3l1.1,0.2c0.5,0.1,0.9,0.3,1.2,0.6c0.3,0.3,0.4,0.7,0.4,1.1c0,0.3-0.1,0.6-0.3,0.9
			c-0.2,0.3-0.4,0.5-0.7,0.6s-0.7,0.2-1.1,0.2C466.7,20,466.3,19.9,466,19.7z"/>
		<path class="st0" d="M470.5,17.1v-0.8h3.7v0.8H470.5z"/>
		<path class="st0" d="M480,14.5c0.4,0.3,0.7,0.6,1,1.1c0.2,0.4,0.4,1,0.4,1.5s-0.1,1.1-0.4,1.5c-0.2,0.4-0.6,0.8-1,1.1
			c-0.4,0.3-0.9,0.4-1.4,0.4c-0.4,0-0.8-0.1-1.2-0.3s-0.6-0.5-0.8-0.8v0.4l0,2.4h-0.9v-7.4h0.8v1c0.2-0.3,0.5-0.6,0.8-0.8
			s0.7-0.3,1.2-0.3C479.1,14.1,479.5,14.2,480,14.5z M479.5,18.9c0.3-0.2,0.5-0.4,0.7-0.8s0.2-0.7,0.2-1.1s-0.1-0.8-0.2-1.1
			s-0.4-0.6-0.7-0.8c-0.3-0.2-0.6-0.3-1-0.3c-0.4,0-0.7,0.1-1,0.3s-0.5,0.4-0.7,0.8s-0.2,0.7-0.2,1.1s0.1,0.8,0.2,1.1
			s0.4,0.6,0.7,0.8s0.6,0.3,1,0.3C478.8,19.2,479.2,19.1,479.5,18.9z"/>
		<path class="st0" d="M483.3,19.8h-0.9v-7.7h0.9V19.8z"/>
		<path class="st0" d="M488.1,14.3c0.3,0.2,0.6,0.4,0.7,0.7c0.2,0.3,0.3,0.7,0.3,1.1v3.8h-0.9V19c-0.2,0.3-0.4,0.6-0.7,0.7
			c-0.3,0.2-0.7,0.2-1.2,0.2c-0.4,0-0.7-0.1-1-0.2s-0.5-0.3-0.7-0.6c-0.2-0.2-0.2-0.5-0.2-0.8c0-0.3,0.1-0.6,0.2-0.8
			c0.1-0.2,0.4-0.4,0.6-0.6c0.3-0.2,0.6-0.3,0.9-0.3l1.6-0.2c0.1,0,0.2-0.1,0.3-0.2c0.1-0.1,0.1-0.2,0.1-0.4c0-0.2-0.1-0.4-0.2-0.6
			s-0.3-0.3-0.5-0.4c-0.2-0.1-0.4-0.1-0.7-0.1c-0.2,0-0.5,0-0.7,0.1c-0.2,0.1-0.4,0.2-0.5,0.3c-0.1,0.1-0.2,0.3-0.2,0.5h-0.9
			c0-0.3,0.2-0.6,0.4-0.9c0.2-0.3,0.5-0.5,0.8-0.6c0.3-0.2,0.7-0.2,1.1-0.2C487.4,14.1,487.8,14.1,488.1,14.3z M487.4,19.1
			c0.3-0.1,0.5-0.3,0.6-0.6c0.1-0.2,0.2-0.5,0.2-0.8v-0.6l-1.9,0.2c-0.3,0-0.5,0.1-0.7,0.3c-0.2,0.2-0.3,0.4-0.3,0.7
			c0,0.2,0,0.4,0.1,0.5c0.1,0.1,0.2,0.3,0.4,0.3c0.2,0.1,0.4,0.1,0.6,0.1C486.8,19.3,487.1,19.2,487.4,19.1z"/>
		<path class="st0" d="M492,19.8c-0.4,0-0.7-0.1-1-0.3s-0.4-0.5-0.4-0.9l0-3.6h-1l0-0.8h0.6c0.1,0,0.3,0,0.3-0.1
			c0.1-0.1,0.1-0.2,0.1-0.3v-0.9h0.8v1.4h1.4l0,0.8h-1.4l0,3.6c0,0.2,0,0.3,0.1,0.4c0.1,0.1,0.2,0.1,0.4,0.1h0.9v0.8H492z"/>
		<path class="st0" d="M494.3,19.8V15h-1v-0.8h1v-0.8c0-0.4,0.1-0.7,0.3-0.9c0.2-0.2,0.6-0.3,1-0.3h1v0.8h-1c-0.2,0-0.3,0-0.4,0.1
			c-0.1,0.1-0.1,0.2-0.1,0.4v0.8h1.4V15h-1.4v4.9H494.3z"/>
		<path class="st0" d="M498.5,19.6c-0.4-0.3-0.8-0.6-1-1.1c-0.2-0.4-0.4-1-0.4-1.5s0.1-1.1,0.4-1.5c0.2-0.4,0.6-0.8,1-1.1
			c0.4-0.3,0.9-0.4,1.5-0.4c0.5,0,1,0.1,1.5,0.4c0.4,0.3,0.8,0.6,1,1.1c0.2,0.4,0.4,1,0.4,1.5s-0.1,1.1-0.4,1.5
			c-0.2,0.4-0.6,0.8-1,1.1s-0.9,0.4-1.5,0.4C499.4,20,498.9,19.8,498.5,19.6z M500.9,18.9c0.3-0.2,0.5-0.4,0.7-0.8s0.2-0.7,0.2-1.1
			s-0.1-0.8-0.2-1.1s-0.4-0.6-0.7-0.8c-0.3-0.2-0.6-0.3-1-0.3s-0.7,0.1-1,0.3c-0.3,0.2-0.5,0.4-0.7,0.8c-0.2,0.3-0.2,0.7-0.2,1.1
			s0.1,0.8,0.2,1.1c0.2,0.3,0.4,0.6,0.7,0.8c0.3,0.2,0.6,0.3,1,0.3S500.6,19.1,500.9,18.9z"/>
		<path class="st0" d="M506.6,14.1v0.9h-0.2c-0.5,0-0.9,0.2-1.2,0.5c-0.3,0.3-0.4,0.7-0.4,1.3v3h-0.9v-5.6h0.9v1.1
			c0.2-0.4,0.4-0.7,0.7-0.9s0.6-0.3,1-0.3H506.6z"/>
		<path class="st0" d="M514.8,14.3c0.3,0.2,0.5,0.4,0.7,0.8c0.2,0.3,0.2,0.7,0.2,1.2v3.6h-0.9v-3.5c0-0.5-0.1-0.8-0.3-1.1
			c-0.2-0.3-0.5-0.4-1-0.4c-0.3,0-0.6,0.1-0.8,0.2c-0.2,0.1-0.4,0.4-0.5,0.6c-0.1,0.3-0.2,0.6-0.2,1v3.2h-0.9v-3.5
			c0-0.5-0.1-0.8-0.4-1.1c-0.2-0.3-0.6-0.4-1-0.4c-0.3,0-0.6,0.1-0.8,0.2c-0.2,0.1-0.4,0.4-0.5,0.6c-0.1,0.3-0.2,0.6-0.2,1v3.2h-0.9
			v-5.6h0.8V15c0.2-0.3,0.4-0.5,0.7-0.7c0.3-0.2,0.6-0.3,1-0.3c0.4,0,0.8,0.1,1.1,0.3c0.3,0.2,0.6,0.5,0.7,0.8
			c0.2-0.4,0.4-0.6,0.8-0.8c0.3-0.2,0.7-0.3,1.1-0.3C514.1,14.1,514.5,14.2,514.8,14.3z"/>
	</g>
	<g>
		<path class="st0" d="M532.1,7.9h-0.9l0-7.7h1.2l2.7,6.3l0.1,0.4l0.1-0.4l2.7-6.3h1.2l0,7.7h-0.9l0-6.4l-2.7,6.4h-0.8l-2.7-6.4
			L532.1,7.9z"/>
		<path class="st0" d="M544.7,2.2h0.9l0,5.6h-0.8V7c-0.2,0.3-0.4,0.6-0.7,0.7C543.7,7.9,543.4,8,543,8c-0.4,0-0.8-0.1-1.1-0.3
			c-0.3-0.2-0.6-0.4-0.7-0.8c-0.2-0.3-0.3-0.7-0.3-1.2V2.2h0.9v3.5c0,0.5,0.1,0.9,0.4,1.1c0.2,0.3,0.6,0.4,1,0.4
			c0.3,0,0.6-0.1,0.8-0.2c0.2-0.1,0.4-0.3,0.6-0.6c0.1-0.2,0.2-0.5,0.2-0.9V2.2z"/>
		<path class="st0" d="M548,7.9h-0.9l0-7.7h0.9L548,7.9z"/>
		<path class="st0" d="M551.1,7.9c-0.4,0-0.7-0.1-1-0.3c-0.2-0.2-0.4-0.5-0.4-0.9l0-3.6h-1l0-0.8h0.6c0.1,0,0.3,0,0.3-0.1
			c0.1-0.1,0.1-0.2,0.1-0.3V0.8h0.8v1.4l1.4,0l0,0.8l-1.4,0l0,3.6c0,0.2,0,0.3,0.1,0.4c0.1,0.1,0.2,0.1,0.4,0.1h0.9v0.8H551.1z"/>
		<path class="st0" d="M553.1,1.2v-1h1v1H553.1z M554.1,7.9h-0.9V2.2h0.9L554.1,7.9z"/>
		<path class="st0" d="M559.8,2.5c0.4,0.3,0.7,0.6,1,1.1c0.2,0.4,0.4,1,0.4,1.5s-0.1,1.1-0.4,1.5c-0.2,0.4-0.6,0.8-1,1.1
			C559.4,7.9,559,8,558.5,8c-0.4,0-0.8-0.1-1.2-0.3c-0.3-0.2-0.6-0.5-0.8-0.8v0.4l0,2.4h-0.9l0-7.4h0.8v1c0.2-0.3,0.5-0.6,0.8-0.8
			s0.7-0.3,1.2-0.3C559,2.1,559.4,2.2,559.8,2.5z M559.3,6.9c0.3-0.2,0.5-0.4,0.7-0.8s0.2-0.7,0.2-1.1c0-0.4-0.1-0.8-0.2-1.1
			c-0.2-0.3-0.4-0.6-0.7-0.8c-0.3-0.2-0.6-0.3-1-0.3c-0.4,0-0.7,0.1-1,0.3s-0.5,0.4-0.7,0.8c-0.2,0.3-0.2,0.7-0.2,1.1
			c0,0.4,0.1,0.8,0.2,1.1s0.4,0.6,0.7,0.8s0.6,0.3,1,0.3C558.7,7.2,559.1,7.1,559.3,6.9z"/>
		<path class="st0" d="M563.2,7.9h-0.9l0-7.7h0.9V7.9z"/>
		<path class="st0" d="M568,2.3c0.3,0.2,0.6,0.4,0.7,0.7c0.2,0.3,0.3,0.7,0.3,1.1v3.8l-0.9,0V7c-0.2,0.3-0.4,0.6-0.7,0.7
			c-0.3,0.2-0.7,0.2-1.2,0.2c-0.4,0-0.7-0.1-1-0.2s-0.5-0.3-0.7-0.6s-0.2-0.5-0.2-0.8c0-0.3,0.1-0.6,0.2-0.8s0.4-0.5,0.6-0.6
			c0.3-0.2,0.6-0.3,0.9-0.3l1.6-0.2c0.1,0,0.2-0.1,0.3-0.2c0.1-0.1,0.1-0.2,0.1-0.4c0-0.2-0.1-0.4-0.2-0.6c-0.1-0.2-0.3-0.3-0.5-0.4
			c-0.2-0.1-0.4-0.1-0.7-0.1c-0.2,0-0.5,0-0.7,0.1s-0.4,0.2-0.5,0.3c-0.1,0.1-0.2,0.3-0.2,0.5h-0.9c0-0.3,0.2-0.6,0.4-0.9
			c0.2-0.3,0.5-0.5,0.8-0.6s0.7-0.2,1.1-0.2C567.3,2.1,567.6,2.2,568,2.3z M567.3,7.1c0.3-0.1,0.5-0.3,0.6-0.5s0.2-0.5,0.2-0.8V5.1
			l-1.9,0.2c-0.3,0-0.5,0.1-0.7,0.3s-0.3,0.4-0.3,0.7c0,0.2,0,0.4,0.1,0.5s0.2,0.3,0.4,0.3c0.2,0.1,0.4,0.1,0.6,0.1
			C566.7,7.3,567,7.3,567.3,7.1z"/>
		<path class="st0" d="M571.9,7.9c-0.4,0-0.7-0.1-1-0.3c-0.2-0.2-0.4-0.5-0.4-0.9l0-3.6h-1l0-0.8h0.6c0.1,0,0.3,0,0.3-0.1
			c0.1-0.1,0.1-0.2,0.1-0.3V0.8h0.8v1.4h1.4l0,0.8h-1.4l0,3.6c0,0.2,0,0.3,0.1,0.4c0.1,0.1,0.2,0.1,0.4,0.1h0.9v0.8H571.9z"/>
		<path class="st0" d="M574.2,7.9l0-4.9h-1V2.2h1V1.4c0-0.4,0.1-0.7,0.3-0.9c0.2-0.2,0.6-0.3,1-0.3h1V1h-1c-0.2,0-0.3,0-0.4,0.1
			c-0.1,0.1-0.1,0.2-0.1,0.4v0.8h1.4V3h-1.4l0,4.9H574.2z"/>
		<path class="st0" d="M578.3,7.6c-0.4-0.3-0.8-0.6-1-1.1c-0.2-0.4-0.4-1-0.4-1.5s0.1-1.1,0.4-1.5c0.2-0.4,0.6-0.8,1-1.1
			s0.9-0.4,1.5-0.4c0.5,0,1,0.1,1.5,0.4c0.4,0.3,0.8,0.6,1,1.1c0.2,0.4,0.4,1,0.4,1.5s-0.1,1.1-0.4,1.5c-0.2,0.4-0.6,0.8-1,1.1
			c-0.4,0.3-0.9,0.4-1.5,0.4C579.3,8,578.8,7.9,578.3,7.6z M580.8,6.9c0.3-0.2,0.5-0.4,0.7-0.8c0.2-0.3,0.2-0.7,0.2-1.1
			c0-0.4-0.1-0.8-0.2-1.1c-0.2-0.3-0.4-0.6-0.7-0.8c-0.3-0.2-0.6-0.3-1-0.3s-0.7,0.1-1,0.3c-0.3,0.2-0.5,0.4-0.7,0.8
			c-0.2,0.3-0.2,0.7-0.2,1.1c0,0.4,0.1,0.8,0.2,1.1c0.2,0.3,0.4,0.6,0.7,0.8c0.3,0.2,0.6,0.3,1,0.3S580.5,7.1,580.8,6.9z"/>
		<path class="st0" d="M586.5,2.2v0.9l-0.2,0c-0.5,0-0.9,0.2-1.2,0.5c-0.3,0.3-0.4,0.7-0.4,1.3v3h-0.9l0-5.6h0.9v1.1
			c0.2-0.4,0.4-0.7,0.7-0.9c0.3-0.2,0.6-0.3,1-0.3H586.5z"/>
		<path class="st0" d="M594.7,2.4c0.3,0.2,0.5,0.4,0.7,0.8c0.2,0.3,0.2,0.7,0.2,1.2l0,3.6l-0.9,0V4.4c0-0.5-0.1-0.8-0.3-1.1
			c-0.2-0.3-0.5-0.4-1-0.4c-0.3,0-0.6,0.1-0.8,0.2c-0.2,0.1-0.4,0.4-0.5,0.6c-0.1,0.3-0.2,0.6-0.2,1l0,3.2h-0.9V4.4
			c0-0.5-0.1-0.8-0.4-1.1c-0.2-0.3-0.6-0.4-1-0.4c-0.3,0-0.6,0.1-0.8,0.2c-0.2,0.1-0.4,0.4-0.5,0.6c-0.1,0.3-0.2,0.6-0.2,1v3.2h-0.9
			l0-5.6h0.8v0.8c0.2-0.3,0.4-0.5,0.7-0.7c0.3-0.2,0.6-0.3,1-0.3c0.4,0,0.8,0.1,1.1,0.3c0.3,0.2,0.6,0.5,0.7,0.8
			c0.2-0.4,0.4-0.6,0.8-0.8c0.3-0.2,0.7-0.3,1.1-0.3C594,2.1,594.4,2.2,594.7,2.4z"/>
		<path class="st0" d="M548.3,19.9h-0.9v-7.7h1.2l2.7,6.3l0.1,0.4l0.1-0.4l2.7-6.3l1.2,0l0,7.7l-0.9,0l0-6.4l-2.7,6.4H551l-2.7-6.4
			V19.9z"/>
		<path class="st0" d="M558.1,19.6c-0.4-0.3-0.8-0.6-1-1.1c-0.2-0.4-0.4-1-0.4-1.5s0.1-1.1,0.4-1.5c0.2-0.4,0.6-0.8,1-1.1
			c0.4-0.3,0.9-0.4,1.5-0.4c0.5,0,1,0.1,1.5,0.4c0.4,0.3,0.8,0.6,1,1.1c0.2,0.4,0.4,1,0.4,1.5s-0.1,1.1-0.4,1.5
			c-0.2,0.4-0.6,0.8-1,1.1c-0.4,0.3-0.9,0.4-1.5,0.4C559,20,558.5,19.9,558.1,19.6z M560.5,18.9c0.3-0.2,0.5-0.4,0.7-0.8
			c0.2-0.3,0.2-0.7,0.2-1.1c0-0.4-0.1-0.8-0.2-1.1c-0.2-0.3-0.4-0.6-0.7-0.8c-0.3-0.2-0.6-0.3-1-0.3c-0.4,0-0.7,0.1-1,0.3
			c-0.3,0.2-0.5,0.4-0.7,0.8c-0.2,0.3-0.2,0.7-0.2,1.1c0,0.4,0.1,0.8,0.2,1.1c0.2,0.3,0.4,0.6,0.7,0.8c0.3,0.2,0.6,0.3,1,0.3
			C559.9,19.2,560.3,19.1,560.5,18.9z"/>
		<path class="st0" d="M567.7,14.5c0.4,0.3,0.7,0.6,1,1.1c0.2,0.4,0.4,1,0.4,1.5s-0.1,1.1-0.4,1.5c-0.2,0.4-0.6,0.8-1,1.1
			c-0.4,0.3-0.9,0.4-1.4,0.4c-0.4,0-0.8-0.1-1.2-0.3c-0.3-0.2-0.6-0.5-0.8-0.8l0,0.9l-0.8,0v-5.6h0v-2.1l0.9,0l0,3
			c0.2-0.3,0.5-0.6,0.8-0.8c0.3-0.2,0.7-0.3,1.2-0.3C566.9,14.1,567.3,14.2,567.7,14.5z M567.2,18.9c0.3-0.2,0.5-0.4,0.7-0.8
			s0.2-0.7,0.2-1.1c0-0.4-0.1-0.8-0.2-1.1c-0.2-0.3-0.4-0.6-0.7-0.8c-0.3-0.2-0.6-0.3-1-0.3c-0.4,0-0.7,0.1-1,0.3
			c-0.3,0.2-0.5,0.4-0.7,0.8c-0.2,0.3-0.2,0.7-0.2,1.1c0,0.4,0.1,0.8,0.2,1.1s0.4,0.6,0.7,0.8c0.3,0.2,0.6,0.3,1,0.3
			C566.6,19.2,566.9,19.1,567.2,18.9z"/>
		<path class="st0" d="M570.1,13.2l0-1h1v1H570.1z M571,19.9h-0.9l0-5.6h0.9V19.9z"/>
		<path class="st0" d="M573.5,19.9l-0.9,0l0-7.7l0.9,0V19.9z"/>
		<path class="st0" d="M580,17.3l-4.5,0c0,0.4,0.1,0.7,0.3,1s0.4,0.5,0.7,0.7c0.3,0.2,0.6,0.2,0.9,0.2c0.2,0,0.5,0,0.7-0.1
			c0.2-0.1,0.4-0.2,0.6-0.3c0.2-0.1,0.3-0.3,0.3-0.5h0.8c-0.1,0.3-0.2,0.6-0.5,0.8s-0.5,0.4-0.9,0.6c-0.4,0.1-0.7,0.2-1.1,0.2
			c-0.5,0-1-0.1-1.4-0.4s-0.7-0.6-1-1.1s-0.4-1-0.4-1.5c0-0.6,0.1-1.1,0.4-1.5c0.2-0.4,0.6-0.8,1-1.1s0.9-0.4,1.4-0.4
			c0.5,0,0.9,0.1,1.3,0.4c0.4,0.3,0.7,0.6,0.9,1.1c0.2,0.4,0.3,1,0.3,1.5V17.3z M576.1,15.3c-0.3,0.3-0.5,0.7-0.6,1.2l3.5,0
			c-0.1-0.5-0.3-0.9-0.6-1.2s-0.7-0.4-1.1-0.4C576.9,14.9,576.4,15,576.1,15.3z"/>
	</g>
	<g>
		<radialGradient id="SVGID_1_" cx="400.7871" cy="283.6145" r="271.8022" gradientUnits="userSpaceOnUse">
			<stop  offset="0.1036" style="stop-color:#E44857"/>
			<stop  offset="0.1577" style="stop-color:#D8496A"/>
			<stop  offset="0.3003" style="stop-color:#BD4C97"/>
			<stop  offset="0.444" style="stop-color:#A74EBD"/>
			<stop  offset="0.5864" style="stop-color:#9550DA"/>
			<stop  offset="0.7273" style="stop-color:#8951EE"/>
			<stop  offset="0.866" style="stop-color:#8252FB"/>
			<stop  offset="1" style="stop-color:#7F52FF"/>
		</radialGradient>
		<path class="st2" d="M582.1,229.4c0,10.3-8.3,18.6-18.6,18.6h-0.1c-10.3,0-18.6-8.3-18.6-18.6l0,0c0-10.3,8.3-18.6,18.6-18.6h0.1
			C573.7,210.8,582.1,219.1,582.1,229.4z M563.5,152.8h-0.1c-10.3,0-18.6,8.3-18.6,18.6c0,10.3,8.3,18.6,18.6,18.6h0.1
			c10.3,0,18.6-8.3,18.6-18.6v0C582.1,161.1,573.7,152.8,563.5,152.8z M563.5,95.7l-0.1,0c-10.3,0-18.6,8.3-18.6,18.6l0,0
			c0,10.3,8.3,18.6,18.6,18.6h0.1c10.3,0,18.6-8.3,18.6-18.6C582.1,104,573.7,95.7,563.5,95.7z M563.5,37.7h-0.1
			c-10.3,0-18.6,8.3-18.6,18.6l0,0c0,10.3,8.3,18.6,18.6,18.6h0.1c10.3,0,18.6-8.3,18.6-18.6l0,0C582.1,46.1,573.7,37.7,563.5,37.7z
			 M478.9,37.7h-0.1c-10.3,0-18.6,8.3-18.6,18.6l0,0c0,10.3,8.3,18.6,18.6,18.6h0.1c10.3,0,18.6-8.3,18.6-18.6l0,0
			C497.6,46.1,489.2,37.7,478.9,37.7z M393.9,210.8h-0.1c-10.3,0-18.6,8.3-18.6,18.6l0,0c0,10.3,8.3,18.6,18.6,18.6h0.1
			c10.3,0,18.6-8.3,18.6-18.6C412.5,219.1,404.2,210.8,393.9,210.8z M393.9,152.8h-0.1c-10.3,0-18.6,8.3-18.6,18.6
			c0,10.3,8.3,18.6,18.6,18.6h0.1c10.3,0,18.6-8.3,18.6-18.6v0C412.5,161.1,404.2,152.8,393.9,152.8z"/>
		<g>
			<g>
				<g>
					<polygon class="st3" points="562.1,235.2 574,222.1 572.7,220.9 560.8,233.9 555.1,228.7 553.9,230 559.6,235.3 559.6,235.3 
						559.9,235.6 560.9,236.5 560.9,236.5 560.9,236.5 561.6,235.8 562.2,235.2 					"/>
				</g>
			</g>
			<g>
				<g>
					<polygon class="st3" points="562.1,177.2 574,164.1 572.7,162.9 560.8,176 555.1,170.7 553.9,172 559.6,177.3 559.6,177.3 
						559.9,177.6 560.9,178.5 560.9,178.5 560.9,178.5 561.6,177.8 562.2,177.2 					"/>
				</g>
			</g>
		</g>
		<g>
			<g>
				<g>
					<polygon class="st3" points="562.1,120.1 574,107 572.7,105.8 560.8,118.9 555.1,113.6 553.9,114.9 559.6,120.2 559.6,120.2 
						559.9,120.5 560.9,121.4 560.9,121.4 560.9,121.4 561.6,120.7 562.2,120.1 					"/>
				</g>
			</g>
			<g>
				<g>
					<polygon class="st3" points="562.1,62.1 574,49.1 572.7,47.9 560.8,60.9 555.1,55.6 553.9,56.9 559.6,62.2 559.6,62.2 
						559.9,62.5 560.9,63.4 560.9,63.4 560.9,63.4 561.6,62.7 562.2,62.1 					"/>
				</g>
			</g>
		</g>
		<g>
			<g>
				<polygon class="st3" points="477.6,62.1 489.5,49.1 488.1,47.9 476.3,60.9 470.6,55.6 469.4,56.9 475.1,62.2 475.1,62.2 
					475.4,62.5 476.4,63.4 476.4,63.4 476.4,63.4 477.1,62.7 477.6,62.1 				"/>
			</g>
		</g>
		<g>
			<g>
				<g>
					<polygon class="st3" points="392.6,235.2 404.4,222.1 403.1,220.9 391.2,233.9 385.5,228.7 384.3,230 390,235.3 390,235.3 
						390.3,235.6 391.3,236.5 391.4,236.5 391.4,236.5 392,235.8 392.6,235.2 					"/>
				</g>
			</g>
			<g>
				<g>
					<g>
						<polygon class="st3" points="392.6,177.2 404.4,164.1 403.1,162.9 391.2,176 385.5,170.7 384.3,172 390,177.3 390,177.3 
							390.3,177.6 391.3,178.5 391.4,178.5 391.4,178.5 392,177.8 392.6,177.2 						"/>
					</g>
				</g>
			</g>
		</g>
		<g>
			<path class="st1" d="M479.3,95.6h-0.1c-10.3,0-18.6,8.3-18.6,18.6l0,0c0,10.3,8.3,18.6,18.6,18.6h0.1c10.3,0,18.6-8.3,18.6-18.6
				l0,0C498,104,489.6,95.6,479.3,95.6z"/>
			<g>
				<g>
					<rect x="469.4" y="113.6" transform="matrix(0.7071 0.7071 -0.7071 0.7071 221.1979 -305.3449)" width="19.7" height="1.5"/>
				</g>
				<g>
					<rect x="469.4" y="113.6" transform="matrix(-0.7071 0.7071 -0.7071 -0.7071 898.8649 -143.6479)" width="19.7" height="1.5"/>
				</g>
			</g>
		</g>
		<g>
			<path class="st1" d="M394.3,95.6h-0.1c-10.3,0-18.6,8.3-18.6,18.6l0,0c0,10.3,8.3,18.6,18.6,18.6h0.1c10.3,0,18.6-8.3,18.6-18.6
				l0,0C412.9,104,404.6,95.6,394.3,95.6z"/>
			<g>
				<g>
					<rect x="384.3" y="113.6" transform="matrix(0.7071 0.7071 -0.7071 0.7071 196.2839 -245.1972)" width="19.7" height="1.5"/>
				</g>
				<g>
					<rect x="384.3" y="113.6" transform="matrix(-0.7071 0.7071 -0.7071 -0.7071 753.6553 -83.5002)" width="19.7" height="1.5"/>
				</g>
			</g>
		</g>
		<g>
			<path class="st1" d="M394.3,37.7h-0.1c-10.3,0-18.6,8.3-18.6,18.6l0,0c0,10.3,8.3,18.6,18.6,18.6h0.1c10.3,0,18.6-8.3,18.6-18.6
				l0,0C412.9,46.1,404.6,37.7,394.3,37.7z"/>
			<g>
				<g>
					<rect x="384.3" y="55.7" transform="matrix(0.7071 0.7071 -0.7071 0.7071 155.3239 -262.1634)" width="19.7" height="1.5"/>
				</g>
				<g>
					<rect x="384.3" y="55.7" transform="matrix(-0.7071 0.7071 -0.7071 -0.7071 712.6953 -182.3865)" width="19.7" height="1.5"/>
				</g>
			</g>
		</g>
		<g>
			<g>
				<path class="st1" d="M479.3,210.8h-0.1c-10.3,0-18.6,8.3-18.6,18.6l0,0c0,10.3,8.3,18.6,18.6,18.6h0.1
					c10.3,0,18.6-8.3,18.6-18.6l0,0C498,219.1,489.6,210.8,479.3,210.8z"/>
				<g>
					<g>
						<rect x="469.4" y="228.8" transform="matrix(0.7071 0.7071 -0.7071 0.7071 302.626 -271.6163)" width="19.7" height="1.5"/>
					</g>
					<g>
						<rect x="469.4" y="228.8" transform="matrix(-0.7071 0.7071 -0.7071 -0.7071 980.293 52.937)" width="19.7" height="1.5"/>
					</g>
				</g>
			</g>
			<g>
				<path class="st1" d="M479.3,152.9h-0.1c-10.3,0-18.6,8.3-18.6,18.6l0,0c0,10.3,8.3,18.6,18.6,18.6h0.1
					c10.3,0,18.6-8.3,18.6-18.6l0,0C498,161.2,489.6,152.9,479.3,152.9z"/>
				<g>
					<g>
						<rect x="469.4" y="170.8" transform="matrix(0.7071 0.7071 -0.7071 0.7071 261.666 -288.5825)" width="19.7" height="1.5"/>
					</g>
					<g>
						<rect x="469.4" y="170.8" transform="matrix(-0.7071 0.7071 -0.7071 -0.7071 939.3329 -45.9494)" width="19.7" height="1.5"/>
					</g>
				</g>
			</g>
		</g>
	</g>
</g>
<g>
	<path class="st0" d="M18.7,294.9l6.1,9.3v-9.3h1.4v11.5h-1.5l-6.1-9.3v9.3h-1.4v-11.5H18.7z"/>
	<path class="st0" d="M33.8,298.1c0.5,0.2,0.8,0.6,1.1,1s0.4,1,0.4,1.6v5.6H34v-1.2c-0.3,0.5-0.6,0.8-1.1,1.1
		c-0.5,0.2-1.1,0.4-1.7,0.4c-0.6,0-1-0.1-1.5-0.3c-0.4-0.2-0.8-0.5-1-0.9c-0.2-0.4-0.4-0.8-0.4-1.3c0-0.4,0.1-0.8,0.3-1.2
		c0.2-0.4,0.5-0.7,0.9-0.9c0.4-0.2,0.8-0.4,1.3-0.4l2.5-0.2c0.2,0,0.3-0.1,0.4-0.2c0.1-0.1,0.2-0.3,0.2-0.6c0-0.3-0.1-0.6-0.2-0.9
		s-0.4-0.4-0.7-0.6c-0.3-0.1-0.6-0.2-1-0.2c-0.4,0-0.7,0.1-1,0.2c-0.3,0.1-0.6,0.3-0.7,0.5c-0.2,0.2-0.3,0.5-0.3,0.7h-1.3
		c0-0.5,0.2-0.9,0.5-1.3c0.3-0.4,0.7-0.7,1.2-0.9c0.5-0.2,1.1-0.3,1.6-0.3C32.8,297.7,33.3,297.9,33.8,298.1z M32.8,305.2
		c0.4-0.2,0.7-0.5,0.9-0.8c0.2-0.4,0.3-0.8,0.3-1.2v-1l-2.9,0.3c-0.4,0-0.8,0.2-1.1,0.5s-0.4,0.6-0.4,1c0,0.3,0.1,0.5,0.2,0.8
		c0.1,0.2,0.4,0.4,0.6,0.5c0.3,0.1,0.6,0.2,0.9,0.2C31.9,305.5,32.4,305.4,32.8,305.2z"/>
	<path class="st0" d="M39.9,306.4c-0.6,0-1.1-0.2-1.4-0.5c-0.4-0.3-0.5-0.8-0.5-1.3l0-5.4h-1.5l0-1.2h0.9c0.2,0,0.4-0.1,0.5-0.2
		c0.1-0.1,0.2-0.3,0.2-0.5v-1.4h1.2v2.1h2l0,1.2h-2l0,5.3c0,0.2,0.1,0.4,0.2,0.5c0.1,0.1,0.3,0.2,0.5,0.2h1.3v1.2H39.9z"/>
	<path class="st0" d="M43,296.4v-1.6h1.5v1.6H43z M44.4,306.4h-1.3v-8.4h1.3V306.4z"/>
	<path class="st0" d="M50.5,306.4h-1.4l-3.3-8.4h1.4l2.6,6.9l2.5-6.9h1.4L50.5,306.4z"/>
	<path class="st0" d="M62.5,302.5h-6.7c0,0.6,0.2,1.1,0.5,1.5c0.3,0.4,0.6,0.8,1,1s0.9,0.4,1.4,0.4c0.4,0,0.7-0.1,1-0.2
		c0.3-0.1,0.6-0.3,0.8-0.5s0.4-0.4,0.5-0.7h1.3c-0.1,0.5-0.3,0.9-0.7,1.2c-0.4,0.4-0.8,0.7-1.3,0.9c-0.5,0.2-1.1,0.3-1.7,0.3
		c-0.8,0-1.5-0.2-2.1-0.6c-0.6-0.4-1.1-0.9-1.5-1.6c-0.4-0.7-0.5-1.4-0.5-2.3c0-0.8,0.2-1.6,0.5-2.2c0.4-0.7,0.8-1.2,1.5-1.6
		c0.6-0.4,1.3-0.6,2.1-0.6c0.7,0,1.4,0.2,2,0.6c0.6,0.4,1.1,0.9,1.4,1.6c0.3,0.7,0.5,1.4,0.5,2.3V302.5z M56.7,299.6
		c-0.5,0.4-0.8,1-0.9,1.8h5.3c-0.1-0.8-0.4-1.4-0.8-1.8c-0.4-0.4-1-0.7-1.7-0.7C57.8,298.9,57.2,299.1,56.7,299.6z"/>
	<path class="st0" d="M72.6,298.1c0.5,0.2,0.8,0.6,1.1,1s0.4,1,0.4,1.6v5.6h-1.3v-1.2c-0.3,0.5-0.6,0.8-1.1,1.1
		c-0.5,0.2-1.1,0.4-1.7,0.4c-0.6,0-1-0.1-1.5-0.3c-0.4-0.2-0.8-0.5-1-0.9c-0.2-0.4-0.4-0.8-0.4-1.3c0-0.4,0.1-0.8,0.3-1.2
		c0.2-0.4,0.5-0.7,0.9-0.9c0.4-0.2,0.8-0.4,1.3-0.4l2.5-0.2c0.2,0,0.3-0.1,0.4-0.2c0.1-0.1,0.2-0.3,0.2-0.6c0-0.3-0.1-0.6-0.2-0.9
		s-0.4-0.4-0.7-0.6c-0.3-0.1-0.6-0.2-1-0.2c-0.4,0-0.7,0.1-1,0.2c-0.3,0.1-0.6,0.3-0.7,0.5c-0.2,0.2-0.3,0.5-0.3,0.7h-1.3
		c0-0.5,0.2-0.9,0.5-1.3c0.3-0.4,0.7-0.7,1.2-0.9c0.5-0.2,1.1-0.3,1.6-0.3C71.6,297.7,72.1,297.9,72.6,298.1z M71.6,305.2
		c0.4-0.2,0.7-0.5,0.9-0.8c0.2-0.4,0.3-0.8,0.3-1.2v-1l-2.9,0.3c-0.4,0-0.8,0.2-1.1,0.5s-0.4,0.6-0.4,1c0,0.3,0.1,0.5,0.2,0.8
		c0.1,0.2,0.4,0.4,0.6,0.5c0.3,0.1,0.6,0.2,0.9,0.2C70.8,305.5,71.2,305.4,71.6,305.2z"/>
	<path class="st0" d="M82,298.2c0.5,0.3,0.8,0.7,1.1,1.2c0.3,0.5,0.4,1.1,0.4,1.7v5.3h-1.3v-5.2c0-0.7-0.2-1.3-0.6-1.7
		s-0.9-0.6-1.5-0.6c-0.5,0-0.9,0.1-1.2,0.3s-0.6,0.5-0.8,0.9c-0.2,0.4-0.3,0.8-0.3,1.3v5h-1.3v-8.4h1.3v1.3c0.3-0.5,0.6-0.9,1.1-1.1
		c0.5-0.2,1-0.4,1.6-0.4C81,297.7,81.5,297.9,82,298.2z"/>
	<path class="st0" d="M93.4,297.9L93.4,297.9l0,8.4h-1.3v-1.4c-0.3,0.5-0.7,0.9-1.3,1.2c-0.5,0.3-1.1,0.4-1.7,0.4
		c-0.8,0-1.4-0.2-2.1-0.6c-0.6-0.4-1.1-0.9-1.5-1.6c-0.4-0.7-0.5-1.4-0.5-2.2c0-0.8,0.2-1.6,0.5-2.2c0.3-0.7,0.8-1.2,1.5-1.6
		c0.6-0.4,1.3-0.6,2.1-0.6c0.6,0,1.2,0.1,1.7,0.4c0.5,0.3,0.9,0.7,1.3,1.2l0-4.5h1.3V297.9z M90.7,305c0.4-0.3,0.8-0.7,1-1.2
		c0.2-0.5,0.4-1,0.4-1.6s-0.1-1.2-0.4-1.6c-0.2-0.5-0.6-0.9-1-1.2c-0.4-0.3-0.9-0.4-1.4-0.4c-0.5,0-1,0.1-1.4,0.4
		c-0.4,0.3-0.8,0.7-1,1.2c-0.2,0.5-0.4,1-0.4,1.6s0.1,1.2,0.4,1.6c0.2,0.5,0.6,0.9,1,1.2c0.4,0.3,0.9,0.4,1.4,0.4
		C89.8,305.4,90.3,305.2,90.7,305z"/>
	<path class="st0" d="M100.7,306c-0.6-0.4-1.1-0.9-1.5-1.6s-0.5-1.4-0.5-2.2c0-0.8,0.2-1.6,0.5-2.2s0.9-1.2,1.5-1.6
		c0.6-0.4,1.4-0.6,2.1-0.6c0.7,0,1.3,0.1,1.9,0.4s1,0.6,1.4,1.1s0.6,1,0.6,1.6h-1.3c-0.1-0.4-0.2-0.7-0.5-1s-0.5-0.5-0.9-0.7
		s-0.8-0.2-1.2-0.2c-0.5,0-1,0.1-1.4,0.4c-0.4,0.3-0.8,0.7-1,1.2c-0.2,0.5-0.4,1-0.4,1.7s0.1,1.2,0.4,1.7c0.2,0.5,0.6,0.9,1,1.2
		c0.4,0.3,0.9,0.4,1.4,0.4c0.4,0,0.8-0.1,1.2-0.2c0.4-0.2,0.7-0.4,0.9-0.7s0.4-0.6,0.5-0.9h1.3c0,0.6-0.3,1.1-0.6,1.5
		c-0.4,0.5-0.8,0.8-1.4,1.1c-0.6,0.3-1.2,0.4-1.9,0.4C102,306.6,101.3,306.4,100.7,306z"/>
	<path class="st0" d="M112.6,297.9v1.4h-0.3c-0.8,0-1.4,0.2-1.8,0.7s-0.7,1.1-0.7,1.9v4.5h-1.3v-8.4h1.3v1.7c0.2-0.6,0.6-1,1-1.3
		s0.9-0.5,1.5-0.5H112.6z"/>
	<path class="st0" d="M115.4,306c-0.6-0.4-1.1-0.9-1.5-1.6c-0.4-0.7-0.5-1.4-0.5-2.3c0-0.8,0.2-1.6,0.5-2.3s0.9-1.2,1.5-1.6
		c0.6-0.4,1.4-0.6,2.2-0.6c0.8,0,1.5,0.2,2.2,0.6c0.6,0.4,1.2,0.9,1.5,1.6c0.4,0.7,0.5,1.4,0.5,2.3c0,0.8-0.2,1.6-0.6,2.3
		c-0.4,0.7-0.9,1.2-1.5,1.6c-0.6,0.4-1.4,0.6-2.2,0.6C116.7,306.6,116,306.4,115.4,306z M119,304.9c0.4-0.3,0.8-0.6,1-1.1
		c0.2-0.5,0.4-1,0.4-1.7c0-0.6-0.1-1.2-0.4-1.7c-0.2-0.5-0.6-0.9-1-1.1c-0.4-0.3-0.9-0.4-1.5-0.4s-1,0.1-1.5,0.4
		c-0.4,0.3-0.8,0.6-1,1.1c-0.2,0.5-0.4,1-0.4,1.7c0,0.6,0.1,1.2,0.4,1.7c0.2,0.5,0.6,0.9,1,1.1c0.4,0.3,0.9,0.4,1.5,0.4
		S118.6,305.2,119,304.9z"/>
	<path class="st0" d="M124.6,306.2c-0.5-0.2-0.9-0.5-1.2-0.9c-0.3-0.4-0.4-0.8-0.4-1.3h1.3c0,0.3,0.1,0.5,0.3,0.8
		c0.2,0.2,0.4,0.4,0.7,0.5c0.3,0.1,0.7,0.2,1.1,0.2c0.6,0,1.1-0.1,1.5-0.4c0.3-0.3,0.5-0.6,0.5-1.1c0-0.4-0.1-0.6-0.3-0.9
		c-0.2-0.2-0.5-0.4-0.9-0.4l-1.5-0.2c-0.7-0.1-1.3-0.4-1.7-0.8c-0.4-0.4-0.6-0.9-0.6-1.6c0-0.5,0.1-0.9,0.4-1.2
		c0.3-0.4,0.6-0.6,1.1-0.8c0.5-0.2,1-0.3,1.6-0.3c0.6,0,1.1,0.1,1.6,0.3c0.5,0.2,0.9,0.5,1.1,0.8s0.4,0.8,0.4,1.2h-1.3
		c0-0.2-0.1-0.5-0.3-0.7c-0.2-0.2-0.4-0.4-0.7-0.5c-0.3-0.1-0.6-0.2-1-0.2c-0.3,0-0.6,0.1-0.9,0.2c-0.3,0.1-0.5,0.3-0.6,0.4
		s-0.2,0.4-0.2,0.7c0,0.3,0.1,0.6,0.3,0.8c0.2,0.2,0.5,0.3,0.9,0.4l1.6,0.3c0.8,0.1,1.4,0.4,1.8,0.8c0.4,0.4,0.6,1,0.6,1.6
		c0,0.5-0.1,1-0.4,1.4c-0.3,0.4-0.6,0.7-1.1,0.9c-0.5,0.2-1,0.3-1.7,0.3C125.7,306.6,125.1,306.4,124.6,306.2z"/>
	<path class="st0" d="M132.4,306.2c-0.5-0.2-0.9-0.5-1.2-0.9c-0.3-0.4-0.4-0.8-0.4-1.3h1.3c0,0.3,0.1,0.5,0.3,0.8
		c0.2,0.2,0.4,0.4,0.7,0.5c0.3,0.1,0.7,0.2,1.1,0.2c0.6,0,1.1-0.1,1.5-0.4c0.3-0.3,0.5-0.6,0.5-1.1c0-0.4-0.1-0.6-0.3-0.9
		s-0.5-0.4-0.9-0.4l-1.5-0.2c-0.7-0.1-1.3-0.4-1.7-0.8c-0.4-0.4-0.6-0.9-0.6-1.6c0-0.5,0.1-0.9,0.4-1.2c0.3-0.4,0.6-0.6,1.1-0.8
		c0.5-0.2,1-0.3,1.6-0.3c0.6,0,1.1,0.1,1.6,0.3c0.5,0.2,0.9,0.5,1.1,0.8s0.4,0.8,0.4,1.2H136c0-0.2-0.1-0.5-0.3-0.7
		c-0.2-0.2-0.4-0.4-0.7-0.5c-0.3-0.1-0.6-0.2-1-0.2c-0.3,0-0.6,0.1-0.9,0.2c-0.3,0.1-0.5,0.3-0.6,0.4s-0.2,0.4-0.2,0.7
		c0,0.3,0.1,0.6,0.3,0.8c0.2,0.2,0.5,0.3,0.9,0.4l1.6,0.3c0.8,0.1,1.4,0.4,1.8,0.8c0.4,0.4,0.6,1,0.6,1.6c0,0.5-0.1,1-0.4,1.4
		c-0.3,0.4-0.6,0.7-1.1,0.9c-0.5,0.2-1,0.3-1.7,0.3C133.6,306.6,133,306.4,132.4,306.2z"/>
	<path class="st0" d="M139.3,302.2v-1.1h5.5v1.1H139.3z"/>
	<path class="st0" d="M153.6,298.3c0.6,0.4,1.1,0.9,1.5,1.6s0.5,1.4,0.5,2.2c0,0.8-0.2,1.6-0.5,2.2s-0.8,1.2-1.5,1.6
		c-0.6,0.4-1.3,0.6-2.1,0.6c-0.6,0-1.2-0.1-1.7-0.4c-0.5-0.3-0.9-0.7-1.3-1.2v0.5l0,3.5h-1.3v-11.1h1.3v1.4c0.3-0.5,0.7-0.9,1.3-1.2
		s1.1-0.4,1.7-0.4C152.3,297.7,153,297.9,153.6,298.3z M152.9,305c0.4-0.3,0.8-0.7,1-1.2c0.2-0.5,0.4-1,0.4-1.6s-0.1-1.2-0.4-1.6
		c-0.2-0.5-0.6-0.9-1-1.2c-0.4-0.3-0.9-0.4-1.4-0.4c-0.5,0-1,0.1-1.4,0.4c-0.4,0.3-0.8,0.7-1,1.2c-0.2,0.5-0.4,1-0.4,1.6
		s0.1,1.2,0.4,1.6c0.2,0.5,0.6,0.9,1,1.2c0.4,0.3,0.9,0.4,1.4,0.4C152,305.4,152.4,305.2,152.9,305z"/>
	<path class="st0" d="M158.7,306.4h-1.3v-11.5h1.3V306.4z"/>
	<path class="st0" d="M166.1,298.1c0.5,0.2,0.8,0.6,1.1,1s0.4,1,0.4,1.6v5.6h-1.3v-1.2c-0.3,0.5-0.6,0.8-1.1,1.1
		c-0.5,0.2-1.1,0.4-1.7,0.4c-0.6,0-1-0.1-1.5-0.3c-0.4-0.2-0.8-0.5-1-0.9c-0.2-0.4-0.4-0.8-0.4-1.3c0-0.4,0.1-0.8,0.3-1.2
		c0.2-0.4,0.5-0.7,0.9-0.9c0.4-0.2,0.8-0.4,1.3-0.4l2.5-0.2c0.2,0,0.3-0.1,0.4-0.2c0.1-0.1,0.2-0.3,0.2-0.6c0-0.3-0.1-0.6-0.2-0.9
		s-0.4-0.4-0.7-0.6c-0.3-0.1-0.6-0.2-1-0.2c-0.4,0-0.7,0.1-1,0.2c-0.3,0.1-0.6,0.3-0.7,0.5c-0.2,0.2-0.3,0.5-0.3,0.7H161
		c0-0.5,0.2-0.9,0.5-1.3c0.3-0.4,0.7-0.7,1.2-0.9c0.5-0.2,1.1-0.3,1.6-0.3C165,297.7,165.6,297.9,166.1,298.1z M165.1,305.2
		c0.4-0.2,0.7-0.5,0.9-0.8c0.2-0.4,0.3-0.8,0.3-1.2v-1l-2.9,0.3c-0.4,0-0.8,0.2-1.1,0.5s-0.4,0.6-0.4,1c0,0.3,0.1,0.5,0.2,0.8
		c0.1,0.2,0.4,0.4,0.6,0.5c0.3,0.1,0.6,0.2,0.9,0.2C164.2,305.5,164.7,305.4,165.1,305.2z"/>
	<path class="st0" d="M172.1,306.4c-0.6,0-1.1-0.2-1.4-0.5c-0.4-0.3-0.5-0.8-0.5-1.3l0-5.4h-1.5l0-1.2h0.9c0.2,0,0.4-0.1,0.5-0.2
		c0.1-0.1,0.2-0.3,0.2-0.5v-1.4h1.2v2.1h2l0,1.2h-2l0,5.3c0,0.2,0.1,0.4,0.2,0.5c0.1,0.1,0.3,0.2,0.5,0.2h1.3v1.2H172.1z"/>
	<path class="st0" d="M175.7,306.4v-7.2h-1.5v-1.2h1.5v-1.3c0-0.6,0.2-1,0.5-1.3c0.3-0.3,0.8-0.5,1.4-0.5h1.5v1.2h-1.4
		c-0.2,0-0.4,0.1-0.5,0.2s-0.2,0.3-0.2,0.5v1.2h2.1v1.2H177v7.2H175.7z"/>
	<path class="st0" d="M182.1,306c-0.6-0.4-1.1-0.9-1.5-1.6c-0.4-0.7-0.5-1.4-0.5-2.3c0-0.8,0.2-1.6,0.5-2.3s0.9-1.2,1.5-1.6
		c0.6-0.4,1.4-0.6,2.2-0.6c0.8,0,1.5,0.2,2.2,0.6c0.6,0.4,1.2,0.9,1.5,1.6c0.4,0.7,0.5,1.4,0.5,2.3c0,0.8-0.2,1.6-0.6,2.3
		c-0.4,0.7-0.9,1.2-1.5,1.6c-0.6,0.4-1.4,0.6-2.2,0.6C183.4,306.6,182.7,306.4,182.1,306z M185.7,304.9c0.4-0.3,0.8-0.6,1-1.1
		c0.2-0.5,0.4-1,0.4-1.7c0-0.6-0.1-1.2-0.4-1.7c-0.2-0.5-0.6-0.9-1-1.1c-0.4-0.3-0.9-0.4-1.5-0.4s-1,0.1-1.5,0.4
		c-0.4,0.3-0.8,0.6-1,1.1c-0.2,0.5-0.4,1-0.4,1.7c0,0.6,0.1,1.2,0.4,1.7c0.2,0.5,0.6,0.9,1,1.1c0.4,0.3,0.9,0.4,1.5,0.4
		S185.3,305.2,185.7,304.9z"/>
	<path class="st0" d="M194.4,297.9v1.4h-0.3c-0.8,0-1.4,0.2-1.8,0.7s-0.7,1.1-0.7,1.9v4.5h-1.3v-8.4h1.3v1.7c0.2-0.6,0.6-1,1-1.3
		s0.9-0.5,1.5-0.5H194.4z"/>
	<path class="st0" d="M206.8,298.2c0.5,0.3,0.8,0.7,1.1,1.2c0.2,0.5,0.4,1.1,0.4,1.7v5.3h-1.3v-5.2c0-0.7-0.2-1.3-0.5-1.7
		s-0.8-0.6-1.4-0.6c-0.5,0-0.9,0.1-1.2,0.3c-0.3,0.2-0.6,0.5-0.8,0.9c-0.2,0.4-0.3,0.9-0.3,1.4v4.8h-1.3v-5.2c0-0.7-0.2-1.3-0.5-1.7
		c-0.4-0.4-0.8-0.6-1.5-0.6c-0.5,0-0.9,0.1-1.2,0.3s-0.6,0.5-0.8,0.9s-0.3,0.9-0.3,1.4v4.8h-1.3v-8.4h1.3v1.2c0.3-0.5,0.6-0.8,1-1.1
		c0.4-0.2,0.9-0.4,1.5-0.4c0.6,0,1.2,0.1,1.6,0.4c0.5,0.3,0.8,0.7,1.1,1.2c0.3-0.5,0.7-0.9,1.2-1.2c0.5-0.3,1-0.4,1.7-0.4
		C205.8,297.7,206.3,297.9,206.8,298.2z"/>
	<path class="st0" d="M221.6,297.9L221.6,297.9l0,8.4h-1.3v-1.4c-0.3,0.5-0.7,0.9-1.3,1.2c-0.5,0.3-1.1,0.4-1.7,0.4
		c-0.8,0-1.4-0.2-2.1-0.6c-0.6-0.4-1.1-0.9-1.5-1.6c-0.4-0.7-0.5-1.4-0.5-2.2c0-0.8,0.2-1.6,0.5-2.2c0.3-0.7,0.8-1.2,1.5-1.6
		c0.6-0.4,1.3-0.6,2.1-0.6c0.6,0,1.2,0.1,1.7,0.4c0.5,0.3,0.9,0.7,1.3,1.2l0-4.5h1.3V297.9z M218.9,305c0.4-0.3,0.8-0.7,1-1.2
		c0.2-0.5,0.4-1,0.4-1.6s-0.1-1.2-0.4-1.6c-0.2-0.5-0.6-0.9-1-1.2c-0.4-0.3-0.9-0.4-1.4-0.4c-0.5,0-1,0.1-1.4,0.4
		c-0.4,0.3-0.8,0.7-1,1.2c-0.2,0.5-0.4,1-0.4,1.6s0.1,1.2,0.4,1.6c0.2,0.5,0.6,0.9,1,1.2c0.4,0.3,0.9,0.4,1.4,0.4
		C218,305.4,218.5,305.2,218.9,305z"/>
	<path class="st0" d="M231.4,302.5h-6.7c0,0.6,0.2,1.1,0.5,1.5c0.3,0.4,0.6,0.8,1,1s0.9,0.4,1.4,0.4c0.4,0,0.7-0.1,1-0.2
		c0.3-0.1,0.6-0.3,0.8-0.5s0.4-0.4,0.5-0.7h1.3c-0.1,0.5-0.3,0.9-0.7,1.2c-0.4,0.4-0.8,0.7-1.3,0.9c-0.5,0.2-1.1,0.3-1.7,0.3
		c-0.8,0-1.5-0.2-2.1-0.6c-0.6-0.4-1.1-0.9-1.5-1.6c-0.4-0.7-0.5-1.4-0.5-2.3c0-0.8,0.2-1.6,0.5-2.2c0.4-0.7,0.8-1.2,1.5-1.6
		c0.6-0.4,1.3-0.6,2.1-0.6c0.7,0,1.4,0.2,2,0.6c0.6,0.4,1.1,0.9,1.4,1.6c0.3,0.7,0.5,1.4,0.5,2.3V302.5z M225.7,299.6
		c-0.5,0.4-0.8,1-0.9,1.8h5.3c-0.1-0.8-0.4-1.4-0.8-1.8c-0.4-0.4-1-0.7-1.7-0.7C226.8,298.9,226.1,299.1,225.7,299.6z"/>
	<path class="st0" d="M236.7,306.4h-1.4l-3.3-8.4h1.4l2.6,6.9l2.5-6.9h1.4L236.7,306.4z"/>
	<path class="st0" d="M248.7,302.5H242c0,0.6,0.2,1.1,0.5,1.5c0.3,0.4,0.6,0.8,1,1s0.9,0.4,1.4,0.4c0.4,0,0.7-0.1,1-0.2
		c0.3-0.1,0.6-0.3,0.8-0.5s0.4-0.4,0.5-0.7h1.3c-0.1,0.5-0.3,0.9-0.7,1.2c-0.4,0.4-0.8,0.7-1.3,0.9c-0.5,0.2-1.1,0.3-1.7,0.3
		c-0.8,0-1.5-0.2-2.1-0.6c-0.6-0.4-1.1-0.9-1.5-1.6c-0.4-0.7-0.5-1.4-0.5-2.3c0-0.8,0.2-1.6,0.5-2.2c0.4-0.7,0.8-1.2,1.5-1.6
		c0.6-0.4,1.3-0.6,2.1-0.6c0.7,0,1.4,0.2,2,0.6c0.6,0.4,1.1,0.9,1.4,1.6c0.3,0.7,0.5,1.4,0.5,2.3V302.5z M242.9,299.6
		c-0.5,0.4-0.8,1-0.9,1.8h5.3c-0.1-0.8-0.4-1.4-0.8-1.8c-0.4-0.4-1-0.7-1.7-0.7C244,298.9,243.4,299.1,242.9,299.6z"/>
	<path class="st0" d="M251.8,306.4h-1.3v-11.5h1.3V306.4z"/>
	<path class="st0" d="M255.7,306c-0.6-0.4-1.1-0.9-1.5-1.6c-0.4-0.7-0.5-1.4-0.5-2.3c0-0.8,0.2-1.6,0.5-2.3s0.9-1.2,1.5-1.6
		c0.6-0.4,1.4-0.6,2.2-0.6c0.8,0,1.5,0.2,2.2,0.6c0.6,0.4,1.2,0.9,1.5,1.6c0.4,0.7,0.5,1.4,0.5,2.3c0,0.8-0.2,1.6-0.6,2.3
		c-0.4,0.7-0.9,1.2-1.5,1.6c-0.6,0.4-1.4,0.6-2.2,0.6C257,306.6,256.3,306.4,255.7,306z M259.3,304.9c0.4-0.3,0.8-0.6,1-1.1
		c0.2-0.5,0.4-1,0.4-1.7c0-0.6-0.1-1.2-0.4-1.7c-0.2-0.5-0.6-0.9-1-1.1c-0.4-0.3-0.9-0.4-1.5-0.4s-1,0.1-1.5,0.4
		c-0.4,0.3-0.8,0.6-1,1.1c-0.2,0.5-0.4,1-0.4,1.7c0,0.6,0.1,1.2,0.4,1.7c0.2,0.5,0.6,0.9,1,1.1c0.4,0.3,0.9,0.4,1.5,0.4
		S258.9,305.2,259.3,304.9z"/>
	<path class="st0" d="M270.2,298.3c0.6,0.4,1.1,0.9,1.5,1.6s0.5,1.4,0.5,2.2c0,0.8-0.2,1.6-0.5,2.2s-0.8,1.2-1.5,1.6
		c-0.6,0.4-1.3,0.6-2.1,0.6c-0.6,0-1.2-0.1-1.7-0.4c-0.5-0.3-0.9-0.7-1.3-1.2v0.5l0,3.5h-1.3v-11.1h1.3v1.4c0.3-0.5,0.7-0.9,1.3-1.2
		s1.1-0.4,1.7-0.4C268.9,297.7,269.6,297.9,270.2,298.3z M269.4,305c0.4-0.3,0.8-0.7,1-1.2c0.2-0.5,0.4-1,0.4-1.6s-0.1-1.2-0.4-1.6
		c-0.2-0.5-0.6-0.9-1-1.2c-0.4-0.3-0.9-0.4-1.4-0.4c-0.5,0-1,0.1-1.4,0.4c-0.4,0.3-0.8,0.7-1,1.2c-0.2,0.5-0.4,1-0.4,1.6
		s0.1,1.2,0.4,1.6c0.2,0.5,0.6,0.9,1,1.2c0.4,0.3,0.9,0.4,1.4,0.4C268.5,305.4,269,305.2,269.4,305z"/>
	<path class="st0" d="M284.9,298.2c0.5,0.3,0.8,0.7,1.1,1.2c0.2,0.5,0.4,1.1,0.4,1.7v5.3h-1.3v-5.2c0-0.7-0.2-1.3-0.5-1.7
		s-0.8-0.6-1.4-0.6c-0.5,0-0.9,0.1-1.2,0.3c-0.3,0.2-0.6,0.5-0.8,0.9c-0.2,0.4-0.3,0.9-0.3,1.4v4.8h-1.3v-5.2c0-0.7-0.2-1.3-0.5-1.7
		c-0.4-0.4-0.8-0.6-1.5-0.6c-0.5,0-0.9,0.1-1.2,0.3s-0.6,0.5-0.8,0.9s-0.3,0.9-0.3,1.4v4.8H274v-8.4h1.3v1.2c0.3-0.5,0.6-0.8,1-1.1
		c0.4-0.2,0.9-0.4,1.5-0.4c0.6,0,1.2,0.1,1.6,0.4c0.5,0.3,0.8,0.7,1.1,1.2c0.3-0.5,0.7-0.9,1.2-1.2c0.5-0.3,1-0.4,1.7-0.4
		C284,297.7,284.5,297.9,284.9,298.2z"/>
	<path class="st0" d="M296,302.5h-6.7c0,0.6,0.2,1.1,0.5,1.5c0.3,0.4,0.6,0.8,1,1s0.9,0.4,1.4,0.4c0.4,0,0.7-0.1,1-0.2
		c0.3-0.1,0.6-0.3,0.8-0.5s0.4-0.4,0.5-0.7h1.3c-0.1,0.5-0.3,0.9-0.7,1.2c-0.4,0.4-0.8,0.7-1.3,0.9c-0.5,0.2-1.1,0.3-1.7,0.3
		c-0.8,0-1.5-0.2-2.1-0.6c-0.6-0.4-1.1-0.9-1.5-1.6c-0.4-0.7-0.5-1.4-0.5-2.3c0-0.8,0.2-1.6,0.5-2.2c0.4-0.7,0.8-1.2,1.5-1.6
		c0.6-0.4,1.3-0.6,2.1-0.6c0.7,0,1.4,0.2,2,0.6c0.6,0.4,1.1,0.9,1.4,1.6c0.3,0.7,0.5,1.4,0.5,2.3V302.5z M290.3,299.6
		c-0.5,0.4-0.8,1-0.9,1.8h5.3c-0.1-0.8-0.4-1.4-0.8-1.8c-0.4-0.4-1-0.7-1.7-0.7C291.4,298.9,290.8,299.1,290.3,299.6z"/>
	<path class="st0" d="M303.4,298.2c0.5,0.3,0.8,0.7,1.1,1.2c0.3,0.5,0.4,1.1,0.4,1.7v5.3h-1.3v-5.2c0-0.7-0.2-1.3-0.6-1.7
		s-0.9-0.6-1.5-0.6c-0.5,0-0.9,0.1-1.2,0.3s-0.6,0.5-0.8,0.9c-0.2,0.4-0.3,0.8-0.3,1.3v5h-1.3v-8.4h1.3v1.3c0.3-0.5,0.6-0.9,1.1-1.1
		c0.5-0.2,1-0.4,1.6-0.4C302.4,297.7,303,297.9,303.4,298.2z"/>
	<path class="st0" d="M309.5,306.4c-0.6,0-1.1-0.2-1.4-0.5c-0.4-0.3-0.5-0.8-0.5-1.3l0-5.4H306l0-1.2h0.9c0.2,0,0.4-0.1,0.5-0.2
		c0.1-0.1,0.2-0.3,0.2-0.5v-1.4h1.2v2.1h2l0,1.2h-2l0,5.3c0,0.2,0.1,0.4,0.2,0.5c0.1,0.1,0.3,0.2,0.5,0.2h1.3v1.2H309.5z"/>
	<path class="st0" d="M322.8,298.3c0.6,0.4,1.1,0.9,1.5,1.6s0.5,1.4,0.5,2.2c0,0.8-0.2,1.6-0.5,2.2s-0.8,1.2-1.5,1.6
		c-0.6,0.4-1.3,0.6-2.1,0.6c-0.6,0-1.2-0.1-1.7-0.4c-0.5-0.3-0.9-0.7-1.3-1.2v1.4h-1.3v-8.4h0v-3.1h1.3l0,4.5
		c0.3-0.5,0.7-0.9,1.3-1.2c0.5-0.3,1.1-0.4,1.7-0.4C321.5,297.7,322.1,297.9,322.8,298.3z M322,305c0.4-0.3,0.8-0.7,1-1.2
		c0.2-0.5,0.4-1,0.4-1.6s-0.1-1.2-0.4-1.6c-0.2-0.5-0.6-0.9-1-1.2c-0.4-0.3-0.9-0.4-1.4-0.4c-0.5,0-1,0.1-1.4,0.4
		c-0.4,0.3-0.8,0.7-1,1.2c-0.2,0.5-0.4,1-0.4,1.6s0.1,1.2,0.4,1.6c0.2,0.5,0.6,0.9,1,1.2c0.4,0.3,0.9,0.4,1.4,0.4
		C321.1,305.4,321.6,305.2,322,305z"/>
	<path class="st0" d="M333.9,302.5h-6.7c0,0.6,0.2,1.1,0.5,1.5c0.3,0.4,0.6,0.8,1,1s0.9,0.4,1.4,0.4c0.4,0,0.7-0.1,1-0.2
		c0.3-0.1,0.6-0.3,0.8-0.5s0.4-0.4,0.5-0.7h1.3c-0.1,0.5-0.3,0.9-0.7,1.2c-0.4,0.4-0.8,0.7-1.3,0.9c-0.5,0.2-1.1,0.3-1.7,0.3
		c-0.8,0-1.5-0.2-2.1-0.6c-0.6-0.4-1.1-0.9-1.5-1.6c-0.4-0.7-0.5-1.4-0.5-2.3c0-0.8,0.2-1.6,0.5-2.2c0.4-0.7,0.8-1.2,1.5-1.6
		c0.6-0.4,1.3-0.6,2.1-0.6c0.7,0,1.4,0.2,2,0.6c0.6,0.4,1.1,0.9,1.4,1.6c0.3,0.7,0.5,1.4,0.5,2.3V302.5z M328.2,299.6
		c-0.5,0.4-0.8,1-0.9,1.8h5.3c-0.1-0.8-0.4-1.4-0.8-1.8c-0.4-0.4-1-0.7-1.7-0.7C329.3,298.9,328.7,299.1,328.2,299.6z"/>
	<path class="st0" d="M341.3,298.2c0.5,0.3,0.8,0.7,1.1,1.2c0.3,0.5,0.4,1.1,0.4,1.7v5.3h-1.3v-5.2c0-0.7-0.2-1.3-0.6-1.7
		s-0.9-0.6-1.5-0.6c-0.5,0-0.9,0.1-1.2,0.3s-0.6,0.5-0.8,0.9c-0.2,0.4-0.3,0.8-0.3,1.3v5h-1.3v-8.4h1.3v1.3c0.3-0.5,0.6-0.9,1.1-1.1
		c0.5-0.2,1-0.4,1.6-0.4C340.3,297.7,340.8,297.9,341.3,298.2z"/>
	<path class="st0" d="M352.4,302.5h-6.7c0,0.6,0.2,1.1,0.5,1.5c0.3,0.4,0.6,0.8,1,1s0.9,0.4,1.4,0.4c0.4,0,0.7-0.1,1-0.2
		c0.3-0.1,0.6-0.3,0.8-0.5s0.4-0.4,0.5-0.7h1.3c-0.1,0.5-0.3,0.9-0.7,1.2c-0.4,0.4-0.8,0.7-1.3,0.9c-0.5,0.2-1.1,0.3-1.7,0.3
		c-0.8,0-1.5-0.2-2.1-0.6c-0.6-0.4-1.1-0.9-1.5-1.6c-0.4-0.7-0.5-1.4-0.5-2.3c0-0.8,0.2-1.6,0.5-2.2c0.4-0.7,0.8-1.2,1.5-1.6
		c0.6-0.4,1.3-0.6,2.1-0.6c0.7,0,1.4,0.2,2,0.6c0.6,0.4,1.1,0.9,1.4,1.6c0.3,0.7,0.5,1.4,0.5,2.3V302.5z M346.7,299.6
		c-0.5,0.4-0.8,1-0.9,1.8h5.3c-0.1-0.8-0.4-1.4-0.8-1.8c-0.4-0.4-1-0.7-1.7-0.7C347.8,298.9,347.2,299.1,346.7,299.6z"/>
	<path class="st0" d="M354.6,306.4v-7.2h-1.5v-1.2h1.5v-1.3c0-0.6,0.2-1,0.5-1.3c0.3-0.3,0.8-0.5,1.4-0.5h1.5v1.2h-1.4
		c-0.2,0-0.4,0.1-0.5,0.2s-0.2,0.3-0.2,0.5v1.2h2.1v1.2h-2.1v7.2H354.6z"/>
	<path class="st0" d="M359.7,296.4v-1.6h1.5v1.6H359.7z M361.1,306.4h-1.3v-8.4h1.3V306.4z"/>
	<path class="st0" d="M365.9,306.4c-0.6,0-1.1-0.2-1.4-0.5c-0.4-0.3-0.5-0.8-0.5-1.3l0-5.4h-1.5l0-1.2h0.9c0.2,0,0.4-0.1,0.5-0.2
		c0.1-0.1,0.2-0.3,0.2-0.5v-1.4h1.2v2.1h2l0,1.2h-2l0,5.3c0,0.2,0.1,0.4,0.2,0.5c0.1,0.1,0.3,0.2,0.5,0.2h1.3v1.2H365.9z"/>
	<path class="st0" d="M370.1,306.2c-0.5-0.2-0.9-0.5-1.2-0.9c-0.3-0.4-0.4-0.8-0.4-1.3h1.3c0,0.3,0.1,0.5,0.3,0.8
		c0.2,0.2,0.4,0.4,0.7,0.5c0.3,0.1,0.7,0.2,1.1,0.2c0.6,0,1.1-0.1,1.5-0.4c0.3-0.3,0.5-0.6,0.5-1.1c0-0.4-0.1-0.6-0.3-0.9
		s-0.5-0.4-0.9-0.4l-1.5-0.2c-0.7-0.1-1.3-0.4-1.7-0.8c-0.4-0.4-0.6-0.9-0.6-1.6c0-0.5,0.1-0.9,0.4-1.2c0.3-0.4,0.6-0.6,1.1-0.8
		c0.5-0.2,1-0.3,1.6-0.3c0.6,0,1.1,0.1,1.6,0.3c0.5,0.2,0.9,0.5,1.1,0.8s0.4,0.8,0.4,1.2h-1.3c0-0.2-0.1-0.5-0.3-0.7
		c-0.2-0.2-0.4-0.4-0.7-0.5c-0.3-0.1-0.6-0.2-1-0.2c-0.3,0-0.6,0.1-0.9,0.2c-0.3,0.1-0.5,0.3-0.6,0.4s-0.2,0.4-0.2,0.7
		c0,0.3,0.1,0.6,0.3,0.8c0.2,0.2,0.5,0.3,0.9,0.4l1.6,0.3c0.8,0.1,1.4,0.4,1.8,0.8c0.4,0.4,0.6,1,0.6,1.6c0,0.5-0.1,1-0.4,1.4
		c-0.3,0.4-0.6,0.7-1.1,0.9c-0.5,0.2-1,0.3-1.7,0.3C371.2,306.6,370.6,306.4,370.1,306.2z"/>
</g>
</svg>
