<?xml version="1.0" encoding="utf-8"?>
<!-- Generator: Adobe Illustrator 22.0.1, SVG Export Plug-In . SVG Version: 6.00 Build 0)  -->
<svg version="1.1" xmlns="http://www.w3.org/2000/svg" xmlns:xlink="http://www.w3.org/1999/xlink" x="0px" y="0px" width="26px"
	 height="26px" viewBox="0 0 26 26" enable-background="new 0 0 26 26" xml:space="preserve">
<g id="gray40" display="none">
	<g id="Layer_2_27_" display="inline">
		<path fill="#282828" d="M19.2,5.8h-3.5c-0.4,0-0.9,0.6-0.9,1.3v2.5h4.4v3.5h-4.4V24h-4.1V13.1H6.8V9.6h3.7V7.4
			c0-3.1,2.1-5.4,5-5.4H19v3.8H19.2z"/>
	</g>
</g>
<g id="gray80" display="none">
	<g id="Layer_2_22_" display="inline">
		<path fill="#505050" d="M19.2,5.8h-3.5c-0.4,0-0.9,0.6-0.9,1.3v2.5h4.4v3.5h-4.4V24h-4.1V13.1H6.8V9.6h3.7V7.4
			c0-3.1,2.1-5.4,5-5.4H19v3.8H19.2z"/>
	</g>
</g>
<g id="gray180" display="none">
	<g id="Layer_2_17_" display="inline">
		<path fill="#B4B4B4" d="M19.2,5.8h-3.5c-0.4,0-0.9,0.6-0.9,1.3v2.5h4.4v3.5h-4.4V24h-4.1V13.1H6.8V9.6h3.7V7.4
			c0-3.1,2.1-5.4,5-5.4H19v3.8H19.2z"/>
	</g>
</g>
<g id="gray230" display="none">
	<g id="Layer_2_12_" display="inline">
		<path fill="#E6E6E6" d="M19.2,5.8h-3.5c-0.4,0-0.9,0.6-0.9,1.3v2.5h4.4v3.5h-4.4V24h-4.1V13.1H6.8V9.6h3.7V7.4
			c0-3.1,2.1-5.4,5-5.4H19v3.8H19.2z"/>
	</g>
</g>
<g id="white">
	<g id="Layer_2_7_">
		<path fill="#FFFFFF" d="M19.2,5.8h-3.5c-0.4,0-0.9,0.6-0.9,1.3v2.5h4.4v3.5h-4.4V24h-4.1V13.1H6.8V9.6h3.7V7.4
			c0-3.1,2.1-5.4,5-5.4H19v3.8H19.2z"/>
	</g>
</g>
<g id="red" display="none">
	<g id="Layer_2_2_" display="inline">
		<path fill="#DC1E32" d="M19.2,5.8h-3.5c-0.4,0-0.9,0.6-0.9,1.3v2.5h4.4v3.5h-4.4V24h-4.1V13.1H6.8V9.6h3.7V7.4
			c0-3.1,2.1-5.4,5-5.4H19v3.8H19.2z"/>
	</g>
</g>
</svg>
