<?xml version="1.0" encoding="utf-8"?>
<!-- Generator: Adobe Illustrator 22.0.1, SVG Export Plug-In . SVG Version: 6.00 Build 0)  -->
<svg version="1.1" xmlns="http://www.w3.org/2000/svg" xmlns:xlink="http://www.w3.org/1999/xlink" x="0px" y="0px" width="26px"
	 height="26px" viewBox="0 0 26 26" enable-background="new 0 0 26 26" xml:space="preserve">
<g id="gray40">
	<g id="Layer_2_29_">
		<path fill="#282828" d="M23.9,8.5c-0.1-1.2-0.2-2-0.5-2.7s-0.7-1.3-1.3-1.9c-0.6-0.6-1.2-1-1.9-1.3c-0.7-0.3-1.5-0.5-2.7-0.5
			C16.4,2,16,2,13,2S9.6,2,8.5,2.1c-1.2,0.1-2,0.2-2.7,0.5c-0.7,0.3-1.3,0.6-2,1.2C3.2,4.4,2.8,5,2.5,5.7C2.3,6.5,2.1,7.3,2.1,8.5
			C2,9.6,2,10,2,13s0,3.4,0.1,4.5c0.1,1.2,0.2,2,0.5,2.7c0.3,0.7,0.7,1.3,1.3,1.9s1.2,1,1.9,1.3s1.5,0.5,2.7,0.5C9.6,24,10,24,13,24
			s3.4,0,4.5-0.1c1.2-0.1,2-0.2,2.7-0.5s1.3-0.7,1.9-1.3c0.6-0.6,1-1.2,1.3-1.9c0.3-0.7,0.5-1.5,0.5-2.7C24,16.4,24,16,24,13
			S24,9.6,23.9,8.5z M22,17.4c0,1.1-0.2,1.7-0.4,2c-0.2,0.5-0.4,0.9-0.8,1.3s-0.8,0.6-1.3,0.8c-0.4,0.2-1,0.3-2,0.4
			C16.3,22,15.9,22,13,22s-3.3,0-4.4,0s-1.7-0.2-2-0.4c-0.5-0.2-0.9-0.4-1.3-0.8c-0.4-0.4-0.6-0.8-0.8-1.3c-0.2-0.4-0.3-1-0.4-2
			C4,16.3,4,15.9,4,13s0-3.3,0-4.4s0.2-1.7,0.4-2c0.2-0.6,0.5-1,0.8-1.4C5.6,4.9,6,4.6,6.5,4.4c0.4-0.2,1-0.3,2-0.4
			c1.2,0,1.6,0,4.5,0s3.3,0,4.4,0.1c1.1,0,1.7,0.2,2,0.4c0.5,0.2,0.9,0.4,1.3,0.8s0.6,0.8,0.8,1.3c0.2,0.4,0.3,1,0.4,2
			C22,9.7,22,10.1,22,13S22,16.3,22,17.4z M18.9,8.4c-0.7,0-1.3-0.6-1.3-1.3s0.6-1.3,1.3-1.3c0.7,0,1.3,0.6,1.3,1.3
			C20.2,7.9,19.6,8.4,18.9,8.4z M13,7.4c-3.1,0-5.6,2.5-5.6,5.6s2.5,5.6,5.6,5.6s5.6-2.5,5.6-5.6S16.1,7.4,13,7.4z M13,16.7
			c-2,0-3.7-1.6-3.7-3.7c0-2,1.6-3.7,3.7-3.7c2,0,3.7,1.6,3.7,3.7C16.7,15,15,16.7,13,16.7z"/>
	</g>
</g>
<g id="gray80" display="none">
	<g id="Layer_2_24_" display="inline">
		<path fill="#505050" d="M23.9,8.5c-0.1-1.2-0.2-2-0.5-2.7s-0.7-1.3-1.3-1.9c-0.6-0.6-1.2-1-1.9-1.3c-0.7-0.3-1.5-0.5-2.7-0.5
			C16.4,2,16,2,13,2S9.6,2,8.5,2.1c-1.2,0.1-2,0.2-2.7,0.5c-0.7,0.3-1.3,0.6-2,1.2C3.2,4.4,2.8,5,2.5,5.7C2.3,6.5,2.1,7.3,2.1,8.5
			C2,9.6,2,10,2,13s0,3.4,0.1,4.5c0.1,1.2,0.2,2,0.5,2.7c0.3,0.7,0.7,1.3,1.3,1.9s1.2,1,1.9,1.3s1.5,0.5,2.7,0.5C9.6,24,10,24,13,24
			s3.4,0,4.5-0.1c1.2-0.1,2-0.2,2.7-0.5s1.3-0.7,1.9-1.3c0.6-0.6,1-1.2,1.3-1.9c0.3-0.7,0.5-1.5,0.5-2.7C24,16.4,24,16,24,13
			S24,9.6,23.9,8.5z M22,17.4c0,1.1-0.2,1.7-0.4,2c-0.2,0.5-0.4,0.9-0.8,1.3s-0.8,0.6-1.3,0.8c-0.4,0.2-1,0.3-2,0.4
			C16.3,22,15.9,22,13,22s-3.3,0-4.4,0s-1.7-0.2-2-0.4c-0.5-0.2-0.9-0.4-1.3-0.8c-0.4-0.4-0.6-0.8-0.8-1.3c-0.2-0.4-0.3-1-0.4-2
			C4,16.3,4,15.9,4,13s0-3.3,0-4.4s0.2-1.7,0.4-2c0.2-0.6,0.5-1,0.8-1.4C5.6,4.9,6,4.6,6.5,4.4c0.4-0.2,1-0.3,2-0.4
			c1.2,0,1.6,0,4.5,0s3.3,0,4.4,0.1c1.1,0,1.7,0.2,2,0.4c0.5,0.2,0.9,0.4,1.3,0.8s0.6,0.8,0.8,1.3c0.2,0.4,0.3,1,0.4,2
			C22,9.7,22,10.1,22,13S22,16.3,22,17.4z M18.9,8.4c-0.7,0-1.3-0.6-1.3-1.3s0.6-1.3,1.3-1.3c0.7,0,1.3,0.6,1.3,1.3
			C20.2,7.9,19.6,8.4,18.9,8.4z M13,7.4c-3.1,0-5.6,2.5-5.6,5.6s2.5,5.6,5.6,5.6s5.6-2.5,5.6-5.6S16.1,7.4,13,7.4z M13,16.7
			c-2,0-3.7-1.6-3.7-3.7c0-2,1.6-3.7,3.7-3.7c2,0,3.7,1.6,3.7,3.7C16.7,15,15,16.7,13,16.7z"/>
	</g>
</g>
<g id="gray180" display="none">
	<g id="Layer_2_19_" display="inline">
		<path fill="#B4B4B4" d="M23.9,8.5c-0.1-1.2-0.2-2-0.5-2.7s-0.7-1.3-1.3-1.9c-0.6-0.6-1.2-1-1.9-1.3c-0.7-0.3-1.5-0.5-2.7-0.5
			C16.4,2,16,2,13,2S9.6,2,8.5,2.1c-1.2,0.1-2,0.2-2.7,0.5c-0.7,0.3-1.3,0.6-2,1.2C3.2,4.4,2.8,5,2.5,5.7C2.3,6.5,2.1,7.3,2.1,8.5
			C2,9.6,2,10,2,13s0,3.4,0.1,4.5c0.1,1.2,0.2,2,0.5,2.7c0.3,0.7,0.7,1.3,1.3,1.9s1.2,1,1.9,1.3s1.5,0.5,2.7,0.5C9.6,24,10,24,13,24
			s3.4,0,4.5-0.1c1.2-0.1,2-0.2,2.7-0.5s1.3-0.7,1.9-1.3c0.6-0.6,1-1.2,1.3-1.9c0.3-0.7,0.5-1.5,0.5-2.7C24,16.4,24,16,24,13
			S24,9.6,23.9,8.5z M22,17.4c0,1.1-0.2,1.7-0.4,2c-0.2,0.5-0.4,0.9-0.8,1.3s-0.8,0.6-1.3,0.8c-0.4,0.2-1,0.3-2,0.4
			C16.3,22,15.9,22,13,22s-3.3,0-4.4,0s-1.7-0.2-2-0.4c-0.5-0.2-0.9-0.4-1.3-0.8c-0.4-0.4-0.6-0.8-0.8-1.3c-0.2-0.4-0.3-1-0.4-2
			C4,16.3,4,15.9,4,13s0-3.3,0-4.4s0.2-1.7,0.4-2c0.2-0.6,0.5-1,0.8-1.4C5.6,4.9,6,4.6,6.5,4.4c0.4-0.2,1-0.3,2-0.4
			c1.2,0,1.6,0,4.5,0s3.3,0,4.4,0.1c1.1,0,1.7,0.2,2,0.4c0.5,0.2,0.9,0.4,1.3,0.8s0.6,0.8,0.8,1.3c0.2,0.4,0.3,1,0.4,2
			C22,9.7,22,10.1,22,13S22,16.3,22,17.4z M18.9,8.4c-0.7,0-1.3-0.6-1.3-1.3s0.6-1.3,1.3-1.3c0.7,0,1.3,0.6,1.3,1.3
			C20.2,7.9,19.6,8.4,18.9,8.4z M13,7.4c-3.1,0-5.6,2.5-5.6,5.6s2.5,5.6,5.6,5.6s5.6-2.5,5.6-5.6S16.1,7.4,13,7.4z M13,16.7
			c-2,0-3.7-1.6-3.7-3.7c0-2,1.6-3.7,3.7-3.7c2,0,3.7,1.6,3.7,3.7C16.7,15,15,16.7,13,16.7z"/>
	</g>
</g>
<g id="gray230" display="none">
	<g id="Layer_2_14_" display="inline">
		<path fill="#E6E6E6" d="M23.9,8.5c-0.1-1.2-0.2-2-0.5-2.7s-0.7-1.3-1.3-1.9c-0.6-0.6-1.2-1-1.9-1.3c-0.7-0.3-1.5-0.5-2.7-0.5
			C16.4,2,16,2,13,2S9.6,2,8.5,2.1c-1.2,0.1-2,0.2-2.7,0.5c-0.7,0.3-1.3,0.6-2,1.2C3.2,4.4,2.8,5,2.5,5.7C2.3,6.5,2.1,7.3,2.1,8.5
			C2,9.6,2,10,2,13s0,3.4,0.1,4.5c0.1,1.2,0.2,2,0.5,2.7c0.3,0.7,0.7,1.3,1.3,1.9s1.2,1,1.9,1.3s1.5,0.5,2.7,0.5C9.6,24,10,24,13,24
			s3.4,0,4.5-0.1c1.2-0.1,2-0.2,2.7-0.5s1.3-0.7,1.9-1.3c0.6-0.6,1-1.2,1.3-1.9c0.3-0.7,0.5-1.5,0.5-2.7C24,16.4,24,16,24,13
			S24,9.6,23.9,8.5z M22,17.4c0,1.1-0.2,1.7-0.4,2c-0.2,0.5-0.4,0.9-0.8,1.3s-0.8,0.6-1.3,0.8c-0.4,0.2-1,0.3-2,0.4
			C16.3,22,15.9,22,13,22s-3.3,0-4.4,0s-1.7-0.2-2-0.4c-0.5-0.2-0.9-0.4-1.3-0.8c-0.4-0.4-0.6-0.8-0.8-1.3c-0.2-0.4-0.3-1-0.4-2
			C4,16.3,4,15.9,4,13s0-3.3,0-4.4s0.2-1.7,0.4-2c0.2-0.6,0.5-1,0.8-1.4C5.6,4.9,6,4.6,6.5,4.4c0.4-0.2,1-0.3,2-0.4
			c1.2,0,1.6,0,4.5,0s3.3,0,4.4,0.1c1.1,0,1.7,0.2,2,0.4c0.5,0.2,0.9,0.4,1.3,0.8s0.6,0.8,0.8,1.3c0.2,0.4,0.3,1,0.4,2
			C22,9.7,22,10.1,22,13S22,16.3,22,17.4z M18.9,8.4c-0.7,0-1.3-0.6-1.3-1.3s0.6-1.3,1.3-1.3c0.7,0,1.3,0.6,1.3,1.3
			C20.2,7.9,19.6,8.4,18.9,8.4z M13,7.4c-3.1,0-5.6,2.5-5.6,5.6s2.5,5.6,5.6,5.6s5.6-2.5,5.6-5.6S16.1,7.4,13,7.4z M13,16.7
			c-2,0-3.7-1.6-3.7-3.7c0-2,1.6-3.7,3.7-3.7c2,0,3.7,1.6,3.7,3.7C16.7,15,15,16.7,13,16.7z"/>
	</g>
</g>
<g id="white" display="none">
	<g id="Layer_2_9_" display="inline">
		<path fill="#FFFFFF" d="M23.9,8.5c-0.1-1.2-0.2-2-0.5-2.7s-0.7-1.3-1.3-1.9c-0.6-0.6-1.2-1-1.9-1.3c-0.7-0.3-1.5-0.5-2.7-0.5
			C16.4,2,16,2,13,2S9.6,2,8.5,2.1c-1.2,0.1-2,0.2-2.7,0.5c-0.7,0.3-1.3,0.6-2,1.2C3.2,4.4,2.8,5,2.5,5.7C2.3,6.5,2.1,7.3,2.1,8.5
			C2,9.6,2,10,2,13s0,3.4,0.1,4.5c0.1,1.2,0.2,2,0.5,2.7c0.3,0.7,0.7,1.3,1.3,1.9s1.2,1,1.9,1.3s1.5,0.5,2.7,0.5C9.6,24,10,24,13,24
			s3.4,0,4.5-0.1c1.2-0.1,2-0.2,2.7-0.5s1.3-0.7,1.9-1.3c0.6-0.6,1-1.2,1.3-1.9c0.3-0.7,0.5-1.5,0.5-2.7C24,16.4,24,16,24,13
			S24,9.6,23.9,8.5z M22,17.4c0,1.1-0.2,1.7-0.4,2c-0.2,0.5-0.4,0.9-0.8,1.3s-0.8,0.6-1.3,0.8c-0.4,0.2-1,0.3-2,0.4
			C16.3,22,15.9,22,13,22s-3.3,0-4.4,0s-1.7-0.2-2-0.4c-0.5-0.2-0.9-0.4-1.3-0.8c-0.4-0.4-0.6-0.8-0.8-1.3c-0.2-0.4-0.3-1-0.4-2
			C4,16.3,4,15.9,4,13s0-3.3,0-4.4s0.2-1.7,0.4-2c0.2-0.6,0.5-1,0.8-1.4C5.6,4.9,6,4.6,6.5,4.4c0.4-0.2,1-0.3,2-0.4
			c1.2,0,1.6,0,4.5,0s3.3,0,4.4,0.1c1.1,0,1.7,0.2,2,0.4c0.5,0.2,0.9,0.4,1.3,0.8s0.6,0.8,0.8,1.3c0.2,0.4,0.3,1,0.4,2
			C22,9.7,22,10.1,22,13S22,16.3,22,17.4z M18.9,8.4c-0.7,0-1.3-0.6-1.3-1.3s0.6-1.3,1.3-1.3c0.7,0,1.3,0.6,1.3,1.3
			C20.2,7.9,19.6,8.4,18.9,8.4z M13,7.4c-3.1,0-5.6,2.5-5.6,5.6s2.5,5.6,5.6,5.6s5.6-2.5,5.6-5.6S16.1,7.4,13,7.4z M13,16.7
			c-2,0-3.7-1.6-3.7-3.7c0-2,1.6-3.7,3.7-3.7c2,0,3.7,1.6,3.7,3.7C16.7,15,15,16.7,13,16.7z"/>
	</g>
</g>
<g id="red" display="none">
	<g id="Layer_2_4_" display="inline">
		<path fill="#DC1E32" d="M23.9,8.5c-0.1-1.2-0.2-2-0.5-2.7s-0.7-1.3-1.3-1.9c-0.6-0.6-1.2-1-1.9-1.3c-0.7-0.3-1.5-0.5-2.7-0.5
			C16.4,2,16,2,13,2S9.6,2,8.5,2.1c-1.2,0.1-2,0.2-2.7,0.5c-0.7,0.3-1.3,0.6-2,1.2C3.2,4.4,2.8,5,2.5,5.7C2.3,6.5,2.1,7.3,2.1,8.5
			C2,9.6,2,10,2,13s0,3.4,0.1,4.5c0.1,1.2,0.2,2,0.5,2.7c0.3,0.7,0.7,1.3,1.3,1.9s1.2,1,1.9,1.3s1.5,0.5,2.7,0.5C9.6,24,10,24,13,24
			s3.4,0,4.5-0.1c1.2-0.1,2-0.2,2.7-0.5s1.3-0.7,1.9-1.3c0.6-0.6,1-1.2,1.3-1.9c0.3-0.7,0.5-1.5,0.5-2.7C24,16.4,24,16,24,13
			S24,9.6,23.9,8.5z M22,17.4c0,1.1-0.2,1.7-0.4,2c-0.2,0.5-0.4,0.9-0.8,1.3s-0.8,0.6-1.3,0.8c-0.4,0.2-1,0.3-2,0.4
			C16.3,22,15.9,22,13,22s-3.3,0-4.4,0s-1.7-0.2-2-0.4c-0.5-0.2-0.9-0.4-1.3-0.8c-0.4-0.4-0.6-0.8-0.8-1.3c-0.2-0.4-0.3-1-0.4-2
			C4,16.3,4,15.9,4,13s0-3.3,0-4.4s0.2-1.7,0.4-2c0.2-0.6,0.5-1,0.8-1.4C5.6,4.9,6,4.6,6.5,4.4c0.4-0.2,1-0.3,2-0.4
			c1.2,0,1.6,0,4.5,0s3.3,0,4.4,0.1c1.1,0,1.7,0.2,2,0.4c0.5,0.2,0.9,0.4,1.3,0.8s0.6,0.8,0.8,1.3c0.2,0.4,0.3,1,0.4,2
			C22,9.7,22,10.1,22,13S22,16.3,22,17.4z M18.9,8.4c-0.7,0-1.3-0.6-1.3-1.3s0.6-1.3,1.3-1.3c0.7,0,1.3,0.6,1.3,1.3
			C20.2,7.9,19.6,8.4,18.9,8.4z M13,7.4c-3.1,0-5.6,2.5-5.6,5.6s2.5,5.6,5.6,5.6s5.6-2.5,5.6-5.6S16.1,7.4,13,7.4z M13,16.7
			c-2,0-3.7-1.6-3.7-3.7c0-2,1.6-3.7,3.7-3.7c2,0,3.7,1.6,3.7,3.7C16.7,15,15,16.7,13,16.7z"/>
	</g>
</g>
</svg>
