<?xml version="1.0" encoding="utf-8"?>
<!-- Generator: Adobe Illustrator 22.0.1, SVG Export Plug-In . SVG Version: 6.00 Build 0)  -->
<svg version="1.1" xmlns="http://www.w3.org/2000/svg" xmlns:xlink="http://www.w3.org/1999/xlink" x="0px" y="0px" width="26px"
	 height="26px" viewBox="0 0 26 26" enable-background="new 0 0 26 26" xml:space="preserve">
<g id="gray40">
	<g id="Layer_2_28_">
		<path fill="#282828" d="M7.4,23H3.2V9.7h4.1V23H7.4z M5.3,7.8c-1.3,0-2.4-1-2.4-2.4C2.9,4.1,4,3,5.3,3s2.4,1.1,2.4,2.4
			C7.8,6.8,6.6,7.8,5.3,7.8z M23,23h-4.1v-6.5c0-1.5,0-3.5-2.2-3.5s-2.5,1.7-2.5,3.4V23h-4.1V9.7h4v1.8h0.1c0.6-1,1.9-2.2,3.9-2.2
			c4.2,0,5,2.8,5,6.3L23,23L23,23z"/>
	</g>
</g>
<g id="gray80" display="none">
	<g id="Layer_2_23_" display="inline">
		<path fill="#505050" d="M7.4,23H3.2V9.7h4.1V23H7.4z M5.3,7.8c-1.3,0-2.4-1-2.4-2.4C2.9,4.1,4,3,5.3,3s2.4,1.1,2.4,2.4
			C7.8,6.8,6.6,7.8,5.3,7.8z M23,23h-4.1v-6.5c0-1.5,0-3.5-2.2-3.5s-2.5,1.7-2.5,3.4V23h-4.1V9.7h4v1.8h0.1c0.6-1,1.9-2.2,3.9-2.2
			c4.2,0,5,2.8,5,6.3L23,23L23,23z"/>
	</g>
</g>
<g id="gray180" display="none">
	<g id="Layer_2_18_" display="inline">
		<path fill="#B4B4B4" d="M7.4,23H3.2V9.7h4.1V23H7.4z M5.3,7.8c-1.3,0-2.4-1-2.4-2.4C2.9,4.1,4,3,5.3,3s2.4,1.1,2.4,2.4
			C7.8,6.8,6.6,7.8,5.3,7.8z M23,23h-4.1v-6.5c0-1.5,0-3.5-2.2-3.5s-2.5,1.7-2.5,3.4V23h-4.1V9.7h4v1.8h0.1c0.6-1,1.9-2.2,3.9-2.2
			c4.2,0,5,2.8,5,6.3L23,23L23,23z"/>
	</g>
</g>
<g id="gray230" display="none">
	<g id="Layer_2_13_" display="inline">
		<path fill="#E6E6E6" d="M7.4,23H3.2V9.7h4.1V23H7.4z M5.3,7.8c-1.3,0-2.4-1-2.4-2.4C2.9,4.1,4,3,5.3,3s2.4,1.1,2.4,2.4
			C7.8,6.8,6.6,7.8,5.3,7.8z M23,23h-4.1v-6.5c0-1.5,0-3.5-2.2-3.5s-2.5,1.7-2.5,3.4V23h-4.1V9.7h4v1.8h0.1c0.6-1,1.9-2.2,3.9-2.2
			c4.2,0,5,2.8,5,6.3L23,23L23,23z"/>
	</g>
</g>
<g id="white" display="none">
	<g id="Layer_2_8_" display="inline">
		<path fill="#FFFFFF" d="M7.4,23H3.2V9.7h4.1V23H7.4z M5.3,7.8c-1.3,0-2.4-1-2.4-2.4C2.9,4.1,4,3,5.3,3s2.4,1.1,2.4,2.4
			C7.8,6.8,6.6,7.8,5.3,7.8z M23,23h-4.1v-6.5c0-1.5,0-3.5-2.2-3.5s-2.5,1.7-2.5,3.4V23h-4.1V9.7h4v1.8h0.1c0.6-1,1.9-2.2,3.9-2.2
			c4.2,0,5,2.8,5,6.3L23,23L23,23z"/>
	</g>
</g>
<g id="red" display="none">
	<g id="Layer_2_3_" display="inline">
		<path fill="#DC1E32" d="M7.4,23H3.2V9.7h4.1V23H7.4z M5.3,7.8c-1.3,0-2.4-1-2.4-2.4C2.9,4.1,4,3,5.3,3s2.4,1.1,2.4,2.4
			C7.8,6.8,6.6,7.8,5.3,7.8z M23,23h-4.1v-6.5c0-1.5,0-3.5-2.2-3.5s-2.5,1.7-2.5,3.4V23h-4.1V9.7h4v1.8h0.1c0.6-1,1.9-2.2,3.9-2.2
			c4.2,0,5,2.8,5,6.3L23,23L23,23z"/>
	</g>
</g>
</svg>
