<?xml version="1.0" encoding="utf-8"?>
<!-- Generator: Adobe Illustrator 22.0.1, SVG Export Plug-In . SVG Version: 6.00 Build 0)  -->
<svg version="1.1" xmlns="http://www.w3.org/2000/svg" xmlns:xlink="http://www.w3.org/1999/xlink" x="0px" y="0px" width="26px"
	 height="26px" viewBox="0 0 26 26" enable-background="new 0 0 26 26" xml:space="preserve">
<g id="gray40">
	<path fill="#282828" d="M9,20c0,1.7-1.3,3-3,3s-3-1.3-3-3s1.3-3,3-3S9,18.3,9,20z M3,9v4c5.5,0,10,4.5,10,10h4C17,15.3,10.7,9,3,9z
		 M3,3v4c8.8,0,16,7.2,16,16h4C23,12,14,3,3,3z"/>
</g>
<g id="gray80" display="none">
	<path display="inline" fill="#505050" d="M9,20c0,1.7-1.3,3-3,3s-3-1.3-3-3s1.3-3,3-3S9,18.3,9,20z M3,9v4c5.5,0,10,4.5,10,10h4
		C17,15.3,10.7,9,3,9z M3,3v4c8.8,0,16,7.2,16,16h4C23,12,14,3,3,3z"/>
</g>
<g id="gray180" display="none">
	<path display="inline" fill="#B4B4B4" d="M9,20c0,1.7-1.3,3-3,3s-3-1.3-3-3s1.3-3,3-3S9,18.3,9,20z M3,9v4c5.5,0,10,4.5,10,10h4
		C17,15.3,10.7,9,3,9z M3,3v4c8.8,0,16,7.2,16,16h4C23,12,14,3,3,3z"/>
</g>
<g id="gray230" display="none">
	<path display="inline" fill="#E6E6E6" d="M9,20c0,1.7-1.3,3-3,3s-3-1.3-3-3s1.3-3,3-3S9,18.3,9,20z M3,9v4c5.5,0,10,4.5,10,10h4
		C17,15.3,10.7,9,3,9z M3,3v4c8.8,0,16,7.2,16,16h4C23,12,14,3,3,3z"/>
</g>
<g id="white" display="none">
	<path display="inline" fill="#FFFFFF" d="M9,20c0,1.7-1.3,3-3,3s-3-1.3-3-3s1.3-3,3-3S9,18.3,9,20z M3,9v4c5.5,0,10,4.5,10,10h4
		C17,15.3,10.7,9,3,9z M3,3v4c8.8,0,16,7.2,16,16h4C23,12,14,3,3,3z"/>
</g>
<g id="red" display="none">
	<path display="inline" fill="#DC1E32" d="M9,20c0,1.7-1.3,3-3,3s-3-1.3-3-3s1.3-3,3-3S9,18.3,9,20z M3,9v4c5.5,0,10,4.5,10,10h4
		C17,15.3,10.7,9,3,9z M3,3v4c8.8,0,16,7.2,16,16h4C23,12,14,3,3,3z"/>
</g>
</svg>
