<?xml version="1.0" encoding="utf-8"?>
<!-- Generator: Adobe Illustrator 22.0.1, SVG Export Plug-In . SVG Version: 6.00 Build 0)  -->
<svg version="1.1" id="Layer_1" xmlns="http://www.w3.org/2000/svg" xmlns:xlink="http://www.w3.org/1999/xlink" x="0px" y="0px"
	 width="66px" height="14px" viewBox="0 0 66 14" enable-background="new 0 0 66 14" xml:space="preserve">
<path fill="#FFFFFF" d="M12.6,7c0-3.4,2.7-6.2,6.1-6.2s6.2,2.8,6.2,6.2c0,3.4-2.7,6.2-6.2,6.2C15.3,13.2,12.6,10.4,12.6,7 M22,7
	c0-1.8-1.4-3.4-3.3-3.4c-1.9,0-3.2,1.5-3.2,3.4c0,1.8,1.4,3.3,3.2,3.3C20.6,10.4,22,8.8,22,7 M27.4,13h8.1v-2.7h-5.2V1h-2.9V13z
	 M38.4,13h2.9V1h-2.9V13z M47.3,13h2.9V3.8h3.4V1h-9.7v2.7h3.4V13z M58,1h2.8l4.4,12h-2.9l-0.6-1.8h-4.6L56.4,13h-2.9L58,1z M58,8.7
	h2.8l-1.4-4L58,8.7z M0.8,10.8c1.1,1.4,2.7,2.4,5.4,2.4c2.6,0,4.6-1.7,4.6-3.9c0-2.6-2.1-3.2-3.9-3.6C5.4,5.3,4.4,5.1,4.4,4.4
	c0-0.5,0.5-1.1,1.4-1.1c1.4,0,2.2,0.4,3.1,1.4l1.8-1.7C9.4,1.6,8.1,0.8,5.9,0.8c-2.6,0-4.4,1.6-4.4,3.7c0,2.5,2,3.1,3.8,3.5
	C7,8.4,7.8,8.6,7.8,9.4c0,0.7-0.5,1.1-1.5,1.1c-1.6,0-2.6-0.4-3.6-1.6L0.8,10.8"/>
</svg>
