<?xml version="1.0" encoding="utf-8"?>
<!-- Generator: Adobe Illustrator 22.0.1, SVG Export Plug-In . SVG Version: 6.00 Build 0)  -->
<svg version="1.1" id="Layer_1" xmlns="http://www.w3.org/2000/svg" xmlns:xlink="http://www.w3.org/1999/xlink" x="0px" y="0px"
	 width="720px" height="720px" viewBox="0 0 720 720" enable-background="new 0 0 720 720" xml:space="preserve">
<g>
	<linearGradient id="SVGID_1_" gradientUnits="userSpaceOnUse" x1="720.0013" y1="-1.340043e-03" x2="-1.340043e-03" y2="720.0013">
		<stop  offset="0" style="stop-color:#E6E6E6"/>
		<stop  offset="1" style="stop-color:#B4B4B4"/>
	</linearGradient>
	<rect y="0" fill="url(#SVGID_1_)" width="720" height="720"/>
	<polygon opacity="0.5" fill="#FFFFFF" points="231.8,184.3 290.6,135.4 300.5,198.1 	"/>
	<polygon opacity="0.7" fill="#FFFFFF" points="267.9,293.5 300.5,198.1 231.8,184.3 	"/>
	<polygon opacity="0.5" fill="#FFFFFF" points="290.6,135.4 363.4,172 436.2,135.4 363.4,127.3 	"/>
	<polygon opacity="0.7" fill="#FFFFFF" points="324.9,302.4 300.5,198.1 363.4,172 	"/>
	<polygon opacity="0.6" fill="#FFFFFF" points="290.6,135.4 363.4,172 300.5,198.1 	"/>
	<polygon opacity="0.6" fill="#FFFFFF" points="231.8,184.3 213.6,254.5 243.6,314.1 267.9,293.5 	"/>
	<polygon opacity="0.8" fill="#FFFFFF" points="324.9,302.4 300.5,198.1 267.9,293.5 	"/>
	<polygon opacity="0.8" fill="#FFFFFF" points="401.9,302.4 324.9,302.4 363.4,172 	"/>
	<polygon opacity="0.8" fill="#FFFFFF" points="303.8,326.1 277.3,332 258.5,348.5 300.5,352 337.5,344.1 	"/>
	<polygon opacity="0.5" fill="#FFFFFF" points="350.4,338.5 376.3,338.5 363.4,302.4 	"/>
	<polygon opacity="0.8" fill="#FFFFFF" points="258.5,348.5 243.6,314.1 213.6,254.5 225.9,354.9 	"/>
	<polygon opacity="0.7" fill="#FFFFFF" points="201.3,328.8 201.3,371.1 213,406.2 225.9,354.9 	"/>
	<polygon opacity="0.5" fill="#FFFFFF" points="239.9,437 225.9,354.9 213,406.2 	"/>
	<polygon opacity="0.7" fill="#FFFFFF" points="293.1,393.7 258.5,348.5 225.9,354.9 	"/>
	<polygon opacity="0.8" fill="#FFFFFF" points="337.5,344.1 319.7,415.4 345.2,403.7 350.4,338.5 	"/>
	<polygon opacity="0.6" fill="#FFFFFF" points="324.9,302.4 363.4,302.4 350.4,338.5 	"/>
	<polygon opacity="0.7" fill="#FFFFFF" points="314.6,314.1 350.4,338.5 337.5,344.1 303.8,326.1 277.3,332 258.5,348.5 
		243.6,314.1 	"/>
	<polygon opacity="0.4" fill="#FFFFFF" points="267.9,293.5 324.9,302.4 350.4,338.5 314.6,314.1 243.6,314.1 	"/>
	<polygon opacity="0.5" fill="#FFFFFF" points="258.5,348.5 300.5,352 337.5,344.1 293.1,393.7 	"/>
	<polygon opacity="0.6" fill="#FFFFFF" points="222,322.5 225.9,354.9 201.3,328.8 	"/>
	<polygon opacity="0.7" fill="#FFFFFF" points="350.4,338.5 376.3,338.5 381.6,403.7 345.2,403.7 	"/>
	<polygon opacity="0.6" fill="#FFFFFF" points="329.4,423.5 345.2,425.4 363.4,440.1 347.7,442.3 323.3,431.6 	"/>
	<polygon opacity="0.6" fill="#FFFFFF" points="293.1,393.7 337.5,344.1 319.7,415.4 323.3,431.6 296.6,462 	"/>
	<polygon opacity="0.6" fill="#FFFFFF" points="345.2,403.7 363.4,440.1 381.6,403.7 	"/>
	<polygon opacity="0.6" fill="#FFFFFF" points="293.1,393.7 248.3,486.5 239.9,437 225.9,354.9 	"/>
	<polygon opacity="0.7" fill="#FFFFFF" points="347.7,442.3 344.9,473.4 363.4,474.3 363.4,440.1 	"/>
	<polygon opacity="0.7" fill="#FFFFFF" points="296.6,462 293.1,393.7 248.3,486.5 	"/>
	<polygon opacity="0.6" fill="#FFFFFF" points="301.7,550.5 311,484.7 296.6,462 248.3,486.5 	"/>
	<polygon opacity="0.7" fill="#FFFFFF" points="323.3,431.6 329.4,423.5 345.2,425.4 363.4,440.1 345.2,403.7 319.7,415.4 	"/>
	<polygon opacity="0.8" fill="#FFFFFF" points="311,484.7 344.9,473.4 347.7,442.3 323.3,431.6 296.6,462 	"/>
	<polygon opacity="0.5" fill="#FFFFFF" points="301.7,550.5 363.4,539 425.1,550.5 382.1,572.6 344.7,572.6 	"/>
	<polygon opacity="0.7" fill="#FFFFFF" points="311,484.7 363.4,539 301.7,550.5 	"/>
	<polygon opacity="0.5" fill="#FFFFFF" points="495,184.3 436.2,135.4 426.2,198.1 	"/>
	<polygon opacity="0.7" fill="#FFFFFF" points="458.8,293.5 426.2,198.1 495,184.3 	"/>
	<polygon opacity="0.7" fill="#FFFFFF" points="401.9,302.4 426.2,198.1 363.4,172 	"/>
	<polygon opacity="0.6" fill="#FFFFFF" points="436.2,135.4 363.4,172 426.2,198.1 	"/>
	<polygon opacity="0.6" fill="#FFFFFF" points="495,184.3 513.2,254.5 483.2,314.1 458.8,293.5 	"/>
	<polygon opacity="0.8" fill="#FFFFFF" points="401.9,302.4 426.2,198.1 458.8,293.5 	"/>
	<polygon opacity="0.8" fill="#FFFFFF" points="423,326.1 449.4,332 468.2,348.5 426.2,352 389.3,344.1 	"/>
	<polygon opacity="0.8" fill="#FFFFFF" points="468.2,348.5 483.2,314.1 513.2,254.5 500.8,354.9 	"/>
	<polygon opacity="0.7" fill="#FFFFFF" points="525.5,328.8 525.5,371.1 513.8,406.2 500.8,354.9 	"/>
	<polygon opacity="0.5" fill="#FFFFFF" points="486.9,437 500.8,354.9 513.8,406.2 	"/>
	<polygon opacity="0.7" fill="#FFFFFF" points="433.7,393.7 468.2,348.5 500.8,354.9 	"/>
	<polygon opacity="0.5" fill="#FFFFFF" points="389.3,344.1 407.1,415.4 381.6,403.7 376.3,338.5 	"/>
	<polygon opacity="0.6" fill="#FFFFFF" points="401.9,302.4 363.4,302.4 376.3,338.5 	"/>
	<polygon opacity="0.6" fill="#FFFFFF" points="412.1,314.1 376.3,338.5 389.3,344.1 423,326.1 449.4,332 468.2,348.5 483.2,314.1 	
		"/>
	<polygon opacity="0.4" fill="#FFFFFF" points="458.8,293.5 401.9,302.4 376.3,338.5 412.1,314.1 483.2,314.1 	"/>
	<polygon opacity="0.5" fill="#FFFFFF" points="468.2,348.5 426.2,352 389.3,344.1 433.7,393.7 	"/>
	<polygon opacity="0.6" fill="#FFFFFF" points="504.8,322.5 500.8,354.9 525.5,328.8 	"/>
	<polygon opacity="0.5" fill="#FFFFFF" points="397.4,423.5 381.6,425.4 363.4,440.1 379,442.3 403.4,431.6 	"/>
	<polygon opacity="0.6" fill="#FFFFFF" points="433.7,393.7 389.3,344.1 407.1,415.4 403.4,431.6 430.2,462 	"/>
	<polygon opacity="0.6" fill="#FFFFFF" points="433.7,393.7 478.5,486.5 486.9,437 500.8,354.9 	"/>
	<polygon opacity="0.6" fill="#FFFFFF" points="379,442.3 381.9,473.4 363.4,474.3 363.4,440.1 	"/>
	<polygon opacity="0.7" fill="#FFFFFF" points="430.2,462 433.7,393.7 478.5,486.5 	"/>
	<polygon opacity="0.5" fill="#FFFFFF" points="425.1,550.5 415.8,484.7 430.2,462 478.5,486.5 	"/>
	<polygon opacity="0.4" fill="#FFFFFF" points="403.4,431.6 397.4,423.5 381.6,425.4 363.4,440.1 381.6,403.7 407.1,415.4 	"/>
	<polygon opacity="0.7" fill="#FFFFFF" points="415.8,484.7 381.9,473.4 379,442.3 403.4,431.6 430.2,462 	"/>
	<polygon opacity="0.6" fill="#FFFFFF" points="415.8,484.7 363.4,539 425.1,550.5 	"/>
	<polygon opacity="0.7" fill="#FFFFFF" points="363.4,489.8 311,484.7 340,502.4 363.4,509.4 386.7,502.4 415.8,484.7 	"/>
	<polygon opacity="0.5" fill="#FFFFFF" points="363.4,474.3 344.9,473.4 311,484.7 363.4,489.8 	"/>
	<polygon opacity="0.4" fill="#FFFFFF" points="415.8,484.7 381.9,473.4 363.4,474.3 363.4,489.8 	"/>
	<polygon opacity="0.5" fill="#FFFFFF" points="340,502.4 311,484.7 363.4,539 363.4,509.4 	"/>
	<polygon opacity="0.4" fill="#FFFFFF" points="386.7,502.4 363.4,509.4 363.4,539 415.8,484.7 	"/>
</g>
<circle fill="none" cx="360" cy="360" r="360"/>
</svg>
