<?xml version="1.0" encoding="utf-8"?>
<!-- Generator: Adobe Illustrator 22.0.1, SVG Export Plug-In . SVG Version: 6.00 Build 0)  -->
<svg version="1.1" xmlns="http://www.w3.org/2000/svg" xmlns:xlink="http://www.w3.org/1999/xlink" x="0px" y="0px" width="26px"
	 height="26px" viewBox="0 0 26 26" enable-background="new 0 0 26 26" xml:space="preserve">
<g id="gray40" display="none">
	<g id="Layer_2_26_" display="inline">
		<path fill="#282828" d="M21.8,8.6c0,0.2,0,0.4,0,0.6c0,6-4.5,12.8-12.8,12.8c-2.5,0-4.9-0.7-6.9-2C2.4,20,2.7,20,3.1,20
			c2.1,0,4.1-0.7,5.6-1.9c-2,0-3.6-1.3-4.2-3.1c0.3,0,0.5,0,0.8,0c0.4,0,0.8-0.1,1.2-0.2c-2.1-0.4-3.6-2.2-3.6-4.4c0,0,0,0,0-0.1
			c0.6,0.3,1.3,0.5,2,0.6c-1.2-0.8-2-2.2-2-3.8c0-0.8,0.2-1.6,0.6-2.3c2.2,2.7,5.6,4.5,9.3,4.7c-0.1-0.3-0.1-0.7-0.1-1
			c0-2.5,2-4.5,4.5-4.5c1.3,0,2.5,0.5,3.3,1.4c1-0.2,2-0.6,2.9-1.1c-0.3,1.1-1.1,1.9-2,2.5c0.9-0.1,1.8-0.4,2.6-0.7
			C23.4,7.1,22.6,7.9,21.8,8.6z"/>
	</g>
</g>
<g id="gray80" display="none">
	<g id="Layer_2_21_" display="inline">
		<path fill="#505050" d="M21.8,8.6c0,0.2,0,0.4,0,0.6c0,6-4.5,12.8-12.8,12.8c-2.5,0-4.9-0.7-6.9-2C2.4,20,2.7,20,3.1,20
			c2.1,0,4.1-0.7,5.6-1.9c-2,0-3.6-1.3-4.2-3.1c0.3,0,0.5,0,0.8,0c0.4,0,0.8-0.1,1.2-0.2c-2.1-0.4-3.6-2.2-3.6-4.4c0,0,0,0,0-0.1
			c0.6,0.3,1.3,0.5,2,0.6c-1.2-0.8-2-2.2-2-3.8c0-0.8,0.2-1.6,0.6-2.3c2.2,2.7,5.6,4.5,9.3,4.7c-0.1-0.3-0.1-0.7-0.1-1
			c0-2.5,2-4.5,4.5-4.5c1.3,0,2.5,0.5,3.3,1.4c1-0.2,2-0.6,2.9-1.1c-0.3,1.1-1.1,1.9-2,2.5c0.9-0.1,1.8-0.4,2.6-0.7
			C23.4,7.1,22.6,7.9,21.8,8.6z"/>
	</g>
</g>
<g id="gray180" display="none">
	<g id="Layer_2_16_" display="inline">
		<path fill="#B4B4B4" d="M21.8,8.6c0,0.2,0,0.4,0,0.6c0,6-4.5,12.8-12.8,12.8c-2.5,0-4.9-0.7-6.9-2C2.4,20,2.7,20,3.1,20
			c2.1,0,4.1-0.7,5.6-1.9c-2,0-3.6-1.3-4.2-3.1c0.3,0,0.5,0,0.8,0c0.4,0,0.8-0.1,1.2-0.2c-2.1-0.4-3.6-2.2-3.6-4.4c0,0,0,0,0-0.1
			c0.6,0.3,1.3,0.5,2,0.6c-1.2-0.8-2-2.2-2-3.8c0-0.8,0.2-1.6,0.6-2.3c2.2,2.7,5.6,4.5,9.3,4.7c-0.1-0.3-0.1-0.7-0.1-1
			c0-2.5,2-4.5,4.5-4.5c1.3,0,2.5,0.5,3.3,1.4c1-0.2,2-0.6,2.9-1.1c-0.3,1.1-1.1,1.9-2,2.5c0.9-0.1,1.8-0.4,2.6-0.7
			C23.4,7.1,22.6,7.9,21.8,8.6z"/>
	</g>
</g>
<g id="gray230" display="none">
	<g id="Layer_2_11_" display="inline">
		<path fill="#E6E6E6" d="M21.8,8.6c0,0.2,0,0.4,0,0.6c0,6-4.5,12.8-12.8,12.8c-2.5,0-4.9-0.7-6.9-2C2.4,20,2.7,20,3.1,20
			c2.1,0,4.1-0.7,5.6-1.9c-2,0-3.6-1.3-4.2-3.1c0.3,0,0.5,0,0.8,0c0.4,0,0.8-0.1,1.2-0.2c-2.1-0.4-3.6-2.2-3.6-4.4c0,0,0,0,0-0.1
			c0.6,0.3,1.3,0.5,2,0.6c-1.2-0.8-2-2.2-2-3.8c0-0.8,0.2-1.6,0.6-2.3c2.2,2.7,5.6,4.5,9.3,4.7c-0.1-0.3-0.1-0.7-0.1-1
			c0-2.5,2-4.5,4.5-4.5c1.3,0,2.5,0.5,3.3,1.4c1-0.2,2-0.6,2.9-1.1c-0.3,1.1-1.1,1.9-2,2.5c0.9-0.1,1.8-0.4,2.6-0.7
			C23.4,7.1,22.6,7.9,21.8,8.6z"/>
	</g>
</g>
<g id="white">
	<g id="Layer_2_6_">
		<path fill="#FFFFFF" d="M21.8,8.6c0,0.2,0,0.4,0,0.6c0,6-4.5,12.8-12.8,12.8c-2.5,0-4.9-0.7-6.9-2C2.4,20,2.7,20,3.1,20
			c2.1,0,4.1-0.7,5.6-1.9c-2,0-3.6-1.3-4.2-3.1c0.3,0,0.5,0,0.8,0c0.4,0,0.8-0.1,1.2-0.2c-2.1-0.4-3.6-2.2-3.6-4.4c0,0,0,0,0-0.1
			c0.6,0.3,1.3,0.5,2,0.6c-1.2-0.8-2-2.2-2-3.8c0-0.8,0.2-1.6,0.6-2.3c2.2,2.7,5.6,4.5,9.3,4.7c-0.1-0.3-0.1-0.7-0.1-1
			c0-2.5,2-4.5,4.5-4.5c1.3,0,2.5,0.5,3.3,1.4c1-0.2,2-0.6,2.9-1.1c-0.3,1.1-1.1,1.9-2,2.5c0.9-0.1,1.8-0.4,2.6-0.7
			C23.4,7.1,22.6,7.9,21.8,8.6z"/>
	</g>
</g>
<g id="red" display="none">
	<g id="Layer_2_1_" display="inline">
		<path fill="#DC1E32" d="M21.8,8.6c0,0.2,0,0.4,0,0.6c0,6-4.5,12.8-12.8,12.8c-2.5,0-4.9-0.7-6.9-2C2.4,20,2.7,20,3.1,20
			c2.1,0,4.1-0.7,5.6-1.9c-2,0-3.6-1.3-4.2-3.1c0.3,0,0.5,0,0.8,0c0.4,0,0.8-0.1,1.2-0.2c-2.1-0.4-3.6-2.2-3.6-4.4c0,0,0,0,0-0.1
			c0.6,0.3,1.3,0.5,2,0.6c-1.2-0.8-2-2.2-2-3.8c0-0.8,0.2-1.6,0.6-2.3c2.2,2.7,5.6,4.5,9.3,4.7c-0.1-0.3-0.1-0.7-0.1-1
			c0-2.5,2-4.5,4.5-4.5c1.3,0,2.5,0.5,3.3,1.4c1-0.2,2-0.6,2.9-1.1c-0.3,1.1-1.1,1.9-2,2.5c0.9-0.1,1.8-0.4,2.6-0.7
			C23.4,7.1,22.6,7.9,21.8,8.6z"/>
	</g>
</g>
</svg>
