<?xml version="1.0" encoding="utf-8"?>
<!-- Generator: Adobe Illustrator 22.0.1, SVG Export Plug-In . SVG Version: 6.00 Build 0)  -->
<svg version="1.1" xmlns="http://www.w3.org/2000/svg" xmlns:xlink="http://www.w3.org/1999/xlink" x="0px" y="0px" width="26px"
	 height="26px" viewBox="0 0 26 26" enable-background="new 0 0 26 26" xml:space="preserve">
<g id="gray40" display="none">
	<path display="inline" fill="#282828" d="M13,2C6.9,2,2,6.9,2,13s4.9,11,11,11s11-4.9,11-11S19.1,2,13,2z M8,12h-4
		c0.1-1.1,0.4-2.1,0.9-3h3.4C8.2,10,8.1,11,8,12z M10.3,9h5.3c0.2,0.9,0.3,1.9,0.3,3h-6C10.1,10.9,10.2,9.9,10.3,9z M4.1,14h4
		c0,1,0.1,2,0.3,3H4.9C4.5,16.1,4.2,15.1,4.1,14z M10,14h6c0,1.1-0.2,2.1-0.3,3h-5.3C10.2,16.1,10.1,15.1,10,14z M18,14h4
		c-0.1,1.1-0.4,2.1-0.9,3h-3.4C17.8,16,17.9,15,18,14z M18,12c0-1-0.1-2-0.3-3h3.4c0.5,0.9,0.8,1.9,0.9,3H18z M19.7,7h-2.5
		c-0.2-0.9-0.5-1.7-0.9-2.4C17.6,5.2,18.8,6,19.7,7z M15.2,7h-4.3c0.6-1.9,1.5-3,2.2-3S14.5,5.1,15.2,7z M9.7,4.6
		C9.3,5.3,9,6.1,8.8,7H6.3C7.2,6,8.4,5.2,9.7,4.6z M6.3,19h2.5c0.2,0.9,0.5,1.7,0.9,2.4C8.4,20.8,7.2,20,6.3,19z M10.8,19h4.3
		c-0.6,1.9-1.5,3-2.2,3S11.5,20.9,10.8,19z M16.3,21.4c0.4-0.7,0.7-1.5,0.9-2.4h2.5C18.8,20,17.6,20.8,16.3,21.4z"/>
</g>
<g id="gray80" display="none">
	<path display="inline" fill="#505050" d="M13,2C6.9,2,2,6.9,2,13s4.9,11,11,11s11-4.9,11-11S19.1,2,13,2z M8,12h-4
		c0.1-1.1,0.4-2.1,0.9-3h3.4C8.2,10,8.1,11,8,12z M10.3,9h5.3c0.2,0.9,0.3,1.9,0.3,3h-6C10.1,10.9,10.2,9.9,10.3,9z M4.1,14h4
		c0,1,0.1,2,0.3,3H4.9C4.5,16.1,4.2,15.1,4.1,14z M10,14h6c0,1.1-0.2,2.1-0.3,3h-5.3C10.2,16.1,10.1,15.1,10,14z M18,14h4
		c-0.1,1.1-0.4,2.1-0.9,3h-3.4C17.8,16,17.9,15,18,14z M18,12c0-1-0.1-2-0.3-3h3.4c0.5,0.9,0.8,1.9,0.9,3H18z M19.7,7h-2.5
		c-0.2-0.9-0.5-1.7-0.9-2.4C17.6,5.2,18.8,6,19.7,7z M15.2,7h-4.3c0.6-1.9,1.5-3,2.2-3S14.5,5.1,15.2,7z M9.7,4.6
		C9.3,5.3,9,6.1,8.8,7H6.3C7.2,6,8.4,5.2,9.7,4.6z M6.3,19h2.5c0.2,0.9,0.5,1.7,0.9,2.4C8.4,20.8,7.2,20,6.3,19z M10.8,19h4.3
		c-0.6,1.9-1.5,3-2.2,3S11.5,20.9,10.8,19z M16.3,21.4c0.4-0.7,0.7-1.5,0.9-2.4h2.5C18.8,20,17.6,20.8,16.3,21.4z"/>
</g>
<g id="gray180" display="none">
	<path display="inline" fill="#B4B4B4" d="M13,2C6.9,2,2,6.9,2,13s4.9,11,11,11s11-4.9,11-11S19.1,2,13,2z M8,12h-4
		c0.1-1.1,0.4-2.1,0.9-3h3.4C8.2,10,8.1,11,8,12z M10.3,9h5.3c0.2,0.9,0.3,1.9,0.3,3h-6C10.1,10.9,10.2,9.9,10.3,9z M4.1,14h4
		c0,1,0.1,2,0.3,3H4.9C4.5,16.1,4.2,15.1,4.1,14z M10,14h6c0,1.1-0.2,2.1-0.3,3h-5.3C10.2,16.1,10.1,15.1,10,14z M18,14h4
		c-0.1,1.1-0.4,2.1-0.9,3h-3.4C17.8,16,17.9,15,18,14z M18,12c0-1-0.1-2-0.3-3h3.4c0.5,0.9,0.8,1.9,0.9,3H18z M19.7,7h-2.5
		c-0.2-0.9-0.5-1.7-0.9-2.4C17.6,5.2,18.8,6,19.7,7z M15.2,7h-4.3c0.6-1.9,1.5-3,2.2-3S14.5,5.1,15.2,7z M9.7,4.6
		C9.3,5.3,9,6.1,8.8,7H6.3C7.2,6,8.4,5.2,9.7,4.6z M6.3,19h2.5c0.2,0.9,0.5,1.7,0.9,2.4C8.4,20.8,7.2,20,6.3,19z M10.8,19h4.3
		c-0.6,1.9-1.5,3-2.2,3S11.5,20.9,10.8,19z M16.3,21.4c0.4-0.7,0.7-1.5,0.9-2.4h2.5C18.8,20,17.6,20.8,16.3,21.4z"/>
</g>
<g id="gray230" display="none">
	<path display="inline" fill="#E6E6E6" d="M13,2C6.9,2,2,6.9,2,13s4.9,11,11,11s11-4.9,11-11S19.1,2,13,2z M8,12h-4
		c0.1-1.1,0.4-2.1,0.9-3h3.4C8.2,10,8.1,11,8,12z M10.3,9h5.3c0.2,0.9,0.3,1.9,0.3,3h-6C10.1,10.9,10.2,9.9,10.3,9z M4.1,14h4
		c0,1,0.1,2,0.3,3H4.9C4.5,16.1,4.2,15.1,4.1,14z M10,14h6c0,1.1-0.2,2.1-0.3,3h-5.3C10.2,16.1,10.1,15.1,10,14z M18,14h4
		c-0.1,1.1-0.4,2.1-0.9,3h-3.4C17.8,16,17.9,15,18,14z M18,12c0-1-0.1-2-0.3-3h3.4c0.5,0.9,0.8,1.9,0.9,3H18z M19.7,7h-2.5
		c-0.2-0.9-0.5-1.7-0.9-2.4C17.6,5.2,18.8,6,19.7,7z M15.2,7h-4.3c0.6-1.9,1.5-3,2.2-3S14.5,5.1,15.2,7z M9.7,4.6
		C9.3,5.3,9,6.1,8.8,7H6.3C7.2,6,8.4,5.2,9.7,4.6z M6.3,19h2.5c0.2,0.9,0.5,1.7,0.9,2.4C8.4,20.8,7.2,20,6.3,19z M10.8,19h4.3
		c-0.6,1.9-1.5,3-2.2,3S11.5,20.9,10.8,19z M16.3,21.4c0.4-0.7,0.7-1.5,0.9-2.4h2.5C18.8,20,17.6,20.8,16.3,21.4z"/>
</g>
<g id="white">
	<path fill="#FFFFFF" d="M13,2C6.9,2,2,6.9,2,13s4.9,11,11,11s11-4.9,11-11S19.1,2,13,2z M8,12h-4c0.1-1.1,0.4-2.1,0.9-3h3.4
		C8.2,10,8.1,11,8,12z M10.3,9h5.3c0.2,0.9,0.3,1.9,0.3,3h-6C10.1,10.9,10.2,9.9,10.3,9z M4.1,14h4c0,1,0.1,2,0.3,3H4.9
		C4.5,16.1,4.2,15.1,4.1,14z M10,14h6c0,1.1-0.2,2.1-0.3,3h-5.3C10.2,16.1,10.1,15.1,10,14z M18,14h4c-0.1,1.1-0.4,2.1-0.9,3h-3.4
		C17.8,16,17.9,15,18,14z M18,12c0-1-0.1-2-0.3-3h3.4c0.5,0.9,0.8,1.9,0.9,3H18z M19.7,7h-2.5c-0.2-0.9-0.5-1.7-0.9-2.4
		C17.6,5.2,18.8,6,19.7,7z M15.2,7h-4.3c0.6-1.9,1.5-3,2.2-3S14.5,5.1,15.2,7z M9.7,4.6C9.3,5.3,9,6.1,8.8,7H6.3
		C7.2,6,8.4,5.2,9.7,4.6z M6.3,19h2.5c0.2,0.9,0.5,1.7,0.9,2.4C8.4,20.8,7.2,20,6.3,19z M10.8,19h4.3c-0.6,1.9-1.5,3-2.2,3
		S11.5,20.9,10.8,19z M16.3,21.4c0.4-0.7,0.7-1.5,0.9-2.4h2.5C18.8,20,17.6,20.8,16.3,21.4z"/>
</g>
<g id="red" display="none">
	<path display="inline" fill="#DC1E32" d="M13,2C6.9,2,2,6.9,2,13s4.9,11,11,11s11-4.9,11-11S19.1,2,13,2z M8,12h-4
		c0.1-1.1,0.4-2.1,0.9-3h3.4C8.2,10,8.1,11,8,12z M10.3,9h5.3c0.2,0.9,0.3,1.9,0.3,3h-6C10.1,10.9,10.2,9.9,10.3,9z M4.1,14h4
		c0,1,0.1,2,0.3,3H4.9C4.5,16.1,4.2,15.1,4.1,14z M10,14h6c0,1.1-0.2,2.1-0.3,3h-5.3C10.2,16.1,10.1,15.1,10,14z M18,14h4
		c-0.1,1.1-0.4,2.1-0.9,3h-3.4C17.8,16,17.9,15,18,14z M18,12c0-1-0.1-2-0.3-3h3.4c0.5,0.9,0.8,1.9,0.9,3H18z M19.7,7h-2.5
		c-0.2-0.9-0.5-1.7-0.9-2.4C17.6,5.2,18.8,6,19.7,7z M15.2,7h-4.3c0.6-1.9,1.5-3,2.2-3S14.5,5.1,15.2,7z M9.7,4.6
		C9.3,5.3,9,6.1,8.8,7H6.3C7.2,6,8.4,5.2,9.7,4.6z M6.3,19h2.5c0.2,0.9,0.5,1.7,0.9,2.4C8.4,20.8,7.2,20,6.3,19z M10.8,19h4.3
		c-0.6,1.9-1.5,3-2.2,3S11.5,20.9,10.8,19z M16.3,21.4c0.4-0.7,0.7-1.5,0.9-2.4h2.5C18.8,20,17.6,20.8,16.3,21.4z"/>
</g>
</svg>
