<?xml version="1.0" encoding="utf-8"?>
<!-- Generator: Adobe Illustrator 22.0.1, SVG Export Plug-In . SVG Version: 6.00 Build 0)  -->
<svg version="1.1" xmlns="http://www.w3.org/2000/svg" xmlns:xlink="http://www.w3.org/1999/xlink" x="0px" y="0px" width="26px"
	 height="26px" viewBox="0 0 26 26" enable-background="new 0 0 26 26" xml:space="preserve">
<g id="gray40" display="none">
	<g id="Layer_2_30_" display="inline">
		<path fill="#282828" d="M23.8,8.5c0,0-0.2-1.5-0.9-2.2c-0.8-0.9-1.8-0.9-2.2-0.9C17.6,5.2,13,5.2,13,5.2l0,0c0,0-4.6,0-7.7,0.2
			c-0.4,0-1.4,0-2.2,0.9C2.4,7,2.2,8.5,2.2,8.5S2,10.3,2,12.1v1.7c0,1.8,0.2,3.6,0.2,3.6s0.2,1.5,0.9,2.2c0.8,0.9,1.9,0.8,2.4,0.9
			c1.8,0.2,7.5,0.2,7.5,0.2s4.6,0,7.7-0.2c0.4-0.1,1.4-0.1,2.2-0.9c0.7-0.7,0.9-2.2,0.9-2.2s0.2-1.8,0.2-3.6v-1.7
			C24,10.3,23.8,8.5,23.8,8.5z M10.7,15.8V9.6l5.9,3.1L10.7,15.8z"/>
	</g>
</g>
<g id="gray80" display="none">
	<g id="Layer_2_25_" display="inline">
		<path fill="#505050" d="M23.8,8.5c0,0-0.2-1.5-0.9-2.2c-0.8-0.9-1.8-0.9-2.2-0.9C17.6,5.2,13,5.2,13,5.2l0,0c0,0-4.6,0-7.7,0.2
			c-0.4,0-1.4,0-2.2,0.9C2.4,7,2.2,8.5,2.2,8.5S2,10.3,2,12.1v1.7c0,1.8,0.2,3.6,0.2,3.6s0.2,1.5,0.9,2.2c0.8,0.9,1.9,0.8,2.4,0.9
			c1.8,0.2,7.5,0.2,7.5,0.2s4.6,0,7.7-0.2c0.4-0.1,1.4-0.1,2.2-0.9c0.7-0.7,0.9-2.2,0.9-2.2s0.2-1.8,0.2-3.6v-1.7
			C24,10.3,23.8,8.5,23.8,8.5z M10.7,15.8V9.6l5.9,3.1L10.7,15.8z"/>
	</g>
</g>
<g id="gray180" display="none">
	<g id="Layer_2_20_" display="inline">
		<path fill="#B4B4B4" d="M23.8,8.5c0,0-0.2-1.5-0.9-2.2c-0.8-0.9-1.8-0.9-2.2-0.9C17.6,5.2,13,5.2,13,5.2l0,0c0,0-4.6,0-7.7,0.2
			c-0.4,0-1.4,0-2.2,0.9C2.4,7,2.2,8.5,2.2,8.5S2,10.3,2,12.1v1.7c0,1.8,0.2,3.6,0.2,3.6s0.2,1.5,0.9,2.2c0.8,0.9,1.9,0.8,2.4,0.9
			c1.8,0.2,7.5,0.2,7.5,0.2s4.6,0,7.7-0.2c0.4-0.1,1.4-0.1,2.2-0.9c0.7-0.7,0.9-2.2,0.9-2.2s0.2-1.8,0.2-3.6v-1.7
			C24,10.3,23.8,8.5,23.8,8.5z M10.7,15.8V9.6l5.9,3.1L10.7,15.8z"/>
	</g>
</g>
<g id="gray230" display="none">
	<g id="Layer_2_15_" display="inline">
		<path fill="#E6E6E6" d="M23.8,8.5c0,0-0.2-1.5-0.9-2.2c-0.8-0.9-1.8-0.9-2.2-0.9C17.6,5.2,13,5.2,13,5.2l0,0c0,0-4.6,0-7.7,0.2
			c-0.4,0-1.4,0-2.2,0.9C2.4,7,2.2,8.5,2.2,8.5S2,10.3,2,12.1v1.7c0,1.8,0.2,3.6,0.2,3.6s0.2,1.5,0.9,2.2c0.8,0.9,1.9,0.8,2.4,0.9
			c1.8,0.2,7.5,0.2,7.5,0.2s4.6,0,7.7-0.2c0.4-0.1,1.4-0.1,2.2-0.9c0.7-0.7,0.9-2.2,0.9-2.2s0.2-1.8,0.2-3.6v-1.7
			C24,10.3,23.8,8.5,23.8,8.5z M10.7,15.8V9.6l5.9,3.1L10.7,15.8z"/>
	</g>
</g>
<g id="white">
	<g id="Layer_2_10_">
		<path fill="#FFFFFF" d="M23.8,8.5c0,0-0.2-1.5-0.9-2.2c-0.8-0.9-1.8-0.9-2.2-0.9C17.6,5.2,13,5.2,13,5.2l0,0c0,0-4.6,0-7.7,0.2
			c-0.4,0-1.4,0-2.2,0.9C2.4,7,2.2,8.5,2.2,8.5S2,10.3,2,12.1v1.7c0,1.8,0.2,3.6,0.2,3.6s0.2,1.5,0.9,2.2c0.8,0.9,1.9,0.8,2.4,0.9
			c1.8,0.2,7.5,0.2,7.5,0.2s4.6,0,7.7-0.2c0.4-0.1,1.4-0.1,2.2-0.9c0.7-0.7,0.9-2.2,0.9-2.2s0.2-1.8,0.2-3.6v-1.7
			C24,10.3,23.8,8.5,23.8,8.5z M10.7,15.8V9.6l5.9,3.1L10.7,15.8z"/>
	</g>
</g>
<g id="red" display="none">
	<g id="Layer_2_5_" display="inline">
		<path fill="#DC1E32" d="M23.8,8.5c0,0-0.2-1.5-0.9-2.2c-0.8-0.9-1.8-0.9-2.2-0.9C17.6,5.2,13,5.2,13,5.2l0,0c0,0-4.6,0-7.7,0.2
			c-0.4,0-1.4,0-2.2,0.9C2.4,7,2.2,8.5,2.2,8.5S2,10.3,2,12.1v1.7c0,1.8,0.2,3.6,0.2,3.6s0.2,1.5,0.9,2.2c0.8,0.9,1.9,0.8,2.4,0.9
			c1.8,0.2,7.5,0.2,7.5,0.2s4.6,0,7.7-0.2c0.4-0.1,1.4-0.1,2.2-0.9c0.7-0.7,0.9-2.2,0.9-2.2s0.2-1.8,0.2-3.6v-1.7
			C24,10.3,23.8,8.5,23.8,8.5z M10.7,15.8V9.6l5.9,3.1L10.7,15.8z"/>
	</g>
</g>
</svg>
